G04 Layer_Color=128*
%FSLAX45Y45*%
%MOMM*%
%TF.FileFunction,Drillmap*%
%TF.Part,Single*%
%TFFileComment,The blind Vias under BGA and Other Pads are Via-In-Pad (VIP)*%
G01*
G75*
%TA.AperFunction,NonConductor*%
%ADD39C,0.15000*%
%ADD155C,0.12700*%
D39*
X3599430Y-2822042D02*
Y-2922009D01*
X3649414D01*
X3666075Y-2905348D01*
Y-2838703D01*
X3649414Y-2822042D01*
X3599430D01*
X3699398Y-2855364D02*
Y-2922009D01*
Y-2888687D01*
X3716060Y-2872025D01*
X3732721Y-2855364D01*
X3749382D01*
X3799366Y-2922009D02*
X3832689D01*
X3816027D01*
Y-2855364D01*
X3799366D01*
X3882672Y-2922009D02*
X3915995D01*
X3899334D01*
Y-2822042D01*
X3882672D01*
X3965979Y-2922009D02*
X3999301D01*
X3982640D01*
Y-2822042D01*
X3965979D01*
X4215898Y-2838703D02*
X4199237Y-2822042D01*
X4165914D01*
X4149253Y-2838703D01*
Y-2905348D01*
X4165914Y-2922009D01*
X4199237D01*
X4215898Y-2905348D01*
Y-2872025D01*
X4182576D01*
X4249221Y-2855364D02*
Y-2905348D01*
X4265882Y-2922009D01*
X4315866D01*
Y-2855364D01*
X4349189Y-2922009D02*
X4382511D01*
X4365850D01*
Y-2855364D01*
X4349189D01*
X4499140Y-2822042D02*
Y-2922009D01*
X4449156D01*
X4432495Y-2905348D01*
Y-2872025D01*
X4449156Y-2855364D01*
X4499140D01*
X4582447Y-2922009D02*
X4549124D01*
X4532463Y-2905348D01*
Y-2872025D01*
X4549124Y-2855364D01*
X4582447D01*
X4599108Y-2872025D01*
Y-2888687D01*
X4532463D01*
D155*
X1314631Y-663610D02*
X1374630D01*
X1344631Y-693609D02*
Y-633610D01*
X326631Y-663610D02*
X386630D01*
X356630Y-693609D02*
Y-633610D01*
X-75000Y0D02*
X75000D01*
X0Y-75000D02*
Y75000D01*
X2745565Y-167145D02*
X2805565D01*
X2775565Y-197145D02*
Y-137145D01*
X2745565Y-294145D02*
X2805565D01*
X2775565Y-324145D02*
Y-264145D01*
X2745565Y-421145D02*
X2805565D01*
X2775565Y-451145D02*
Y-391145D01*
X2745565Y-548145D02*
X2805565D01*
X2775565Y-578145D02*
Y-518145D01*
X2745565Y-675145D02*
X2805565D01*
X2775565Y-705145D02*
Y-645145D01*
X2243200Y-239100D02*
X2263200D01*
X2253200Y-249100D02*
Y-229100D01*
X-1871Y-222019D02*
X13128D01*
X5629Y-229518D02*
Y-214519D01*
X340629Y106386D02*
X360629D01*
X350629Y96386D02*
Y116386D01*
X126600Y151300D02*
X141600D01*
X134100Y143800D02*
Y158800D01*
X301200Y-478600D02*
X316200D01*
X308700Y-486100D02*
Y-471100D01*
X653129Y14946D02*
X668129D01*
X660629Y7446D02*
Y22446D01*
X653129Y-38194D02*
X668129D01*
X660629Y-45694D02*
Y-30694D01*
X2507576Y-85193D02*
X2522576D01*
X2515076Y-92693D02*
Y-77693D01*
X2427929Y-86044D02*
X2442929D01*
X2435429Y-93543D02*
Y-78544D01*
X2564385Y-85053D02*
X2579385D01*
X2571885Y-92553D02*
Y-77553D01*
X2295849Y-56641D02*
X2310849D01*
X2303349Y-64141D02*
Y-49141D01*
X2273953Y-121329D02*
X2288952D01*
X2281452Y-128829D02*
Y-113829D01*
X2300000Y123000D02*
X2320000D01*
X2310000Y113000D02*
Y133000D01*
X1477721Y164631D02*
X1492721D01*
X1485221Y157132D02*
Y172131D01*
X1252700Y-142363D02*
X1267700D01*
X1260200Y-149863D02*
Y-134863D01*
X1018988Y129283D02*
X1033988D01*
X1026488Y121783D02*
Y136783D01*
X1854715Y-131216D02*
X1869715D01*
X1862215Y-138716D02*
Y-123716D01*
X1783987Y-131216D02*
X1798987D01*
X1791487Y-138716D02*
Y-123716D01*
X2370651Y125321D02*
X2385651D01*
X2378151Y117821D02*
Y132821D01*
X2433763Y126756D02*
X2448762D01*
X2441263Y119256D02*
Y134256D01*
X1526229Y-330556D02*
X1541229D01*
X1533729Y-338056D02*
Y-323056D01*
X343129Y-178614D02*
X358129D01*
X350629Y-186114D02*
Y-171114D01*
X703869Y-205304D02*
X718869D01*
X711369Y-212804D02*
Y-197804D01*
X2142677Y-420054D02*
X2157676D01*
X2150177Y-427554D02*
Y-412554D01*
X1661000Y-617600D02*
X1681000D01*
X1671000Y-627600D02*
Y-607600D01*
X1780184Y-709609D02*
X1795183D01*
X1787683Y-717109D02*
Y-702110D01*
X2086692Y-360874D02*
X2106692D01*
X2096692Y-370874D02*
Y-350874D01*
X1726117Y-660702D02*
X1741116D01*
X1733617Y-668202D02*
Y-653202D01*
X2384356Y-489311D02*
X2404356D01*
X2394356Y-499311D02*
Y-479311D01*
X1692810Y-432835D02*
X1707810D01*
X1700310Y-440334D02*
Y-425335D01*
X2229809Y-81885D02*
X2244809D01*
X2237309Y-89384D02*
Y-74385D01*
X1829256Y-71189D02*
X1844255D01*
X1836756Y-78689D02*
Y-63689D01*
X2175250Y-239100D02*
X2195250D01*
X2185250Y-249100D02*
Y-229100D01*
X2460719Y-288784D02*
X2480719D01*
X2470719Y-298784D02*
Y-278784D01*
X1301212Y-518322D02*
X1316211D01*
X1308711Y-525821D02*
Y-510822D01*
X2739019Y126757D02*
X2754018D01*
X2746519Y119258D02*
Y134257D01*
X-226871Y-108614D02*
X-211871D01*
X-219371Y-116114D02*
Y-101114D01*
X-186871Y-1108614D02*
X-171871D01*
X-179371Y-1116114D02*
Y-1101114D01*
X40949Y147676D02*
X55949D01*
X48449Y140176D02*
Y155176D01*
X1301212Y-463210D02*
X1316211D01*
X1308711Y-470710D02*
Y-455710D01*
X-237400Y-822300D02*
X-217400D01*
X-227400Y-832300D02*
Y-812300D01*
X-134381Y149476D02*
X-114381D01*
X-124381Y139476D02*
Y159476D01*
X-49401Y-421304D02*
X-29401D01*
X-39401Y-431304D02*
Y-411304D01*
X-154201Y-420064D02*
X-134201D01*
X-144201Y-430064D02*
Y-410064D01*
X2359599Y-286824D02*
X2379599D01*
X2369599Y-296824D02*
Y-276824D01*
X1461937Y-629986D02*
X1481937D01*
X1471937Y-639986D02*
Y-619986D01*
X2106320Y-644370D02*
X2126320D01*
X2116320Y-654370D02*
Y-634370D01*
X1952135Y-306303D02*
X1967134D01*
X1959635Y-313803D02*
Y-298804D01*
X213129Y-773614D02*
X228129D01*
X220629Y-781114D02*
Y-766114D01*
X-258956Y-347114D02*
X-243956D01*
X-251456Y-354614D02*
Y-339614D01*
X-342200Y-211500D02*
X-322200D01*
X-332200Y-221500D02*
Y-201500D01*
X-256406Y-200584D02*
X-241406D01*
X-248906Y-208084D02*
Y-193084D01*
X-436871Y-108614D02*
X-421871D01*
X-429371Y-116114D02*
Y-101114D01*
X1072734Y-87075D02*
X1087734D01*
X1080234Y-94575D02*
Y-79575D01*
X1161979Y-49214D02*
X1181979D01*
X1171979Y-59214D02*
Y-39214D01*
X196329Y98296D02*
X211329D01*
X203829Y90796D02*
Y105796D01*
X279030Y97400D02*
X294030D01*
X286530Y89900D02*
Y104900D01*
X210333Y-520818D02*
X225333D01*
X217833Y-528318D02*
Y-513318D01*
X-61676Y-1109640D02*
X-46676D01*
X-54176Y-1117140D02*
Y-1102141D01*
X213129Y-898614D02*
X228129D01*
X220629Y-906114D02*
Y-891114D01*
X213129Y-648614D02*
X228129D01*
X220629Y-656114D02*
Y-641114D01*
X48249Y-613964D02*
X68249D01*
X58249Y-623964D02*
Y-603964D01*
X-111050Y-857793D02*
X-96050D01*
X-103550Y-865293D02*
Y-850293D01*
X-22380Y-857630D02*
X-7380D01*
X-14880Y-865130D02*
Y-850130D01*
X-38550Y-1162230D02*
X-18550D01*
X-28550Y-1172230D02*
Y-1152230D01*
X4032Y-1067098D02*
X19031D01*
X11532Y-1074598D02*
Y-1059598D01*
X32384Y-830861D02*
X47383D01*
X39884Y-838361D02*
Y-823362D01*
X50799Y-548704D02*
X65799D01*
X58299Y-556204D02*
Y-541204D01*
X760220Y-205450D02*
X775220D01*
X767720Y-212950D02*
Y-197950D01*
X994611Y-89471D02*
X1009611D01*
X1002111Y-96971D02*
Y-81971D01*
X1045890Y-46364D02*
X1060890D01*
X1053390Y-53864D02*
Y-38864D01*
X-140071Y-26954D02*
X-120071D01*
X-130071Y-36954D02*
Y-16954D01*
X48157Y-173150D02*
X63157D01*
X55657Y-180650D02*
Y-165650D01*
X-87088Y-142149D02*
X-72089D01*
X-79588Y-149649D02*
Y-134649D01*
X777947Y160111D02*
X792947D01*
X785447Y152611D02*
Y167611D01*
X1051656Y87969D02*
X1066655D01*
X1059155Y80469D02*
Y95468D01*
X2226890Y-445800D02*
X2241890D01*
X2234390Y-453300D02*
Y-438300D01*
X2556347Y-406309D02*
X2571347D01*
X2563847Y-413808D02*
Y-398809D01*
X1741973Y-525389D02*
X1756973D01*
X1749473Y-532889D02*
Y-517889D01*
X1692691Y-499880D02*
X1707691D01*
X1700191Y-507379D02*
Y-492380D01*
X1726117Y-578239D02*
X1741116D01*
X1733617Y-585739D02*
Y-570739D01*
X1301212Y-409999D02*
X1316211D01*
X1308711Y-417499D02*
Y-402499D01*
X1744700Y-447500D02*
X1759700D01*
X1752200Y-455000D02*
Y-440000D01*
%TF.MD5,147c271281b5a5dd8a400e528ffa41d9*%
M02*
