G04 Layer_Color=16711935*
%FSLAX45Y45*%
%MOMM*%
%TF.FileFunction,Soldermask,Bot*%
%TF.Part,Single*%
%TFFileComment,The blind Vias under BGA and Other Pads are Via-In-Pad (VIP)*%
G01*
G75*
%TA.AperFunction,SMDPad,CuDef*%
%ADD16C,1.00000*%
%TA.AperFunction,NonConductor*%
%ADD39C,0.15000*%
%TA.AperFunction,ComponentPad*%
%ADD42C,1.00000*%
%TA.AperFunction,ViaPad*%
%ADD48C,0.45000*%
%TA.AperFunction,NonConductor*%
%ADD97R,1.19796X5.09418*%
%TA.AperFunction,SMDPad,CuDef*%
%ADD98R,0.82000X0.72000*%
%ADD99R,0.57000X1.19000*%
%TA.AperFunction,SMDPad,SMDef*%
G04:AMPARAMS|DCode=100|XSize=0.145mm|YSize=0.55mm|CornerRadius=0.02375mm|HoleSize=0mm|Usage=FLASHONLY|Rotation=0.000|XOffset=0mm|YOffset=0mm|HoleType=Round|Shape=RoundedRectangle|*
%AMROUNDEDRECTD100*
21,1,0.14500,0.50250,0,0,0.0*
21,1,0.09750,0.55000,0,0,0.0*
1,1,0.04750,0.04875,-0.25125*
1,1,0.04750,-0.04875,-0.25125*
1,1,0.04750,-0.04875,0.25125*
1,1,0.04750,0.04875,0.25125*
%
%ADD100ROUNDEDRECTD100*%
G04:AMPARAMS|DCode=101|XSize=0.15mm|YSize=0.3mm|CornerRadius=0.025mm|HoleSize=0mm|Usage=FLASHONLY|Rotation=270.000|XOffset=0mm|YOffset=0mm|HoleType=Round|Shape=RoundedRectangle|*
%AMROUNDEDRECTD101*
21,1,0.15000,0.25000,0,0,270.0*
21,1,0.10000,0.30000,0,0,270.0*
1,1,0.05000,-0.12500,-0.05000*
1,1,0.05000,-0.12500,0.05000*
1,1,0.05000,0.12500,0.05000*
1,1,0.05000,0.12500,-0.05000*
%
%ADD101ROUNDEDRECTD101*%
%TA.AperFunction,SMDPad,CuDef*%
%ADD102R,0.24000X0.33000*%
G04:AMPARAMS|DCode=103|XSize=0.24mm|YSize=0.33mm|CornerRadius=0.08mm|HoleSize=0mm|Usage=FLASHONLY|Rotation=180.000|XOffset=0mm|YOffset=0mm|HoleType=Round|Shape=RoundedRectangle|*
%AMROUNDEDRECTD103*
21,1,0.24000,0.17000,0,0,180.0*
21,1,0.08000,0.33000,0,0,180.0*
1,1,0.16000,-0.04000,0.08500*
1,1,0.16000,0.04000,0.08500*
1,1,0.16000,0.04000,-0.08500*
1,1,0.16000,-0.04000,-0.08500*
%
%ADD103ROUNDEDRECTD103*%
G04:AMPARAMS|DCode=104|XSize=0.33mm|YSize=0.58mm|CornerRadius=0.1025mm|HoleSize=0mm|Usage=FLASHONLY|Rotation=270.000|XOffset=0mm|YOffset=0mm|HoleType=Round|Shape=RoundedRectangle|*
%AMROUNDEDRECTD104*
21,1,0.33000,0.37500,0,0,270.0*
21,1,0.12500,0.58000,0,0,270.0*
1,1,0.20500,-0.18750,-0.06250*
1,1,0.20500,-0.18750,0.06250*
1,1,0.20500,0.18750,0.06250*
1,1,0.20500,0.18750,-0.06250*
%
%ADD104ROUNDEDRECTD104*%
%ADD105C,0.91400*%
%ADD106R,0.70000X1.00000*%
%ADD107R,1.20000X1.45000*%
%ADD108R,1.30000X1.45000*%
%ADD109R,0.80000X0.70000*%
%ADD110R,0.72000X0.82000*%
%TA.AperFunction,BGAPad,SMDef*%
%ADD111C,0.21000*%
%TA.AperFunction,BGAPad,CuDef*%
%ADD112C,0.50800*%
%TA.AperFunction,SMDPad,CuDef*%
%ADD113R,0.83820X0.50800*%
%ADD114R,0.88900X0.50800*%
%ADD115R,0.50800X0.88900*%
%ADD116R,0.56000X0.76000*%
%ADD117R,0.76000X0.56000*%
%ADD118R,0.92200X0.92200*%
%ADD119R,0.68000X0.64000*%
%ADD120R,0.64000X0.68000*%
%ADD121R,1.66000X0.71000*%
%ADD122R,0.71000X1.66000*%
%ADD123R,1.01000X1.06000*%
%TA.AperFunction,ComponentPad*%
%ADD124O,1.30000X2.60000*%
%TA.AperFunction,ViaPad*%
%ADD125C,1.70000*%
%ADD126C,0.60100*%
D16*
X2078940Y141330D02*
D03*
X-179371Y-1108614D02*
D03*
X-219371Y-108614D02*
D03*
X-429371D02*
D03*
X1475320Y-169630D02*
D03*
X350629Y-178614D02*
D03*
X-429371Y-828614D02*
D03*
X48449Y147676D02*
D03*
X1965460Y141330D02*
D03*
D39*
X1799430Y-2822042D02*
Y-2922009D01*
X1849414D01*
X1866076Y-2905348D01*
Y-2888687D01*
X1849414Y-2872025D01*
X1799430D01*
X1849414D01*
X1866076Y-2855364D01*
Y-2838703D01*
X1849414Y-2822042D01*
X1799430D01*
X1916060Y-2922009D02*
X1949382D01*
X1966043Y-2905348D01*
Y-2872025D01*
X1949382Y-2855364D01*
X1916060D01*
X1899398Y-2872025D01*
Y-2905348D01*
X1916060Y-2922009D01*
X2016027Y-2838703D02*
Y-2855364D01*
X1999366D01*
X2032689D01*
X2016027D01*
Y-2905348D01*
X2032689Y-2922009D01*
X2099334Y-2838703D02*
Y-2855364D01*
X2082672D01*
X2115995D01*
X2099334D01*
Y-2905348D01*
X2115995Y-2922009D01*
X2182640D02*
X2215963D01*
X2232624Y-2905348D01*
Y-2872025D01*
X2215963Y-2855364D01*
X2182640D01*
X2165979Y-2872025D01*
Y-2905348D01*
X2182640Y-2922009D01*
X2265947D02*
Y-2855364D01*
X2282608D01*
X2299269Y-2872025D01*
Y-2922009D01*
Y-2872025D01*
X2315931Y-2855364D01*
X2332592Y-2872025D01*
Y-2922009D01*
X2532527Y-2838703D02*
X2515866Y-2822042D01*
X2482544D01*
X2465882Y-2838703D01*
Y-2855364D01*
X2482544Y-2872025D01*
X2515866D01*
X2532527Y-2888687D01*
Y-2905348D01*
X2515866Y-2922009D01*
X2482544D01*
X2465882Y-2905348D01*
X2582511Y-2922009D02*
X2615834D01*
X2632495Y-2905348D01*
Y-2872025D01*
X2615834Y-2855364D01*
X2582511D01*
X2565850Y-2872025D01*
Y-2905348D01*
X2582511Y-2922009D01*
X2665818D02*
X2699140D01*
X2682479D01*
Y-2822042D01*
X2665818D01*
X2815769D02*
Y-2922009D01*
X2765786D01*
X2749124Y-2905348D01*
Y-2872025D01*
X2765786Y-2855364D01*
X2815769D01*
X2899076Y-2922009D02*
X2865753D01*
X2849092Y-2905348D01*
Y-2872025D01*
X2865753Y-2855364D01*
X2899076D01*
X2915737Y-2872025D01*
Y-2888687D01*
X2849092D01*
X2949060Y-2855364D02*
Y-2922009D01*
Y-2888687D01*
X2965721Y-2872025D01*
X2982382Y-2855364D01*
X2999044D01*
D42*
X2775565Y-167145D02*
D03*
Y-294145D02*
D03*
Y-421145D02*
D03*
Y-548145D02*
D03*
Y-675145D02*
D03*
D48*
X928162Y-155602D02*
D03*
D97*
X-392998Y-504090D02*
D03*
D98*
X384900Y-365900D02*
D03*
Y-263900D02*
D03*
X463629Y-108614D02*
D03*
Y-210614D02*
D03*
D99*
X850631Y-305609D02*
D03*
X785630D02*
D03*
X915631D02*
D03*
X980631D02*
D03*
X720631D02*
D03*
D100*
X150919Y-155054D02*
D03*
X-289371Y-931114D02*
D03*
D101*
X110919Y-137554D02*
D03*
Y-172554D02*
D03*
X-249371Y-913614D02*
D03*
Y-948614D02*
D03*
D102*
X226289Y-120554D02*
D03*
D103*
X261289D02*
D03*
D104*
X243789Y-185554D02*
D03*
D105*
X1350631Y-918610D02*
D03*
X2775627Y-1158614D02*
D03*
D106*
X-416871Y-1084615D02*
D03*
X-281871D02*
D03*
D107*
X-219371Y50386D02*
D03*
D108*
X-429371D02*
D03*
D109*
X1070789Y-133644D02*
D03*
Y-233644D02*
D03*
X625629Y-133614D02*
D03*
Y-233614D02*
D03*
D110*
X-140371Y-258614D02*
D03*
X-38371D02*
D03*
X646629Y-323614D02*
D03*
X544629D02*
D03*
D111*
X910629Y-23614D02*
D03*
Y16386D02*
D03*
X870629D02*
D03*
X830629D02*
D03*
X950629Y-63614D02*
D03*
X910629D02*
D03*
X870629D02*
D03*
X830629D02*
D03*
X790629D02*
D03*
Y-23614D02*
D03*
Y16386D02*
D03*
X750629Y56386D02*
D03*
Y16386D02*
D03*
Y-23614D02*
D03*
Y-103614D02*
D03*
X790629Y56386D02*
D03*
Y-103614D02*
D03*
X830629Y56386D02*
D03*
Y-23614D02*
D03*
Y-103614D02*
D03*
X870629Y56386D02*
D03*
Y-23614D02*
D03*
Y-103614D02*
D03*
X910629Y56386D02*
D03*
Y-103614D02*
D03*
X950629Y56386D02*
D03*
Y16386D02*
D03*
Y-23614D02*
D03*
Y-103614D02*
D03*
X750629Y-63614D02*
D03*
D112*
X1589609Y-37694D02*
D03*
Y-103734D02*
D03*
Y-169774D02*
D03*
Y-235814D02*
D03*
Y-301854D02*
D03*
Y-367894D02*
D03*
Y-433934D02*
D03*
Y-499974D02*
D03*
Y-566014D02*
D03*
X2689429D02*
D03*
Y-499974D02*
D03*
Y-433934D02*
D03*
Y-367894D02*
D03*
Y-301854D02*
D03*
Y-235814D02*
D03*
Y-169774D02*
D03*
Y-103734D02*
D03*
Y-37694D02*
D03*
X2567509Y51206D02*
D03*
X2501469D02*
D03*
X2435429D02*
D03*
X2369389D02*
D03*
X2303349D02*
D03*
X2237309D02*
D03*
X2171269D02*
D03*
X2105229D02*
D03*
X2039189D02*
D03*
X1973149D02*
D03*
X1907109D02*
D03*
X1841069D02*
D03*
X1775029D02*
D03*
X1708989D02*
D03*
D113*
X1626439Y-37694D02*
D03*
X2652599D02*
D03*
D114*
X1628979Y-103734D02*
D03*
Y-169774D02*
D03*
Y-235814D02*
D03*
Y-301854D02*
D03*
Y-367894D02*
D03*
Y-433934D02*
D03*
Y-499974D02*
D03*
Y-566014D02*
D03*
X2650059D02*
D03*
Y-499974D02*
D03*
Y-433934D02*
D03*
Y-367894D02*
D03*
Y-301854D02*
D03*
Y-235814D02*
D03*
Y-169774D02*
D03*
Y-103734D02*
D03*
D115*
X2567509Y11836D02*
D03*
X2501469D02*
D03*
X2435429D02*
D03*
X2369389D02*
D03*
X2303349D02*
D03*
X2237309D02*
D03*
X2171269D02*
D03*
X2105229D02*
D03*
X2039189D02*
D03*
X1973149D02*
D03*
X1907109D02*
D03*
X1841069D02*
D03*
X1775029D02*
D03*
X1708989D02*
D03*
D116*
X1082629Y16386D02*
D03*
X1172629D02*
D03*
X1216629Y120386D02*
D03*
X1126629D02*
D03*
X2567459Y128876D02*
D03*
X2657459D02*
D03*
X1501969Y-18684D02*
D03*
X1411968D02*
D03*
X-354371Y-928614D02*
D03*
X-444371D02*
D03*
D117*
X42370Y-923614D02*
D03*
Y-1013614D02*
D03*
X-63501D02*
D03*
Y-923614D02*
D03*
X2765009Y52426D02*
D03*
Y-37574D02*
D03*
X55629Y-489954D02*
D03*
Y-399954D02*
D03*
X240429Y-347234D02*
D03*
Y-257234D02*
D03*
X-169371Y-923614D02*
D03*
Y-1013614D02*
D03*
D118*
X149919Y-262514D02*
D03*
Y-402214D02*
D03*
D119*
X909629Y151386D02*
D03*
X831629D02*
D03*
X2249039Y123876D02*
D03*
X2171039D02*
D03*
D120*
X55629Y-253584D02*
D03*
Y-331584D02*
D03*
D121*
X-94566Y-347114D02*
D03*
Y-672114D02*
D03*
D122*
X138129Y26386D02*
D03*
X463129D02*
D03*
D123*
X675289Y141666D02*
D03*
X555289D02*
D03*
D124*
X1344631Y-663610D02*
D03*
X356630D02*
D03*
D125*
X0Y0D02*
D03*
D126*
X1733617Y-660702D02*
D03*
X220629Y-773614D02*
D03*
X-429371Y-108614D02*
D03*
X217833Y-520818D02*
D03*
X220629Y-898614D02*
D03*
Y-648614D02*
D03*
X39884Y-830861D02*
D03*
X55657Y-173150D02*
D03*
%TF.MD5,9ea5afecc4fa35ec77480586aa7a30ac*%
M02*
