G04 Layer_Color=32896*
%FSLAX45Y45*%
%MOMM*%
%TF.FileFunction,Legend,Bot*%
%TF.Part,Single*%
%TFFileComment,The blind Vias under BGA and Other Pads are Via-In-Pad (VIP)*%
G01*
G75*
%TA.AperFunction,NonConductor*%
%ADD38C,0.10000*%
%ADD39C,0.15000*%
%ADD89C,0.25000*%
%ADD90C,0.20000*%
%ADD91C,0.17780*%
G36*
X2709749Y-1068934D02*
X2579193D01*
X2709749Y-938378D01*
Y-1068934D01*
D02*
G37*
D38*
X95919Y-207554D02*
G03*
X95919Y-207554I-5000J0D01*
G01*
X198789Y-100554D02*
G03*
X198789Y-100554I-5000J0D01*
G01*
X-484371Y-1014615D02*
G03*
X-484371Y-1014615I-5000J0D01*
G01*
X-224371Y-878614D02*
G03*
X-224371Y-878614I-5000J0D01*
G01*
X995629Y-146614D02*
G03*
X995629Y-146614I-5000J0D01*
G01*
X-452495Y-341000D02*
X-333295D01*
X-452895Y-426500D02*
X-333595D01*
X-452795Y-508700D02*
X-333000D01*
X-452395Y-594482D02*
X-333495D01*
X-451795Y-684000D02*
X-332200D01*
X-452795Y-758800D02*
Y-248782D01*
X-333100D01*
Y-758800D02*
Y-248782D01*
X-452795Y-758800D02*
X-333100D01*
D39*
X1015789Y-283644D02*
X1125789D01*
X1015789D02*
Y-83644D01*
X1125789D01*
Y-283644D02*
Y-83644D01*
X570629Y-283614D02*
X680629D01*
X570629D02*
Y-83614D01*
X680629D01*
Y-283614D02*
Y-83614D01*
X-263932Y-865300D02*
X-363900D01*
X-313916D01*
Y-798655D01*
X-263932D01*
X-363900D01*
X-263106Y-240845D02*
X-279768Y-224184D01*
Y-190861D01*
X-263106Y-174200D01*
X-196461D01*
X-179800Y-190861D01*
Y-224184D01*
X-196461Y-240845D01*
X-229784D01*
Y-207523D01*
X-475268Y-240845D02*
Y-174200D01*
X-425284D01*
Y-207523D01*
Y-174200D01*
X-375300D01*
X1818655Y89432D02*
X1885300D01*
Y189400D01*
X1818655D01*
X1885300Y139416D02*
X1851977D01*
X1685364Y89432D02*
Y189400D01*
X1635381D01*
X1618719Y172739D01*
Y106094D01*
X1635381Y89432D01*
X1685364D01*
X1439893Y-337745D02*
X1423232Y-321084D01*
Y-287761D01*
X1439893Y-271100D01*
X1506539D01*
X1523200Y-287761D01*
Y-321084D01*
X1506539Y-337745D01*
X-28550Y-1162230D02*
Y-1062262D01*
X-95195Y-1162230D01*
Y-1062262D01*
X1049092Y-2808711D02*
Y-2908678D01*
X999108D01*
X982447Y-2892017D01*
Y-2875356D01*
X999108Y-2858695D01*
X1049092D01*
X999108D01*
X982447Y-2842033D01*
Y-2825372D01*
X999108Y-2808711D01*
X1049092D01*
X932463Y-2908678D02*
X899140D01*
X882479Y-2892017D01*
Y-2858695D01*
X899140Y-2842033D01*
X932463D01*
X949124Y-2858695D01*
Y-2892017D01*
X932463Y-2908678D01*
X832495Y-2825372D02*
Y-2842033D01*
X849157D01*
X815834D01*
X832495D01*
Y-2892017D01*
X815834Y-2908678D01*
X749189Y-2825372D02*
Y-2842033D01*
X765850D01*
X732528D01*
X749189D01*
Y-2892017D01*
X732528Y-2908678D01*
X665882D02*
X632560D01*
X615899Y-2892017D01*
Y-2858695D01*
X632560Y-2842033D01*
X665882D01*
X682544Y-2858695D01*
Y-2892017D01*
X665882Y-2908678D01*
X582576D02*
Y-2842033D01*
X565915D01*
X549253Y-2858695D01*
Y-2908678D01*
Y-2858695D01*
X532592Y-2842033D01*
X515931Y-2858695D01*
Y-2908678D01*
X332656Y-2808711D02*
X365979D01*
X382640Y-2825372D01*
Y-2892017D01*
X365979Y-2908678D01*
X332656D01*
X315995Y-2892017D01*
Y-2825372D01*
X332656Y-2808711D01*
X282673Y-2842033D02*
X249350Y-2908678D01*
X216028Y-2842033D01*
X132721Y-2908678D02*
X166043D01*
X182705Y-2892017D01*
Y-2858695D01*
X166043Y-2842033D01*
X132721D01*
X116060Y-2858695D01*
Y-2875356D01*
X182705D01*
X82737Y-2842033D02*
Y-2908678D01*
Y-2875356D01*
X66076Y-2858695D01*
X49414Y-2842033D01*
X32753D01*
X-17231Y-2908678D02*
X-50553D01*
X-33892D01*
Y-2808711D01*
X-17231D01*
X-117199Y-2842033D02*
X-150521D01*
X-167182Y-2858695D01*
Y-2908678D01*
X-117199D01*
X-100537Y-2892017D01*
X-117199Y-2875356D01*
X-167182D01*
X-200505Y-2842033D02*
Y-2892017D01*
X-217166Y-2908678D01*
X-267150D01*
Y-2925340D01*
X-250489Y-2942001D01*
X-233828D01*
X-267150Y-2908678D02*
Y-2842033D01*
X34100Y-815600D02*
Y-715632D01*
X-15884D01*
X-32545Y-732294D01*
Y-765616D01*
X-15884Y-782278D01*
X34100D01*
X777D02*
X-32545Y-815600D01*
X-132513Y-732294D02*
X-115852Y-715632D01*
X-82529D01*
X-65868Y-732294D01*
Y-748955D01*
X-82529Y-765616D01*
X-115852D01*
X-132513Y-782278D01*
Y-798939D01*
X-115852Y-815600D01*
X-82529D01*
X-65868Y-798939D01*
X-165836Y-715632D02*
X-232481D01*
X-199158D01*
Y-815600D01*
X-16000Y188268D02*
Y88300D01*
X-65984D01*
X-82645Y104961D01*
Y121623D01*
X-65984Y138284D01*
X-16000D01*
X-65984D01*
X-82645Y154945D01*
Y171606D01*
X-65984Y188268D01*
X-16000D01*
X409100Y-424700D02*
X342455D01*
X309132Y-458022D01*
X342455Y-491345D01*
X409100D01*
X359116D01*
Y-424700D01*
D89*
X-121871Y165386D02*
G03*
X-121871Y165386I-12500J0D01*
G01*
D90*
X-449371Y-1169615D02*
Y-1154615D01*
X-249371Y-1169615D02*
Y-1154615D01*
X-449371Y-1014615D02*
Y-999615D01*
X-249371Y-1014615D02*
Y-999615D01*
X-449371Y-1169615D02*
X-249371D01*
X-449371Y-999615D02*
X-249371D01*
X-484371Y150386D02*
X-169371D01*
X-484371Y-49614D02*
X-169371D01*
X-194566Y-582114D02*
Y-437114D01*
X5434Y-582114D02*
Y-437114D01*
X228129Y-73614D02*
X373129D01*
X228129Y126386D02*
X373129D01*
D91*
X1566749Y13106D02*
Y71526D01*
X1658189D01*
X2618309D02*
X2709749D01*
Y13106D02*
Y71526D01*
Y-1068934D02*
Y-616814D01*
X1569289Y-1068934D02*
Y-616814D01*
Y-1068934D02*
X2709749D01*
%TF.MD5,120988796a5920a7b5e843812e3bd191*%
M02*
