G04 Layer_Color=2752767*
%FSLAX45Y45*%
%MOMM*%
%TF.FileFunction,Drawing*%
%TF.Part,Single*%
%TFFileComment,The blind Vias under BGA and Other Pads are Via-In-Pad (VIP)*%
G01*
G75*
%TA.AperFunction,NonConductor*%
%ADD39C,0.15000*%
%ADD155C,0.12700*%
D39*
X3599430Y-2422042D02*
Y-2522009D01*
X3649414D01*
X3666075Y-2505348D01*
Y-2438703D01*
X3649414Y-2422042D01*
X3599430D01*
X3699398Y-2455364D02*
Y-2522009D01*
Y-2488687D01*
X3716060Y-2472026D01*
X3732721Y-2455364D01*
X3749382D01*
X3799366Y-2522009D02*
X3832689D01*
X3816027D01*
Y-2455364D01*
X3799366D01*
X3882672Y-2522009D02*
X3915995D01*
X3899334D01*
Y-2422042D01*
X3882672D01*
X3965979Y-2522009D02*
X3999301D01*
X3982640D01*
Y-2422042D01*
X3965979D01*
X4149253D02*
Y-2522009D01*
X4199237D01*
X4215898Y-2505348D01*
Y-2438703D01*
X4199237Y-2422042D01*
X4149253D01*
X4249221Y-2455364D02*
Y-2522009D01*
Y-2488687D01*
X4265882Y-2472026D01*
X4282543Y-2455364D01*
X4299205D01*
X4365850D02*
X4399173D01*
X4415834Y-2472026D01*
Y-2522009D01*
X4365850D01*
X4349189Y-2505348D01*
X4365850Y-2488687D01*
X4415834D01*
X4449156Y-2455364D02*
Y-2505348D01*
X4465818Y-2522009D01*
X4482479Y-2505348D01*
X4499140Y-2522009D01*
X4515801Y-2505348D01*
Y-2455364D01*
X4549124Y-2522009D02*
X4582447D01*
X4565786D01*
Y-2455364D01*
X4549124D01*
X4632431Y-2522009D02*
Y-2455364D01*
X4682415D01*
X4699076Y-2472026D01*
Y-2522009D01*
X4765721Y-2555332D02*
X4782382D01*
X4799043Y-2538671D01*
Y-2455364D01*
X4749060D01*
X4732398Y-2472026D01*
Y-2505348D01*
X4749060Y-2522009D01*
X4799043D01*
D155*
X1430176Y-95582D02*
Y-120982D01*
X1480976D01*
Y-95582D01*
X1506376D01*
Y-44782D01*
X1480976D01*
Y-19382D01*
X1430176D01*
Y-44782D01*
X1404776D01*
Y-95582D01*
X1430176D01*
X1676407Y81698D02*
Y56298D01*
X1727207D01*
Y81698D01*
X1752607D01*
Y132498D01*
X1727207D01*
Y157898D01*
X1676407D01*
Y132498D01*
X1651007D01*
Y81698D01*
X1676407D01*
X1521568Y106074D02*
Y80674D01*
X1572368D01*
Y106074D01*
X1597768D01*
Y156874D01*
X1572368D01*
Y182274D01*
X1521568D01*
Y156874D01*
X1496168D01*
Y106074D01*
X1521568D01*
X1622055Y49059D02*
Y23659D01*
X1672855D01*
Y49059D01*
X1698255D01*
Y99859D01*
X1672855D01*
Y125259D01*
X1622055D01*
Y99859D01*
X1596655D01*
Y49059D01*
X1622055D01*
X1848600Y-435400D02*
Y-460800D01*
X1899400D01*
Y-435400D01*
X1924800D01*
Y-384600D01*
X1899400D01*
Y-359200D01*
X1848600D01*
Y-384600D01*
X1823200D01*
Y-435400D01*
X1848600D01*
X1823145Y68737D02*
Y43337D01*
X1873945D01*
Y68737D01*
X1899345D01*
Y119537D01*
X1873945D01*
Y144937D01*
X1823145D01*
Y119537D01*
X1797745D01*
Y68737D01*
X1823145D01*
X1766850Y-324131D02*
Y-349531D01*
X1817650D01*
Y-324131D01*
X1843050D01*
Y-273331D01*
X1817650D01*
Y-247931D01*
X1766850D01*
Y-273331D01*
X1741450D01*
Y-324131D01*
X1766850D01*
X1596836Y132869D02*
Y107469D01*
X1647636D01*
Y132869D01*
X1673036D01*
Y183669D01*
X1647636D01*
Y209069D01*
X1596836D01*
Y183669D01*
X1571436D01*
Y132869D01*
X1596836D01*
X1636835Y116559D02*
Y91159D01*
X1687635D01*
Y116559D01*
X1713035D01*
Y167359D01*
X1687635D01*
Y192759D01*
X1636835D01*
Y167359D01*
X1611435D01*
Y116559D01*
X1636835D01*
X2527757Y-255342D02*
Y-280742D01*
X2578557D01*
Y-255342D01*
X2603957D01*
Y-204542D01*
X2578557D01*
Y-179142D01*
X2527757D01*
Y-204542D01*
X2502357D01*
Y-255342D01*
X2527757D01*
X1872340Y-885400D02*
Y-910800D01*
X1923140D01*
Y-885400D01*
X1948540D01*
Y-834600D01*
X1923140D01*
Y-809200D01*
X1872340D01*
Y-834600D01*
X1846940D01*
Y-885400D01*
X1872340D01*
X1952000Y-669260D02*
Y-694660D01*
X2002800D01*
Y-669260D01*
X2028200D01*
Y-618460D01*
X2002800D01*
Y-593060D01*
X1952000D01*
Y-618460D01*
X1926600D01*
Y-669260D01*
X1952000D01*
X1862460Y-835400D02*
Y-860800D01*
X1913260D01*
Y-835400D01*
X1938660D01*
Y-784600D01*
X1913260D01*
Y-759200D01*
X1862460D01*
Y-784600D01*
X1837060D01*
Y-835400D01*
X1862460D01*
X1952000Y-583500D02*
Y-608900D01*
X2002800D01*
Y-583500D01*
X2028200D01*
Y-532700D01*
X2002800D01*
Y-507300D01*
X1952000D01*
Y-532700D01*
X1926600D01*
Y-583500D01*
X1952000D01*
X1830370Y-785400D02*
Y-810800D01*
X1881170D01*
Y-785400D01*
X1906570D01*
Y-734600D01*
X1881170D01*
Y-709200D01*
X1830370D01*
Y-734600D01*
X1804970D01*
Y-785400D01*
X1830370D01*
X1965339Y-532300D02*
Y-557700D01*
X2016139D01*
Y-532300D01*
X2041539D01*
Y-481500D01*
X2016139D01*
Y-456100D01*
X1965339D01*
Y-481500D01*
X1939939D01*
Y-532300D01*
X1965339D01*
X110229Y-234016D02*
Y-259416D01*
X161029D01*
Y-234016D01*
X186429D01*
Y-183216D01*
X161029D01*
Y-157816D01*
X110229D01*
Y-183216D01*
X84829D01*
Y-234016D01*
X110229D01*
%TF.MD5,6c39c5e886393f2358ee9abdc9bd3b83*%
M02*
