G04 Layer_Physical_Order=1*
G04 Layer_Color=255*
%FSLAX45Y45*%
%MOMM*%
%TF.FileFunction,Copper,L1,Top,Signal*%
%TF.Part,Single*%
%TFFileComment,The blind Vias under BGA and Other Pads are Via-In-Pad (VIP)*%
G01*
G75*
%TA.AperFunction,SMDPad,CuDef*%
%ADD10R,0.80000X0.70000*%
%ADD11R,0.85000X0.60000*%
%ADD12R,1.00000X0.30000*%
%ADD13R,0.70000X0.30000*%
%ADD14R,1.00000X1.20000*%
%ADD15R,0.90000X0.50000*%
%ADD16C,1.00000*%
%ADD17R,3.76000X1.00000*%
%ADD18C,0.50800*%
%ADD19R,0.50000X0.60000*%
%ADD20R,1.37000X0.99000*%
G04:AMPARAMS|DCode=21|XSize=0.25mm|YSize=0.5mm|CornerRadius=0.0625mm|HoleSize=0mm|Usage=FLASHONLY|Rotation=0.000|XOffset=0mm|YOffset=0mm|HoleType=Round|Shape=RoundedRectangle|*
%AMROUNDEDRECTD21*
21,1,0.25000,0.37500,0,0,0.0*
21,1,0.12500,0.50000,0,0,0.0*
1,1,0.12500,0.06250,-0.18750*
1,1,0.12500,-0.06250,-0.18750*
1,1,0.12500,-0.06250,0.18750*
1,1,0.12500,0.06250,0.18750*
%
%ADD21ROUNDEDRECTD21*%
G04:AMPARAMS|DCode=22|XSize=0.16mm|YSize=0.25mm|CornerRadius=0.04mm|HoleSize=0mm|Usage=FLASHONLY|Rotation=90.000|XOffset=0mm|YOffset=0mm|HoleType=Round|Shape=RoundedRectangle|*
%AMROUNDEDRECTD22*
21,1,0.16000,0.17000,0,0,90.0*
21,1,0.08000,0.25000,0,0,90.0*
1,1,0.08000,0.08500,0.04000*
1,1,0.08000,0.08500,-0.04000*
1,1,0.08000,-0.08500,-0.04000*
1,1,0.08000,-0.08500,0.04000*
%
%ADD22ROUNDEDRECTD22*%
%ADD23R,0.25000X0.16000*%
%TA.AperFunction,BGAPad,CuDef*%
%ADD24C,0.25000*%
%TA.AperFunction,SMDPad,CuDef*%
%ADD25O,0.20000X0.85000*%
%ADD26O,0.20000X0.90000*%
%ADD27O,0.90000X0.18000*%
%ADD28R,0.40000X0.60000*%
%ADD29R,0.60000X0.40000*%
%TA.AperFunction,BGAPad,SMDef*%
%ADD30C,0.27000*%
%TA.AperFunction,SMDPad,CuDef*%
%ADD31R,0.76200X0.76200*%
%ADD32R,0.56000X0.52000*%
%ADD33R,0.52000X0.56000*%
%TA.AperFunction,Conductor*%
%ADD34C,0.12700*%
%ADD35C,0.25000*%
%ADD36C,0.20000*%
%ADD37C,0.15000*%
%TA.AperFunction,NonConductor*%
%ADD38C,0.10000*%
%ADD39C,0.15000*%
%TA.AperFunction,ComponentPad*%
%ADD40O,1.10000X2.40000*%
%TA.AperFunction,ViaPad*%
%ADD41C,1.50000*%
%TA.AperFunction,ComponentPad*%
%ADD42C,1.00000*%
%TA.AperFunction,ViaPad*%
%ADD43C,0.61000*%
%ADD44C,0.40100*%
%ADD45C,0.50000*%
%ADD46C,0.45100*%
%ADD47C,0.25000*%
%ADD48C,0.45000*%
G36*
X1079450Y141756D02*
X1078883Y140386D01*
Y70386D01*
X1082909Y60666D01*
X1085629Y59539D01*
Y23386D01*
X1046095Y23385D01*
X959095Y-63615D01*
X699629Y-63614D01*
X699629Y41385D01*
X943630Y41387D01*
X1004629Y102386D01*
Y154456D01*
X1070964D01*
X1079450Y141756D01*
D02*
G37*
G36*
X2476683Y142363D02*
X2476009Y88700D01*
X2388691Y88699D01*
X2362512Y62520D01*
X2358343Y60793D01*
X2356616Y56624D01*
X2348562Y48570D01*
X2348563Y20022D01*
X2344698Y17439D01*
X2303900Y-23359D01*
X2303349Y-23249D01*
X2290571Y-25791D01*
X2279738Y-33030D01*
X2276915Y-37255D01*
X2069230D01*
X2063900Y-26512D01*
Y43400D01*
X2181000D01*
X2216300Y78700D01*
X2317600D01*
X2351788Y112888D01*
X2351787Y142419D01*
X2360768Y151400D01*
X2467759D01*
X2476683Y142363D01*
D02*
G37*
G36*
X327912Y-335770D02*
Y-476425D01*
X328315Y-477397D01*
X328177Y-478093D01*
X328277Y-478600D01*
X328177Y-479107D01*
X328315Y-479803D01*
X327912Y-480775D01*
Y-537227D01*
X322488Y-539474D01*
X308346Y-550325D01*
X297495Y-564468D01*
X290673Y-580936D01*
X288346Y-598609D01*
Y-615504D01*
X276346Y-619144D01*
X265833Y-603410D01*
X250200Y-592964D01*
Y-579264D01*
X265833Y-568818D01*
X279691Y-548078D01*
X284557Y-523614D01*
X279691Y-499150D01*
X265833Y-478410D01*
X250200Y-467964D01*
Y-454264D01*
X265833Y-443818D01*
X279691Y-423078D01*
X284557Y-398614D01*
X279691Y-374150D01*
X276836Y-369876D01*
X315912Y-330799D01*
X327912Y-335770D01*
D02*
G37*
G36*
X25553Y171765D02*
X24838Y171287D01*
X17599Y160454D01*
X15057Y147676D01*
X17599Y134897D01*
X24838Y124065D01*
X35670Y116826D01*
X48449Y114284D01*
X49000Y114394D01*
X133373Y30020D01*
X134475Y29283D01*
X130835Y17283D01*
X115629D01*
X105718Y15312D01*
X100095Y11555D01*
X90678Y14150D01*
X87356Y16377D01*
X86699Y21373D01*
X85770Y22982D01*
Y24840D01*
X78212Y43084D01*
X76899Y44398D01*
X76418Y46192D01*
X64396Y61859D01*
X62788Y62788D01*
X61859Y64396D01*
X46192Y76418D01*
X44398Y76899D01*
X43084Y78212D01*
X24840Y85770D01*
X22982D01*
X21373Y86699D01*
X1794Y89276D01*
X877Y89031D01*
X0Y89394D01*
X-877Y89031D01*
X-1794Y89276D01*
X-21373Y86699D01*
X-22982Y85770D01*
X-24840D01*
X-43084Y78212D01*
X-44398Y76899D01*
X-46192Y76418D01*
X-61859Y64396D01*
X-62788Y62788D01*
X-64396Y61859D01*
X-76418Y46192D01*
X-76899Y44398D01*
X-78212Y43084D01*
X-85770Y24840D01*
Y22982D01*
X-86699Y21373D01*
X-89276Y1794D01*
X-88795Y0D01*
X-89276Y-1794D01*
X-86699Y-21373D01*
X-85770Y-22982D01*
Y-24840D01*
X-78212Y-43084D01*
X-76899Y-44398D01*
X-76418Y-46192D01*
X-64396Y-61859D01*
X-62788Y-62788D01*
X-61859Y-64396D01*
X-46192Y-76418D01*
X-44398Y-76899D01*
X-43084Y-78212D01*
X-24840Y-85770D01*
X-22982D01*
X-21373Y-86699D01*
X-1794Y-89276D01*
X-877Y-89031D01*
X0Y-89394D01*
X877Y-89031D01*
X1794Y-89276D01*
X21373Y-86699D01*
X22982Y-85770D01*
X24840D01*
X43084Y-78212D01*
X44398Y-76899D01*
X46192Y-76418D01*
X61859Y-64396D01*
X62788Y-62788D01*
X64396Y-61859D01*
X76418Y-46192D01*
X88318Y-46198D01*
X89731Y-46633D01*
Y-68614D01*
X91702Y-78525D01*
X93479Y-81184D01*
X87317Y-85302D01*
X81703Y-93703D01*
X79731Y-103614D01*
Y-110915D01*
X135629D01*
Y-136315D01*
X78254D01*
X68652Y-142168D01*
X67731Y-142160D01*
X55657Y-139758D01*
X42879Y-142300D01*
X32046Y-149538D01*
X24807Y-160371D01*
X22265Y-173150D01*
X24807Y-185928D01*
X32046Y-196761D01*
X42879Y-204000D01*
X55657Y-206541D01*
X68435Y-204000D01*
X79268Y-196761D01*
X79882Y-195842D01*
X91882Y-199482D01*
Y-233614D01*
X95909Y-243334D01*
X105629Y-247360D01*
X165629D01*
X175349Y-243335D01*
X185909Y-243334D01*
X195629Y-247360D01*
X255629D01*
X265349Y-243334D01*
X269191Y-234059D01*
X291717D01*
X300574Y-232297D01*
X308083Y-227280D01*
X328920Y-206443D01*
X336895Y-211771D01*
X350629Y-214504D01*
X364363Y-211771D01*
X376007Y-203992D01*
X383786Y-192348D01*
X386518Y-178614D01*
X396762Y-169245D01*
X412417D01*
X416719Y-171027D01*
X463528D01*
X473578Y-180430D01*
X473731Y-182113D01*
Y-197874D01*
X519629D01*
Y-210574D01*
X532329D01*
Y-266472D01*
X539629D01*
X549539Y-264500D01*
X557941Y-258886D01*
X563555Y-250485D01*
X564796Y-244247D01*
X577152Y-243639D01*
X579909Y-250294D01*
X589629Y-254321D01*
X629629D01*
X639349Y-250294D01*
X643375Y-240574D01*
Y-224727D01*
X684959D01*
X687758Y-228915D01*
X698590Y-236154D01*
X711369Y-238696D01*
X724147Y-236154D01*
X734980Y-228915D01*
X747708Y-231466D01*
X754942Y-236300D01*
X767720Y-238842D01*
X780499Y-236300D01*
X791331Y-229061D01*
X794130Y-224873D01*
X970180D01*
X977613Y-223395D01*
X983914Y-219184D01*
X994111Y-208987D01*
X1066217D01*
X1066731Y-209614D01*
Y-231914D01*
X1132628D01*
X1198526D01*
Y-209614D01*
X1199041Y-208987D01*
X1274279D01*
X1281712Y-207509D01*
X1288014Y-203298D01*
X1394157Y-97155D01*
X1398367Y-90854D01*
X1399846Y-83421D01*
Y-61633D01*
X1422866D01*
X1429883Y-70182D01*
X1431838Y-80015D01*
X1437408Y-88350D01*
X1445744Y-93920D01*
X1455576Y-95876D01*
X1465409Y-93920D01*
X1473744Y-88350D01*
X1479314Y-80015D01*
X1481270Y-70182D01*
X1492518Y-61633D01*
X1517449D01*
X1539214Y-83398D01*
X1540543Y-94852D01*
X1539544Y-99399D01*
X1535074Y-106089D01*
X1533103Y-116000D01*
Y-118302D01*
X1608999D01*
X1684898D01*
Y-116000D01*
X1682926Y-106089D01*
X1681071Y-103312D01*
X1687842Y-90612D01*
X1770448D01*
X1774300Y-103312D01*
X1767876Y-107605D01*
X1760637Y-118438D01*
X1758096Y-131216D01*
X1758986Y-135691D01*
X1631977Y-262700D01*
X1286265D01*
X1278832Y-264178D01*
X1272531Y-268389D01*
D01*
X1272531D01*
X1261678Y-279241D01*
X1198526D01*
Y-257314D01*
X1132628D01*
X1066731D01*
Y-279241D01*
X320580D01*
X320579Y-279241D01*
X313146Y-280720D01*
X306845Y-284930D01*
X249367Y-342407D01*
X245093Y-339552D01*
X220629Y-334686D01*
X196165Y-339552D01*
X175425Y-353410D01*
X161567Y-374150D01*
X156701Y-398614D01*
X161567Y-423078D01*
X175425Y-443818D01*
X191058Y-454264D01*
Y-467964D01*
X175425Y-478410D01*
X161567Y-499150D01*
X156701Y-523614D01*
X161567Y-548078D01*
X175425Y-568818D01*
X191058Y-579264D01*
Y-592964D01*
X175425Y-603410D01*
X161567Y-624150D01*
X156701Y-648614D01*
X161567Y-673078D01*
X175425Y-693818D01*
X191058Y-704264D01*
Y-717964D01*
X175425Y-728410D01*
X161567Y-749150D01*
X156701Y-773614D01*
X161567Y-798078D01*
X175425Y-818818D01*
X191058Y-829264D01*
Y-842964D01*
X175425Y-853410D01*
X161567Y-874150D01*
X156701Y-898614D01*
X161567Y-923078D01*
X175425Y-943818D01*
X196165Y-957676D01*
X220629Y-962542D01*
X245093Y-957676D01*
X265833Y-943818D01*
X279691Y-923078D01*
X284557Y-898614D01*
X279691Y-874150D01*
X265833Y-853410D01*
X250200Y-842964D01*
Y-829264D01*
X265833Y-818818D01*
X279691Y-798078D01*
X284557Y-773614D01*
X280448Y-752955D01*
X291987Y-749455D01*
X297495Y-762752D01*
X308346Y-776894D01*
X322488Y-787745D01*
X327912Y-789992D01*
Y-794654D01*
X331939Y-804375D01*
X341659Y-808401D01*
X423764D01*
Y-959089D01*
X423068Y-965265D01*
X421318Y-970267D01*
X418500Y-974753D01*
X414753Y-978499D01*
X410266Y-981318D01*
X405264Y-983069D01*
X399088Y-983765D01*
X240000D01*
X239110Y-984134D01*
X238184Y-983867D01*
X229283Y-984869D01*
X227626Y-985785D01*
X225735Y-985678D01*
X217282Y-988637D01*
X215872Y-989897D01*
X214007Y-990214D01*
X210866Y-992187D01*
X199038Y-986552D01*
X198866Y-986281D01*
Y-980460D01*
X194840Y-970740D01*
X185120Y-966714D01*
X88842D01*
X59307Y-937178D01*
Y-857271D01*
X63495Y-854473D01*
X70733Y-843640D01*
X73275Y-830861D01*
X70733Y-818083D01*
X63495Y-807250D01*
X52662Y-800012D01*
X39884Y-797470D01*
X27105Y-800012D01*
X16272Y-807250D01*
X9034Y-818083D01*
X8734Y-819588D01*
X-2102Y-826780D01*
X-14880Y-824239D01*
X-27659Y-826780D01*
X-38491Y-834019D01*
X-45730Y-844852D01*
X-48272Y-857630D01*
X-45730Y-870409D01*
X-38491Y-881242D01*
X-34303Y-884040D01*
Y-956714D01*
X-59880D01*
X-69600Y-960740D01*
X-73626Y-970460D01*
Y-1020460D01*
X-69600Y-1030180D01*
X-59880Y-1034206D01*
X-19213D01*
X-17236Y-1036778D01*
X-13897Y-1046206D01*
X-19318Y-1054319D01*
X-21860Y-1067098D01*
X-19318Y-1079876D01*
X-12080Y-1090709D01*
X-1247Y-1097948D01*
X11532Y-1100489D01*
X24310Y-1097948D01*
X35143Y-1090709D01*
X42381Y-1079876D01*
X44923Y-1067098D01*
X42381Y-1054319D01*
X35995Y-1044762D01*
X35673Y-1041145D01*
X37981Y-1030950D01*
X39840Y-1030180D01*
X43866Y-1020460D01*
Y-992354D01*
X54953Y-987762D01*
X71373Y-1004182D01*
Y-1100460D01*
X75400Y-1110180D01*
X85120Y-1114206D01*
X183765D01*
Y-1179088D01*
X183069Y-1185265D01*
X181319Y-1190265D01*
X178499Y-1194753D01*
X174752Y-1198500D01*
X170266Y-1201319D01*
X165264Y-1203069D01*
X159088Y-1203766D01*
X-425650D01*
X-483766Y-1170211D01*
X-483765Y150212D01*
X-425650Y183765D01*
X-378977D01*
X-370597Y171765D01*
X-371269Y168386D01*
Y153086D01*
X-319371D01*
Y127686D01*
X-371269D01*
Y112386D01*
X-369297Y102475D01*
X-363684Y94073D01*
X-358911Y90885D01*
X-359118Y90386D01*
Y34386D01*
X-355091Y24665D01*
X-345371Y20639D01*
X-293371D01*
X-283651Y24665D01*
X-282451Y27562D01*
X-269463D01*
X-269091Y26666D01*
X-259371Y22640D01*
X-238794D01*
Y-82204D01*
X-242982Y-85003D01*
X-250221Y-95836D01*
X-252763Y-108614D01*
X-250221Y-121393D01*
X-242982Y-132226D01*
X-232150Y-139464D01*
X-219371Y-142006D01*
X-206593Y-139464D01*
X-195760Y-132226D01*
X-188521Y-121393D01*
X-185980Y-108614D01*
X-188521Y-95836D01*
X-195760Y-85003D01*
X-199948Y-82204D01*
Y22640D01*
X-199371D01*
X-189651Y26666D01*
X-185625Y36386D01*
Y76386D01*
X-189651Y86106D01*
X-196306Y88863D01*
X-195699Y101219D01*
X-189461Y102460D01*
X-181059Y108074D01*
X-175445Y116476D01*
X-173474Y126386D01*
Y133685D01*
X-229371D01*
Y159085D01*
X-173474D01*
Y166386D01*
X-174543Y171765D01*
X-167101Y183765D01*
X21912D01*
X25553Y171765D01*
D02*
G37*
G36*
X1824787Y-225729D02*
X1828125Y-238416D01*
X1827037Y-240045D01*
X1826051Y-245000D01*
Y-275000D01*
X1826069Y-275092D01*
X1824602Y-278932D01*
X1814370Y-281269D01*
X1810418Y-280563D01*
X1802083Y-274993D01*
X1792250Y-273038D01*
X1782417Y-274993D01*
X1774082Y-280563D01*
X1768512Y-288899D01*
X1766556Y-298731D01*
X1768512Y-308564D01*
X1772827Y-315021D01*
Y-487562D01*
X1760127Y-494117D01*
X1749473Y-491998D01*
X1745135Y-492861D01*
X1731308Y-487210D01*
X1729166Y-484295D01*
X1723802Y-476268D01*
X1720459Y-474034D01*
Y-458760D01*
X1723921Y-456446D01*
X1731160Y-445613D01*
X1733701Y-432835D01*
X1731160Y-420056D01*
X1723921Y-409223D01*
X1720905Y-407208D01*
Y-313654D01*
X1813352Y-221208D01*
X1824787Y-225729D01*
D02*
G37*
G36*
X1790553Y-167792D02*
X1795152Y-181154D01*
X1685746Y-290559D01*
X1681282Y-297241D01*
X1679714Y-305123D01*
Y-407208D01*
X1676698Y-409223D01*
X1669460Y-420056D01*
X1666918Y-432835D01*
X1669460Y-445613D01*
X1676698Y-456446D01*
X1680042Y-458680D01*
Y-473955D01*
X1676580Y-476268D01*
X1669341Y-487101D01*
X1666800Y-499880D01*
X1669341Y-512658D01*
X1676580Y-523491D01*
X1687413Y-530729D01*
X1700191Y-533271D01*
X1704529Y-532408D01*
X1718356Y-538059D01*
X1718558Y-538334D01*
X1713007Y-552622D01*
X1710005Y-554628D01*
X1702767Y-565461D01*
X1700225Y-578239D01*
X1702767Y-591018D01*
X1710005Y-601850D01*
X1720838Y-609089D01*
X1733617Y-611631D01*
X1746395Y-609089D01*
X1757228Y-601850D01*
X1764466Y-591018D01*
X1767008Y-578239D01*
X1765967Y-573004D01*
X1777930Y-568048D01*
X1778516Y-568925D01*
X1826051Y-616461D01*
Y-625000D01*
X1826763Y-628578D01*
X1826135Y-631290D01*
X1819384Y-641279D01*
X1760026D01*
X1757228Y-637090D01*
X1746395Y-629852D01*
X1733617Y-627310D01*
X1720838Y-629852D01*
X1710005Y-637090D01*
X1702767Y-647923D01*
X1700225Y-660701D01*
X1692775Y-669779D01*
X1412915D01*
Y-598609D01*
X1410588Y-580936D01*
X1403766Y-564468D01*
X1392915Y-550325D01*
X1378773Y-539474D01*
X1375718Y-538208D01*
Y-326430D01*
X1374732Y-321475D01*
X1371925Y-317274D01*
X1367724Y-314467D01*
X1366615Y-314246D01*
X1367866Y-301546D01*
X1498451D01*
X1505239Y-314246D01*
X1502879Y-317778D01*
X1500338Y-330556D01*
X1502879Y-343335D01*
X1510118Y-354167D01*
X1520951Y-361406D01*
X1533729Y-363948D01*
X1546508Y-361406D01*
X1557341Y-354167D01*
X1564579Y-343335D01*
X1567121Y-330556D01*
X1564579Y-317778D01*
X1562219Y-314246D01*
X1569008Y-301546D01*
X1640022D01*
X1647455Y-300067D01*
X1653756Y-295857D01*
X1782780Y-166833D01*
X1790553Y-167792D01*
D02*
G37*
G36*
X2813765Y-102363D02*
X2801065Y-109842D01*
X2791933Y-106059D01*
X2775565Y-103904D01*
X2759197Y-106059D01*
X2743944Y-112377D01*
X2730847Y-122427D01*
X2720796Y-135524D01*
X2714479Y-150777D01*
X2712324Y-167145D01*
X2714479Y-183513D01*
X2720796Y-198765D01*
X2730847Y-211863D01*
X2743944Y-221913D01*
X2748431Y-223772D01*
Y-237518D01*
X2743944Y-239377D01*
X2730847Y-249427D01*
X2720796Y-262524D01*
X2714479Y-277777D01*
X2712324Y-294145D01*
X2714479Y-310513D01*
X2720796Y-325765D01*
X2730847Y-338863D01*
X2743944Y-348913D01*
X2748431Y-350772D01*
Y-364518D01*
X2743944Y-366377D01*
X2730847Y-376427D01*
X2720796Y-389524D01*
X2714479Y-404777D01*
X2712324Y-421145D01*
X2714479Y-437513D01*
X2720796Y-452765D01*
X2730847Y-465863D01*
X2743944Y-475913D01*
X2759197Y-482231D01*
X2775565Y-484386D01*
X2791933Y-482231D01*
X2801065Y-478448D01*
X2813765Y-485927D01*
Y-610363D01*
X2801065Y-617842D01*
X2791933Y-614059D01*
X2775565Y-611904D01*
X2759197Y-614059D01*
X2743944Y-620377D01*
X2730847Y-630427D01*
X2720796Y-643524D01*
X2714479Y-658777D01*
X2713030Y-669779D01*
X2109298D01*
Y-656560D01*
X2055401D01*
Y-631160D01*
X2109298D01*
Y-617860D01*
X2107326Y-607950D01*
X2102670Y-600980D01*
X2107326Y-594010D01*
X2109298Y-584100D01*
Y-570799D01*
X2055399D01*
Y-545399D01*
X2109298D01*
Y-532100D01*
X2107326Y-522189D01*
X2104222Y-517543D01*
X2105326Y-515891D01*
X2107298Y-505980D01*
Y-488679D01*
X2061400D01*
Y-463279D01*
X2107298D01*
Y-445980D01*
X2105326Y-436069D01*
X2099713Y-427668D01*
X2100225Y-412736D01*
X2101713Y-411742D01*
X2107326Y-403341D01*
X2109298Y-393430D01*
Y-380130D01*
X2055401D01*
Y-354730D01*
X2109298D01*
Y-341430D01*
X2111502Y-338745D01*
X2129900D01*
X2157001Y-365846D01*
X2157369Y-378112D01*
X2150176Y-386662D01*
X2137398Y-389204D01*
X2126565Y-396443D01*
X2119327Y-407276D01*
X2116785Y-420054D01*
X2119327Y-432833D01*
X2126565Y-443665D01*
X2137398Y-450904D01*
X2150177Y-453446D01*
X2162955Y-450904D01*
X2173788Y-443665D01*
X2181026Y-432833D01*
X2182623Y-424805D01*
X2183458Y-423463D01*
X2188288Y-419879D01*
X2196332Y-420950D01*
X2202971Y-432069D01*
X2203342Y-434019D01*
X2200998Y-445800D01*
X2203540Y-458578D01*
X2210779Y-469411D01*
X2221612Y-476650D01*
X2234390Y-479192D01*
X2247168Y-476650D01*
X2258001Y-469411D01*
X2265240Y-458578D01*
X2267782Y-445800D01*
X2266921Y-441473D01*
X2267109Y-440220D01*
X2275724Y-427880D01*
X2276140Y-427676D01*
X2283948Y-426123D01*
X2296815Y-417525D01*
X2305413Y-404658D01*
X2305906Y-402180D01*
X2268770D01*
Y-376780D01*
X2305906D01*
X2305413Y-374302D01*
X2302191Y-369480D01*
X2305413Y-364658D01*
X2305906Y-362180D01*
X2268770D01*
Y-336780D01*
X2305906D01*
X2305413Y-334302D01*
X2302191Y-329480D01*
X2305413Y-324658D01*
X2305906Y-322180D01*
X2268770D01*
Y-296780D01*
X2305906D01*
X2305413Y-294302D01*
X2296815Y-281435D01*
X2292781Y-278740D01*
X2292766Y-278724D01*
X2289826Y-262043D01*
X2293893Y-255956D01*
X2297246Y-239100D01*
X2293893Y-222244D01*
X2284345Y-207955D01*
X2270056Y-198407D01*
X2253200Y-195054D01*
X2236344Y-198407D01*
X2222055Y-207955D01*
X2216395D01*
X2202488Y-198662D01*
Y-111578D01*
X2210611Y-107171D01*
X2212535Y-106539D01*
X2214791Y-106226D01*
X2224531Y-112734D01*
X2237309Y-115276D01*
X2250088Y-112734D01*
X2260921Y-105496D01*
X2268159Y-94663D01*
X2269570Y-87570D01*
X2272161Y-85705D01*
X2282738Y-82257D01*
X2290571Y-87491D01*
X2303349Y-90033D01*
X2316128Y-87491D01*
X2326961Y-80252D01*
X2334199Y-69419D01*
X2336202Y-59351D01*
X2344275Y-53586D01*
X2358001Y-56727D01*
X2358907Y-58083D01*
X2363108Y-60890D01*
X2368063Y-61876D01*
X2396915D01*
X2403812Y-72125D01*
X2404319Y-74576D01*
X2402038Y-86044D01*
X2403587Y-93834D01*
X2385556Y-111865D01*
X2339622D01*
X2334667Y-112851D01*
X2330466Y-115658D01*
X2327659Y-119859D01*
X2326674Y-124814D01*
Y-164814D01*
X2327659Y-169769D01*
X2330466Y-173970D01*
X2334667Y-176777D01*
X2335110Y-176865D01*
X2335110Y-189814D01*
X2329712Y-190888D01*
X2321310Y-196502D01*
X2315696Y-204904D01*
X2313725Y-214814D01*
Y-222114D01*
X2369622D01*
Y-234814D01*
X2382322D01*
Y-280712D01*
X2399622D01*
X2409533Y-278740D01*
X2417934Y-273126D01*
X2421764D01*
X2430165Y-278740D01*
X2440076Y-280712D01*
X2457376D01*
Y-234814D01*
X2482776D01*
Y-280712D01*
X2500076D01*
X2509986Y-278740D01*
X2518388Y-273126D01*
X2520302Y-270262D01*
X2528598Y-265547D01*
X2536506Y-266963D01*
X2540529Y-267763D01*
X2600156D01*
Y-337089D01*
X2564248Y-372997D01*
X2563847Y-372917D01*
X2551069Y-375459D01*
X2540236Y-382697D01*
X2532997Y-393530D01*
X2530455Y-406309D01*
X2532997Y-419087D01*
X2540236Y-429920D01*
X2551069Y-437158D01*
X2563847Y-439700D01*
X2576626Y-437158D01*
X2587458Y-429920D01*
X2594697Y-419087D01*
X2597239Y-406309D01*
X2595353Y-396829D01*
X2633312Y-358869D01*
X2633313Y-358868D01*
X2637524Y-352567D01*
X2639002Y-345134D01*
Y-193865D01*
X2639002Y-193864D01*
X2637524Y-186431D01*
X2633313Y-180130D01*
X2613478Y-160294D01*
Y-124814D01*
X2612492Y-119859D01*
X2609685Y-115658D01*
X2607205Y-114001D01*
X2604762Y-110483D01*
X2601533Y-99896D01*
X2601559Y-99592D01*
X2602735Y-97831D01*
X2605276Y-85053D01*
X2603192Y-74576D01*
X2609898Y-61876D01*
X2744063D01*
X2749018Y-60890D01*
X2753219Y-58083D01*
X2756026Y-53882D01*
X2757012Y-48927D01*
Y51073D01*
X2756026Y56028D01*
X2753219Y60229D01*
X2749018Y63036D01*
X2744063Y64022D01*
X2482237D01*
X2480814Y76675D01*
X2480883Y76720D01*
X2480964Y76736D01*
X2482990Y78090D01*
X2485049Y79429D01*
X2485096Y79498D01*
X2485165Y79543D01*
X2486522Y81575D01*
X2487909Y83594D01*
X2487926Y83675D01*
X2487972Y83744D01*
X2488450Y86146D01*
X2488957Y88537D01*
X2489631Y142201D01*
X2489623Y142241D01*
X2489631Y142282D01*
X2489159Y144737D01*
X2488707Y147168D01*
X2488685Y147202D01*
X2488677Y147243D01*
X2487302Y149329D01*
X2485953Y151404D01*
X2485919Y151427D01*
X2485896Y151462D01*
X2476972Y160498D01*
X2476938Y160522D01*
X2476915Y160556D01*
X2474855Y161933D01*
X2472789Y163332D01*
X2472748Y163340D01*
X2472714Y163363D01*
X2470282Y163847D01*
X2467840Y164348D01*
X2467799Y164341D01*
X2467759Y164349D01*
X2360768D01*
X2355812Y163363D01*
X2351612Y160556D01*
X2342631Y151576D01*
X2339824Y147375D01*
X2338838Y142419D01*
X2338839Y118740D01*
X2311965Y91866D01*
X2221695D01*
X2220602Y91649D01*
X2216300D01*
X2211345Y90663D01*
X2207144Y87856D01*
X2175636Y56349D01*
X2063900D01*
X2062221Y56015D01*
X2052539D01*
X2051487Y55806D01*
X2041204Y61843D01*
X2038787Y64426D01*
Y68116D01*
X1987488D01*
Y16818D01*
X2012889D01*
X2022800Y18790D01*
X2026890Y21522D01*
X2039590Y15838D01*
Y-55934D01*
X2040576Y-60889D01*
X2043383Y-65090D01*
X2047584Y-67897D01*
X2052539Y-68883D01*
X2085408D01*
X2086883Y-71090D01*
X2091084Y-73897D01*
X2096039Y-74883D01*
X2146039D01*
X2150994Y-73897D01*
X2155195Y-71090D01*
X2156670Y-68883D01*
X2189539D01*
X2194494Y-67897D01*
X2204604Y-75748D01*
X2204605Y-78426D01*
X2203918Y-81885D01*
X2204608Y-85355D01*
X2204609Y-88148D01*
X2194494Y-95971D01*
X2189539Y-94985D01*
X2156670D01*
X2155195Y-92778D01*
X2150994Y-89971D01*
X2146039Y-88985D01*
X2096039D01*
X2091084Y-89971D01*
X2086883Y-92778D01*
X2085587Y-94716D01*
X2046958D01*
X2025838Y-73597D01*
Y-20784D01*
X2024852Y-15829D01*
X2022045Y-11628D01*
X2017845Y-8821D01*
X2012889Y-7835D01*
X1936689D01*
X1931734Y-8821D01*
X1927533Y-11628D01*
X1924726Y-15829D01*
X1923740Y-20784D01*
Y-96984D01*
X1924726Y-101939D01*
X1927533Y-106140D01*
X1931734Y-108947D01*
X1936689Y-109933D01*
X1989502D01*
X2001685Y-122116D01*
X1997659Y-131749D01*
X1995679Y-134071D01*
X1936689D01*
X1931734Y-135057D01*
X1927533Y-137864D01*
X1924726Y-142064D01*
X1923740Y-147020D01*
Y-153646D01*
X1831191D01*
X1831158Y-153653D01*
X1826443Y-148490D01*
X1822655Y-142395D01*
X1824879Y-131216D01*
X1822337Y-118438D01*
X1818667Y-112946D01*
X1819792Y-110636D01*
X1827064Y-102653D01*
X1836756Y-104580D01*
X1849534Y-102039D01*
X1860367Y-94800D01*
X1867605Y-83967D01*
X1870147Y-71189D01*
X1867605Y-58410D01*
X1860367Y-47578D01*
X1849534Y-40339D01*
X1836756Y-37797D01*
X1828514Y-39437D01*
X1818868Y-31905D01*
X1817509Y-29662D01*
X1818329Y-25541D01*
Y-5740D01*
X1782236D01*
Y19660D01*
X1818329D01*
Y39459D01*
X1816249Y49913D01*
X1818236Y52334D01*
X1826702Y54018D01*
X1833880Y58814D01*
X1838676Y65992D01*
X1839521Y70238D01*
X1848545Y68443D01*
X1858377Y70399D01*
X1866713Y75969D01*
X1872283Y84304D01*
X1874238Y94137D01*
X1872283Y103970D01*
X1867968Y110427D01*
Y124749D01*
X1866489Y132182D01*
X1862279Y138483D01*
X1862278Y138484D01*
X1845069Y155693D01*
X1838768Y159903D01*
X1831335Y161382D01*
X1805380D01*
Y174459D01*
X1816478Y183765D01*
X2813765D01*
X2813765Y-102363D01*
D02*
G37*
G36*
X1362769Y-699384D02*
X1276234D01*
Y-409999D01*
X1275865Y-409108D01*
X1276132Y-408181D01*
X1275129Y-399281D01*
X1274214Y-397625D01*
X1274320Y-395736D01*
X1271362Y-387281D01*
X1270101Y-385871D01*
X1269784Y-384006D01*
X1265020Y-376423D01*
X1263477Y-375328D01*
X1262753Y-373580D01*
X1260000Y-370827D01*
Y-369999D01*
X1259171D01*
X1256419Y-367247D01*
X1254671Y-366523D01*
X1253576Y-364979D01*
X1245991Y-360214D01*
X1244127Y-359898D01*
X1242718Y-358638D01*
X1234264Y-355679D01*
X1232375Y-355785D01*
X1230720Y-354870D01*
X1221819Y-353866D01*
X1220892Y-354134D01*
X1220000Y-353764D01*
X479999D01*
X479107Y-354134D01*
X478179Y-353866D01*
X469279Y-354870D01*
X467625Y-355785D01*
X465737Y-355679D01*
X457282Y-358638D01*
X455871Y-359898D01*
X454006Y-360215D01*
X446423Y-364980D01*
X445328Y-366523D01*
X443581Y-367247D01*
X440828Y-369999D01*
X439999D01*
Y-370828D01*
X437247Y-373580D01*
X436523Y-375327D01*
X434981Y-376421D01*
X430215Y-384005D01*
X429898Y-385870D01*
X428637Y-387281D01*
X425678Y-395736D01*
X425785Y-397625D01*
X424869Y-399281D01*
X423867Y-408181D01*
X424134Y-409108D01*
X423764Y-409999D01*
Y-794654D01*
X341659D01*
Y-480775D01*
X342092Y-478600D01*
X341659Y-476425D01*
Y-326430D01*
X1362769D01*
Y-699384D01*
D02*
G37*
G36*
X402239Y100922D02*
X390240Y94508D01*
X387539Y96312D01*
X377629Y98283D01*
X362328D01*
Y46387D01*
X336928D01*
Y98283D01*
X321629D01*
X319818Y97923D01*
X317380Y110179D01*
X314172Y114979D01*
X337434Y138241D01*
X402239D01*
Y100922D01*
D02*
G37*
G36*
X305495Y171765D02*
X270164Y136434D01*
X265147Y128926D01*
X263673Y121516D01*
X262919Y121011D01*
X255680Y110179D01*
X253816Y100806D01*
X244298Y94833D01*
X237221Y98296D01*
X234679Y111074D01*
X227440Y121907D01*
X216607Y129146D01*
X203829Y131687D01*
X191050Y129146D01*
X180218Y121907D01*
X172979Y111074D01*
X170437Y98296D01*
X172979Y85517D01*
X175484Y81768D01*
X170347Y71735D01*
X158200Y70657D01*
X81731Y147125D01*
X81841Y147676D01*
X79299Y160454D01*
X72060Y171287D01*
X71345Y171765D01*
X74986Y183765D01*
X300524D01*
X305495Y171765D01*
D02*
G37*
G36*
X1599091Y174459D02*
Y168990D01*
X1598498Y168102D01*
X1596542Y158269D01*
X1598498Y148437D01*
X1599091Y147549D01*
Y109459D01*
X1599126Y109284D01*
X1589426Y96584D01*
X1586236D01*
X1577769Y94900D01*
X1570591Y90104D01*
X1565795Y82926D01*
X1564110Y74459D01*
X1565795Y65992D01*
X1568135Y62489D01*
X1563367Y50747D01*
X1562509Y49789D01*
X1546537D01*
X1534917Y56474D01*
Y91954D01*
X1549184Y106221D01*
X1556801Y107736D01*
X1565137Y113306D01*
X1570706Y121641D01*
X1572662Y131474D01*
X1570706Y141307D01*
X1565137Y149642D01*
X1556801Y155212D01*
X1546968Y157168D01*
X1537136Y155212D01*
X1528800Y149642D01*
X1523231Y141307D01*
X1521716Y133689D01*
X1517449Y129423D01*
X1481969D01*
X1477013Y128437D01*
X1472812Y125630D01*
X1470005Y121429D01*
X1469917Y120986D01*
X1456968Y120986D01*
X1455895Y126384D01*
X1450281Y134786D01*
X1441879Y140400D01*
X1431968Y142371D01*
X1424669D01*
Y86474D01*
X1411969D01*
Y73774D01*
X1366071D01*
Y56474D01*
X1368042Y46563D01*
X1369951Y43707D01*
X1362629Y36386D01*
X1359184Y32941D01*
X1354974Y26640D01*
X1353495Y19207D01*
Y-13768D01*
X1257817Y-109446D01*
X1247422Y-111513D01*
X1236589Y-118752D01*
X1229350Y-129585D01*
X1226809Y-142363D01*
X1229350Y-155142D01*
X1231354Y-158141D01*
X1224940Y-170141D01*
X986066D01*
X978633Y-171619D01*
X972331Y-175830D01*
X962134Y-186027D01*
X823863D01*
X823702Y-185863D01*
X818547Y-174027D01*
X821555Y-169525D01*
X823527Y-159614D01*
Y-142315D01*
X755128D01*
X686731D01*
Y-159614D01*
X688703Y-169525D01*
X694032Y-177500D01*
X687758Y-181693D01*
X684959Y-185881D01*
X657069D01*
X655078Y-183287D01*
X651753Y-173881D01*
X655555Y-168191D01*
X657526Y-158280D01*
Y-142979D01*
X605628D01*
Y-117579D01*
X657526D01*
Y-102280D01*
X655555Y-92370D01*
X649941Y-83968D01*
X654912Y-72857D01*
X657376Y-70939D01*
X660629Y-71586D01*
X673407Y-69044D01*
X674796Y-68116D01*
X689622Y-72642D01*
X689908Y-73334D01*
X690733Y-86665D01*
X688703Y-89704D01*
X686731Y-99614D01*
Y-116915D01*
X755128D01*
X823527D01*
Y-99614D01*
X821555Y-89704D01*
X821327Y-89361D01*
X827741Y-77361D01*
X959094Y-77362D01*
X959095Y-77362D01*
X961768Y-76255D01*
X969759Y-84245D01*
X968719Y-89471D01*
X971261Y-102249D01*
X978499Y-113082D01*
X989332Y-120321D01*
X1002111Y-122863D01*
X1014889Y-120321D01*
X1025722Y-113082D01*
X1032961Y-102249D01*
X1035502Y-89471D01*
X1032961Y-76693D01*
X1025722Y-65860D01*
X1014889Y-58621D01*
X1002888Y-56234D01*
X1000874Y-53138D01*
X997362Y-44789D01*
X1051789Y9639D01*
X1085629Y9639D01*
X1095349Y13665D01*
X1095350Y13666D01*
X1099213Y22993D01*
X1233882D01*
Y14416D01*
X1237909Y4695D01*
X1247629Y669D01*
X1260000D01*
Y1467D01*
X1299629D01*
X1303334Y2204D01*
X1305644Y3161D01*
X1308785Y5260D01*
X1310884Y8401D01*
X1311841Y10711D01*
X1312578Y14416D01*
Y70416D01*
X1312559Y70508D01*
X1313169Y70915D01*
X1317941Y74103D01*
X1323555Y82505D01*
X1325526Y92416D01*
Y107716D01*
X1221731D01*
Y92416D01*
X1223703Y82505D01*
X1229317Y74103D01*
X1229713Y73839D01*
X1226072Y61839D01*
X1205541D01*
X1198526Y70386D01*
Y92686D01*
X1132628D01*
Y105386D01*
X1119928D01*
Y166283D01*
X1092629D01*
X1082718Y164312D01*
X1081944Y163794D01*
X1080684Y164176D01*
X1076980Y165711D01*
X1073646Y167939D01*
X1072265Y167664D01*
X1070964Y168203D01*
X1004629D01*
X994909Y164176D01*
X990882Y154456D01*
Y108080D01*
X937936Y55133D01*
X699629Y55132D01*
X689908Y51106D01*
X689291Y49615D01*
X674796Y44868D01*
X673407Y45796D01*
X660629Y48337D01*
X647850Y45796D01*
X637018Y38557D01*
X629779Y27724D01*
X627237Y14946D01*
X629779Y2167D01*
X630247Y1466D01*
X623833Y-10534D01*
X579629D01*
X578733Y-10905D01*
X566732Y-2887D01*
Y20916D01*
X562706Y30636D01*
X552986Y34663D01*
X415986D01*
X415877Y34617D01*
X406355Y40980D01*
Y52852D01*
X415877Y59215D01*
X415986Y59170D01*
X552986D01*
X562706Y63196D01*
X566732Y72916D01*
Y136966D01*
X761524D01*
X761835Y136499D01*
X772668Y129261D01*
X785447Y126719D01*
X798225Y129261D01*
X809058Y136499D01*
X816297Y147332D01*
X818838Y160111D01*
X816520Y171765D01*
X816831Y173700D01*
X823462Y183765D01*
X1229699D01*
X1236961Y172636D01*
X1236855Y171765D01*
X1229317Y166728D01*
X1223703Y158326D01*
X1221731Y148416D01*
Y133116D01*
X1325526D01*
Y148416D01*
X1323555Y158326D01*
X1317941Y166728D01*
X1315885Y168102D01*
X1311451Y171065D01*
X1310403Y171765D01*
X1310297Y172636D01*
X1311685Y174763D01*
X1311969Y179238D01*
X1313563Y183765D01*
X1587993D01*
X1599091Y174459D01*
D02*
G37*
%LPC*%
G36*
X-114880Y-966714D02*
X-214880D01*
X-224600Y-970740D01*
X-228626Y-980460D01*
Y-1100460D01*
X-224600Y-1110180D01*
X-214880Y-1114206D01*
X-211650D01*
X-210221Y-1121393D01*
X-202982Y-1132226D01*
X-192149Y-1139464D01*
X-179371Y-1142006D01*
X-166593Y-1139464D01*
X-155760Y-1132226D01*
X-148521Y-1121393D01*
X-147092Y-1114206D01*
X-114880D01*
X-105160Y-1110180D01*
X-101134Y-1100460D01*
Y-980460D01*
X-105160Y-970740D01*
X-114880Y-966714D01*
D02*
G37*
G36*
X-54176Y-1076249D02*
X-66954Y-1078791D01*
X-77787Y-1086029D01*
X-85026Y-1096862D01*
X-87568Y-1109640D01*
X-85026Y-1122419D01*
X-77787Y-1133252D01*
X-66954Y-1140490D01*
X-54176Y-1143032D01*
X-41397Y-1140490D01*
X-30565Y-1133252D01*
X-23326Y-1122419D01*
X-20784Y-1109640D01*
X-23326Y-1096862D01*
X-30565Y-1086029D01*
X-41397Y-1078791D01*
X-54176Y-1076249D01*
D02*
G37*
G36*
X-34574Y-300714D02*
X-67772D01*
Y-343912D01*
X-60471D01*
X-50561Y-341940D01*
X-42159Y-336326D01*
X-36545Y-327925D01*
X-34574Y-318014D01*
Y-300714D01*
D02*
G37*
G36*
X-103550Y-824402D02*
X-116328Y-826943D01*
X-127161Y-834182D01*
X-134400Y-845015D01*
X-136942Y-857793D01*
X-134400Y-870572D01*
X-127161Y-881405D01*
X-116328Y-888643D01*
X-103550Y-891185D01*
X-90771Y-888643D01*
X-79939Y-881405D01*
X-72700Y-870572D01*
X-70158Y-857793D01*
X-72700Y-845015D01*
X-79939Y-834182D01*
X-90771Y-826943D01*
X-103550Y-824402D01*
D02*
G37*
G36*
X-333100Y-234235D02*
X-452196D01*
X-461916Y-238261D01*
X-465942Y-247982D01*
Y-758800D01*
X-461916Y-768520D01*
X-452196Y-772546D01*
X-333100D01*
X-323380Y-768520D01*
X-319354Y-758800D01*
Y-247982D01*
X-323380Y-238261D01*
X-333100Y-234235D01*
D02*
G37*
G36*
X-251456Y-313723D02*
X-264234Y-316264D01*
X-275067Y-323503D01*
X-282306Y-334336D01*
X-284848Y-347114D01*
X-282306Y-359893D01*
X-275067Y-370725D01*
X-264234Y-377964D01*
X-251456Y-380506D01*
X-238677Y-377964D01*
X-227845Y-370725D01*
X-220606Y-359893D01*
X-218064Y-347114D01*
X-220606Y-334336D01*
X-227845Y-323503D01*
X-238677Y-316264D01*
X-251456Y-313723D01*
D02*
G37*
G36*
X58299Y-512815D02*
X44565Y-515547D01*
X32921Y-523327D01*
X25141Y-534970D01*
X22409Y-548704D01*
X25141Y-562439D01*
X32921Y-574082D01*
X44565Y-581862D01*
X58299Y-584594D01*
X72033Y-581862D01*
X83676Y-574082D01*
X91456Y-562439D01*
X94188Y-548704D01*
X91456Y-534970D01*
X83676Y-523327D01*
X72033Y-515547D01*
X58299Y-512815D01*
D02*
G37*
G36*
X-79588Y-108757D02*
X-92367Y-111299D01*
X-103200Y-118537D01*
X-110438Y-129370D01*
X-112980Y-142149D01*
X-110438Y-154927D01*
X-109030Y-157034D01*
X-110192Y-160864D01*
X-114218Y-170584D01*
Y-230584D01*
X-112249Y-235336D01*
X-118784Y-239702D01*
X-124398Y-248104D01*
X-125638Y-254342D01*
X-136852Y-254893D01*
X-140085Y-243674D01*
X-138984Y-236037D01*
X-136725Y-230584D01*
Y-170584D01*
X-140751Y-160864D01*
X-150471Y-156838D01*
X-190471D01*
X-200192Y-160864D01*
X-204218Y-170584D01*
Y-181161D01*
X-222496D01*
X-225294Y-176973D01*
X-236127Y-169734D01*
X-248906Y-167192D01*
X-261684Y-169734D01*
X-272517Y-176973D01*
X-279756Y-187806D01*
X-282297Y-200584D01*
X-279756Y-213363D01*
X-272517Y-224195D01*
X-261684Y-231434D01*
X-248906Y-233976D01*
X-236127Y-231434D01*
X-225294Y-224195D01*
X-222496Y-220007D01*
X-204218D01*
Y-230584D01*
X-201959Y-236037D01*
X-200768Y-244299D01*
X-201959Y-252561D01*
X-204218Y-258014D01*
Y-318014D01*
X-200192Y-327734D01*
X-190471Y-331761D01*
X-150471D01*
X-140751Y-327734D01*
X-137994Y-321079D01*
X-125638Y-321687D01*
X-124398Y-327925D01*
X-118784Y-336326D01*
X-110382Y-341940D01*
X-100471Y-343912D01*
X-93172D01*
Y-288014D01*
X-80472D01*
Y-275314D01*
X-34574D01*
Y-258014D01*
X-36545Y-248104D01*
X-42159Y-239702D01*
X-48693Y-235336D01*
X-46725Y-230584D01*
Y-170584D01*
X-50751Y-160864D01*
X-51361Y-158852D01*
X-48739Y-154927D01*
X-46197Y-142149D01*
X-48739Y-129370D01*
X-55977Y-118537D01*
X-66810Y-111299D01*
X-79588Y-108757D01*
D02*
G37*
G36*
X506929Y-223274D02*
X473731D01*
Y-240574D01*
X475703Y-250485D01*
X481317Y-258886D01*
X489718Y-264500D01*
X499629Y-266472D01*
X506929D01*
Y-223274D01*
D02*
G37*
G36*
X-429371Y-75223D02*
X-442149Y-77764D01*
X-452982Y-85003D01*
X-460221Y-95836D01*
X-462763Y-108614D01*
X-460221Y-121393D01*
X-452982Y-132226D01*
X-442149Y-139464D01*
X-429371Y-142006D01*
X-416593Y-139464D01*
X-405760Y-132226D01*
X-398521Y-121393D01*
X-395979Y-108614D01*
X-398521Y-95836D01*
X-405760Y-85003D01*
X-416593Y-77764D01*
X-429371Y-75223D01*
D02*
G37*
G36*
X1684898Y-143702D02*
X1621699D01*
Y-171898D01*
X1659000D01*
X1668911Y-169926D01*
X1677312Y-164312D01*
X1682926Y-155911D01*
X1684898Y-146000D01*
Y-143702D01*
D02*
G37*
G36*
X1596299D02*
X1533103D01*
Y-146000D01*
X1535074Y-155911D01*
X1540688Y-164312D01*
X1549090Y-169926D01*
X1559000Y-171898D01*
X1596299D01*
Y-143702D01*
D02*
G37*
G36*
X1962088Y144814D02*
X1936689D01*
X1926779Y142842D01*
X1918377Y137228D01*
X1912763Y128827D01*
X1910792Y118916D01*
Y93516D01*
X1962088D01*
Y144814D01*
D02*
G37*
G36*
X2746519Y160149D02*
X2733740Y157607D01*
X2722907Y150369D01*
X2715669Y139536D01*
X2713127Y126757D01*
X2715669Y113979D01*
X2722907Y103146D01*
X2733740Y95908D01*
X2746519Y93366D01*
X2759297Y95908D01*
X2770130Y103146D01*
X2777368Y113979D01*
X2779910Y126757D01*
X2777368Y139536D01*
X2770130Y150369D01*
X2759297Y157607D01*
X2746519Y160149D01*
D02*
G37*
G36*
X1962088Y68116D02*
X1910792D01*
Y42716D01*
X1912763Y32805D01*
X1918377Y24404D01*
X1926779Y18790D01*
X1936689Y16818D01*
X1962088D01*
Y68116D01*
D02*
G37*
G36*
X2012889Y144814D02*
X1987488D01*
Y93516D01*
X2038787D01*
Y118916D01*
X2036816Y128827D01*
X2031202Y137228D01*
X2022800Y142842D01*
X2012889Y144814D01*
D02*
G37*
G36*
X2356922Y-247514D02*
X2313725D01*
Y-254814D01*
X2315696Y-264725D01*
X2321310Y-273126D01*
X2329712Y-278740D01*
X2339622Y-280712D01*
X2356922D01*
Y-247514D01*
D02*
G37*
G36*
X1172629Y166283D02*
X1145328D01*
Y118086D01*
X1198526D01*
Y140386D01*
X1196555Y150296D01*
X1190941Y158698D01*
X1182539Y164312D01*
X1172629Y166283D01*
D02*
G37*
G36*
X1399269Y142371D02*
X1391969D01*
X1382058Y140400D01*
X1373656Y134786D01*
X1368042Y126384D01*
X1366071Y116474D01*
Y99174D01*
X1399269D01*
Y142371D01*
D02*
G37*
%LPD*%
D10*
X1132629Y-244614D02*
D03*
Y105386D02*
D03*
D11*
X755129Y-129614D02*
D03*
Y-9614D02*
D03*
D12*
X1609000Y-131000D02*
D03*
Y-939000D02*
D03*
D13*
X1874000Y-210000D02*
D03*
Y-260000D02*
D03*
Y-810000D02*
D03*
Y-310000D02*
D03*
Y-760000D02*
D03*
Y-710000D02*
D03*
Y-410000D02*
D03*
Y-660000D02*
D03*
Y-460000D02*
D03*
Y-510000D02*
D03*
Y-560000D02*
D03*
Y-610000D02*
D03*
Y-860000D02*
D03*
Y-360000D02*
D03*
D14*
X135120Y-1040460D02*
D03*
X-164880D02*
D03*
D15*
X-14880Y-995460D02*
D03*
D16*
X220629Y-898614D02*
D03*
Y-773614D02*
D03*
Y-648614D02*
D03*
Y-523614D02*
D03*
Y-398614D02*
D03*
D17*
X2556063Y1073D02*
D03*
D18*
X1350631Y-918610D02*
D03*
X2775627Y-1158614D02*
D03*
D19*
X2121039Y-131934D02*
D03*
Y-31934D02*
D03*
D20*
Y-6434D02*
D03*
Y-157434D02*
D03*
X484486Y-28584D02*
D03*
Y122416D02*
D03*
D21*
X2111960Y-261750D02*
D03*
D22*
X2046960Y-279250D02*
D03*
D23*
Y-244250D02*
D03*
D24*
X310629Y-23614D02*
D03*
X350629D02*
D03*
X310629Y-63614D02*
D03*
X350629D02*
D03*
X310629Y-103614D02*
D03*
X350629D02*
D03*
D25*
X1622236Y6959D02*
D03*
X1662235D02*
D03*
X1742236D02*
D03*
X1782235D02*
D03*
Y141959D02*
D03*
X1742236D02*
D03*
X1662235D02*
D03*
X1622236D02*
D03*
D26*
X1702236Y9459D02*
D03*
Y139459D02*
D03*
D27*
X1782235Y74459D02*
D03*
X1622236D02*
D03*
D28*
X1971400Y-475980D02*
D03*
X2061400D02*
D03*
X135629Y-38614D02*
D03*
X225629D02*
D03*
X1411968Y86474D02*
D03*
X1501969D02*
D03*
X609629Y-210574D02*
D03*
X519629D02*
D03*
X1501969Y-18684D02*
D03*
X1411968D02*
D03*
X-80471Y-200584D02*
D03*
X-170471D02*
D03*
Y-288014D02*
D03*
X-80471D02*
D03*
D29*
X135629Y-123614D02*
D03*
Y-213614D02*
D03*
X225629D02*
D03*
Y-123614D02*
D03*
X2369622Y-144814D02*
D03*
Y-234814D02*
D03*
X2570529D02*
D03*
Y-144814D02*
D03*
X2470076Y-234814D02*
D03*
Y-144814D02*
D03*
X1966689Y-167020D02*
D03*
Y-257020D02*
D03*
X-229371Y56386D02*
D03*
Y146386D02*
D03*
D30*
X2268770Y-389480D02*
D03*
X2199470D02*
D03*
X2234120Y-369490D02*
D03*
X2268770Y-349480D02*
D03*
X2199470D02*
D03*
X2234120Y-329470D02*
D03*
X2268770Y-309480D02*
D03*
X2199470D02*
D03*
D31*
X1974789Y80816D02*
D03*
Y-58884D02*
D03*
D32*
X2055400Y-558100D02*
D03*
X1977400D02*
D03*
X271629Y46386D02*
D03*
X349629D02*
D03*
X522719Y-131280D02*
D03*
X444719D02*
D03*
X1977400Y-643860D02*
D03*
X2055400D02*
D03*
X1977400Y-367430D02*
D03*
X2055400D02*
D03*
D33*
X605629Y-52280D02*
D03*
Y-130280D02*
D03*
X1273629Y42416D02*
D03*
Y120416D02*
D03*
X-319371Y140386D02*
D03*
Y62386D02*
D03*
D34*
X2300800Y-309480D02*
X2346943D01*
X2268770D02*
X2300800D01*
X320579Y-298664D02*
X1269724D01*
X220629Y-398614D02*
X320579Y-298664D01*
X1269724D02*
X1286265Y-282123D01*
X1640022D02*
X1791487Y-130658D01*
X350629Y47386D02*
Y106386D01*
X1870759Y-657567D02*
X1873596Y-660404D01*
X111546Y-1011382D02*
X137872Y-1037708D01*
X-219371Y-108614D02*
Y61386D01*
X1059155Y87969D02*
Y96616D01*
X1026488Y129283D02*
X1059155Y96616D01*
X2435429Y-89461D02*
Y-86044D01*
X39884Y-945224D02*
X135120Y-1040460D01*
X1501969Y69472D02*
Y86474D01*
X1488263Y55766D02*
X1501969Y69472D01*
X1463557Y55766D02*
X1488263D01*
X1380422Y-50230D02*
X1411968Y-18684D01*
X1380422Y-83421D02*
Y-50230D01*
X1274279Y-189564D02*
X1380422Y-83421D01*
X986066Y-189564D02*
X1274279D01*
X1455576Y-70182D02*
Y11864D01*
X1702236Y107527D02*
Y124459D01*
X1701807Y107098D02*
X1702236Y107527D01*
X1546968Y131474D02*
Y131474D01*
X1501969Y86474D02*
X1546968Y131474D01*
X1848545Y94137D02*
Y124749D01*
X1831335Y141959D02*
X1848545Y124749D01*
X1782235Y141959D02*
X1831335D01*
X1286265Y-282123D02*
X1640022D01*
X1622236Y141959D02*
Y158269D01*
X1702236Y139459D02*
Y164559D01*
X614905Y-205304D02*
X711369D01*
X1792250Y-555191D02*
Y-298731D01*
Y-555191D02*
X1847059Y-610000D01*
X1874000D01*
X2150177Y-420054D02*
Y-418243D01*
X2024450Y-401113D02*
X2055400Y-370163D01*
X2024450Y-401321D02*
Y-401113D01*
X2013291Y-412480D02*
X2024450Y-401321D01*
X2013083Y-412480D02*
X2013291D01*
X1998633Y-426930D02*
X2013083Y-412480D01*
X1943509Y-426930D02*
X1998633D01*
X1733617Y-660702D02*
X1867624D01*
X1787683Y-709609D02*
X1873610D01*
X1867624Y-660702D02*
X1870759Y-657567D01*
X2553157Y-229942D02*
Y-229844D01*
X2553078Y-229765D02*
X2553157Y-229844D01*
X1554473Y-71189D02*
X1836756D01*
X1873610Y-709609D02*
X1874000Y-710000D01*
X1873596Y-660404D02*
X1874000Y-660000D01*
X1501969Y-18684D02*
X1554473Y-71189D01*
X2178940Y-389480D02*
X2199470D01*
X2150177Y-418243D02*
X2178940Y-389480D01*
X2570529Y-144814D02*
X2619579Y-193864D01*
Y-345134D02*
Y-193864D01*
X2470076Y-144814D02*
X2570529D01*
X2369622D02*
X2380076D01*
X2435429Y-89461D01*
X-224371Y56386D02*
X-219371Y61386D01*
X-229371Y56386D02*
X-224371D01*
X-235371Y62386D02*
X-229371Y56386D01*
X-319371Y62386D02*
X-235371D01*
X349629Y46386D02*
X350629Y47386D01*
Y-23614D02*
Y45385D01*
X349629Y46386D02*
X350629Y45385D01*
X1087919Y42416D02*
X1273629D01*
X1132629Y105386D02*
X1147659Y120416D01*
X1273629D01*
X-170471Y-288014D02*
Y-200584D01*
X1988919Y-279250D02*
X2046960D01*
X1966689Y-257020D02*
X1988919Y-279250D01*
X1874000Y-860000D02*
X1897740D01*
X1855770Y-760000D02*
X1874000D01*
X2268770Y-389480D02*
Y-349480D01*
Y-309480D01*
X1971400Y-487561D02*
X1990739Y-506900D01*
X1971400Y-487561D02*
Y-475980D01*
X2234120Y-445530D02*
Y-369490D01*
X-179371Y-1108614D02*
Y-1054951D01*
X-164880Y-1040460D01*
X135120D02*
X137872Y-1037708D01*
X755129Y-9614D02*
X922596D01*
X-248906Y-200584D02*
X-170471D01*
X600253Y-219950D02*
X609629Y-210574D01*
X-14880Y-995460D02*
Y-857630D01*
X39884Y-945224D02*
Y-830861D01*
X970180Y-205450D02*
X986066Y-189564D01*
X767720Y-205450D02*
X970180D01*
X1054285Y76050D02*
X1087919Y42416D01*
X922596Y-9614D02*
X1002111Y-89129D01*
X-79588Y-199701D02*
Y-142149D01*
X-80471Y-200584D02*
X-79588Y-199701D01*
X135629Y-123614D02*
Y-38614D01*
Y-123614D02*
X135629Y-123614D01*
X522719Y-207484D02*
Y-131280D01*
X519629Y-210574D02*
X522719Y-207484D01*
X1874000Y-510000D02*
X1900941D01*
X1932350Y-478591D01*
Y-438089D01*
X1943509Y-426930D01*
X2055400Y-370163D02*
Y-367430D01*
X1959635Y-306303D02*
Y-264074D01*
X1966689Y-257020D01*
X2234120Y-445530D02*
X2234390Y-445800D01*
X2563847Y-406309D02*
Y-400866D01*
X2619579Y-345134D01*
X1260200Y-134531D02*
X1372919Y-21813D01*
Y19207D01*
X1260200Y-142363D02*
Y-134531D01*
X1622236Y6959D02*
Y30366D01*
X1455576Y11864D02*
X1474078Y30366D01*
X1372919Y19207D02*
X1384078Y30366D01*
X1438157D01*
X1463557Y55766D01*
X2346943Y-309480D02*
X2369599Y-286824D01*
X2234120Y-329470D02*
X2254110Y-309480D01*
X2268770D01*
X600253Y-219950D02*
X600256Y-219953D01*
X614905Y-205304D01*
X1474078Y30366D02*
X1622236D01*
X2548029Y-234814D02*
X2553078Y-229765D01*
X2548029Y-234814D02*
X2570529D01*
D35*
X2300800Y-309480D02*
X2323456Y-286824D01*
X2369599D01*
X2185250Y-239100D02*
Y-220050D01*
X2169800Y-204600D02*
X2185250Y-220050D01*
X2169800Y-204600D02*
Y-180695D01*
X2185250Y-239100D02*
X2253200D01*
X2069189Y-468191D02*
Y-383952D01*
X2061400Y-475980D02*
X2069189Y-468191D01*
X2072538Y-360874D02*
X2096692D01*
X2071037Y-359373D02*
X2072538Y-360874D01*
X2055400Y-370163D02*
X2069189Y-383952D01*
X2055400Y-558100D02*
X2061400Y-552100D01*
Y-475980D01*
X2055400Y-643860D02*
Y-558100D01*
Y-643860D02*
X2055910Y-644370D01*
X2116320D01*
X2055400Y-367430D02*
X2059190Y-371220D01*
X2369599Y-234837D02*
X2369622Y-234814D01*
X2369599Y-286824D02*
Y-234837D01*
X2470076Y-234814D02*
X2470719Y-235457D01*
Y-288784D02*
Y-235457D01*
X2369622Y-234814D02*
X2470076D01*
X2036315Y-120410D02*
X2088110D01*
X1974789Y-58884D02*
X2036315Y-120410D01*
X2088110D02*
X2099634Y-131934D01*
X2121039D02*
X2169800Y-180695D01*
X2099634Y-131934D02*
X2121039D01*
X2059190Y-371220D02*
X2071037Y-359373D01*
D36*
X350629Y-173671D02*
Y-146171D01*
X378200Y-146100D02*
X435000D01*
X350629Y-173671D02*
X378200Y-146100D01*
X350629Y-178614D02*
Y-173671D01*
Y-146171D02*
Y-103614D01*
X365520Y-131280D02*
X444719D01*
X350629Y-146171D02*
X365520Y-131280D01*
X428539Y-115100D02*
X444719Y-131280D01*
X362115Y-115100D02*
X428539D01*
X350629Y-103614D02*
X362115Y-115100D01*
X350629Y-178614D02*
X351086D01*
X250629Y-63614D02*
X310629D01*
X225629Y-38614D02*
X250629Y-63614D01*
X285629Y-23614D02*
X310629D01*
X271629Y-9614D02*
X285629Y-23614D01*
X271629Y-9614D02*
Y46386D01*
X149739D02*
X271629D01*
X225629Y-213614D02*
X226400Y-214385D01*
X660629Y-38194D02*
Y14946D01*
X619715Y-38194D02*
X660629D01*
X605629Y-52280D02*
X619715Y-38194D01*
X2379586Y126756D02*
X2441263D01*
X2378151Y125321D02*
X2379586Y126756D01*
X2321552Y68722D02*
X2378151Y125321D01*
X2221695Y68722D02*
X2321552D01*
X2303349Y-56641D02*
X2361063Y1073D01*
X1344631Y-663610D02*
Y-554241D01*
X1308711Y-518322D02*
X1344631Y-554241D01*
X1308711Y-518322D02*
Y-463210D01*
Y-409999D01*
X324017Y-178614D02*
X350629D01*
X2139487Y-315600D02*
X2173367Y-349480D01*
X2100010Y-315600D02*
X2139487D01*
X2173367Y-349480D02*
X2199470D01*
X2021119Y-315600D02*
X2100010D01*
X2361063Y1073D02*
X2556063D01*
X2146539Y-6434D02*
X2221695Y68722D01*
X2146539Y-6434D02*
X2160452D01*
X48449Y147676D02*
X149739Y46386D01*
X350629Y-63614D02*
X365629D01*
X400659Y-28584D01*
X484486D01*
X225629Y-123614D02*
Y-38614D01*
Y-123614D02*
X225629Y-123614D01*
Y-213614D02*
X228329Y-210914D01*
X2111960Y-303650D02*
Y-261750D01*
X2100010Y-315600D02*
X2111960Y-303650D01*
X1977400Y-359319D02*
X2021119Y-315600D01*
X1977400Y-367430D02*
Y-359319D01*
X290129Y-124115D02*
X310629Y-103614D01*
X173329Y-170914D02*
X275149D01*
X290129Y-155934D01*
Y-124115D01*
X228329Y-210914D02*
X291717D01*
X324017Y-178614D01*
X286530Y61287D02*
Y97400D01*
Y120068D01*
X271629Y46386D02*
X286530Y61287D01*
X445516Y161386D02*
X484486Y122416D01*
X516366Y154296D02*
X522181Y160111D01*
X785447D01*
X286530Y120068D02*
X327847Y161386D01*
X445516D01*
X1946950Y-397880D02*
X1977400Y-367430D01*
X1874000Y-410000D02*
X1886120Y-397880D01*
X1946950D01*
X133129Y-211114D02*
X173329Y-170914D01*
X2121039Y-31934D02*
X2146539Y-6434D01*
X2121039D02*
X2146539D01*
X2084218D02*
X2121039D01*
D37*
X1959467Y-174242D02*
X1966689Y-167020D01*
X1831191Y-174242D02*
X1959467D01*
X1700310Y-305123D02*
X1831191Y-174242D01*
X1622236Y74459D02*
X1647455D01*
X1818800Y-533971D02*
X1844828Y-560000D01*
X1874000D01*
X1818800Y-533971D02*
Y-436633D01*
X1845433Y-410000D01*
X1874000D01*
X1700310Y-432835D02*
Y-305123D01*
X1697573Y-432835D02*
X1700310D01*
X1966689Y-167020D02*
X1969730D01*
X2046960Y-244250D01*
X1874000Y-810000D02*
X1887860D01*
X135629Y-213614D02*
Y-208616D01*
D38*
X-354895Y-728582D02*
Y-701924D01*
Y-715253D01*
X-434870D01*
X-421541Y-728582D01*
D39*
X-1733924Y-1638703D02*
X-1750586Y-1622042D01*
X-1783908D01*
X-1800569Y-1638703D01*
Y-1705348D01*
X-1783908Y-1722010D01*
X-1750586D01*
X-1733924Y-1705348D01*
X-1683940Y-1722010D02*
X-1650618D01*
X-1633957Y-1705348D01*
Y-1672026D01*
X-1650618Y-1655364D01*
X-1683940D01*
X-1700602Y-1672026D01*
Y-1705348D01*
X-1683940Y-1722010D01*
X-1600634D02*
Y-1655364D01*
X-1583972D01*
X-1567311Y-1672026D01*
Y-1722010D01*
Y-1672026D01*
X-1550650Y-1655364D01*
X-1533989Y-1672026D01*
Y-1722010D01*
X-1500666Y-1755332D02*
Y-1655364D01*
X-1450682D01*
X-1434021Y-1672026D01*
Y-1705348D01*
X-1450682Y-1722010D01*
X-1500666D01*
X-1384037D02*
X-1350714D01*
X-1334053Y-1705348D01*
Y-1672026D01*
X-1350714Y-1655364D01*
X-1384037D01*
X-1400698Y-1672026D01*
Y-1705348D01*
X-1384037Y-1722010D01*
X-1300730D02*
Y-1655364D01*
X-1250747D01*
X-1234085Y-1672026D01*
Y-1722010D01*
X-1150779D02*
X-1184101D01*
X-1200763Y-1705348D01*
Y-1672026D01*
X-1184101Y-1655364D01*
X-1150779D01*
X-1134118Y-1672026D01*
Y-1688687D01*
X-1200763D01*
X-1100795Y-1722010D02*
Y-1655364D01*
X-1050811D01*
X-1034150Y-1672026D01*
Y-1722010D01*
X-984166Y-1638703D02*
Y-1655364D01*
X-1000827D01*
X-967505D01*
X-984166D01*
Y-1705348D01*
X-967505Y-1722010D01*
X-750908Y-1638703D02*
X-767569Y-1622042D01*
X-800891D01*
X-817553Y-1638703D01*
Y-1655364D01*
X-800891Y-1672026D01*
X-767569D01*
X-750908Y-1688687D01*
Y-1705348D01*
X-767569Y-1722010D01*
X-800891D01*
X-817553Y-1705348D01*
X-717585Y-1722010D02*
X-684263D01*
X-700924D01*
Y-1655364D01*
X-717585D01*
X-567634Y-1622042D02*
Y-1722010D01*
X-617617D01*
X-634279Y-1705348D01*
Y-1672026D01*
X-617617Y-1655364D01*
X-567634D01*
X-484327Y-1722010D02*
X-517649D01*
X-534311Y-1705348D01*
Y-1672026D01*
X-517649Y-1655364D01*
X-484327D01*
X-467666Y-1672026D01*
Y-1688687D01*
X-534311D01*
D40*
X1344631Y-663610D02*
D03*
X356630D02*
D03*
D41*
X0Y0D02*
D03*
D42*
X2775565Y-167145D02*
D03*
Y-294145D02*
D03*
Y-421145D02*
D03*
Y-548145D02*
D03*
Y-675145D02*
D03*
D43*
X2253200Y-239100D02*
D03*
X2185250D02*
D03*
D44*
X5629Y-222019D02*
D03*
X134100Y151300D02*
D03*
X308700Y-478600D02*
D03*
X660629Y14946D02*
D03*
Y-38194D02*
D03*
X2515076Y-85193D02*
D03*
X2435429Y-86044D02*
D03*
X2571885Y-85053D02*
D03*
X2303349Y-56641D02*
D03*
X2281452Y-121329D02*
D03*
X1485221Y164631D02*
D03*
X1260200Y-142363D02*
D03*
X1026488Y129283D02*
D03*
X1862215Y-131216D02*
D03*
X1791487D02*
D03*
X2378151Y125321D02*
D03*
X2441263Y126756D02*
D03*
X1533729Y-330556D02*
D03*
X711369Y-205304D02*
D03*
X2150177Y-420054D02*
D03*
X1787683Y-709609D02*
D03*
X1733617Y-660702D02*
D03*
X1700310Y-432835D02*
D03*
X2237309Y-81885D02*
D03*
X1836756Y-71189D02*
D03*
X1308711Y-518322D02*
D03*
X2746519Y126757D02*
D03*
X-219371Y-108614D02*
D03*
X-179371Y-1108614D02*
D03*
X48449Y147676D02*
D03*
X1308711Y-463210D02*
D03*
X1959635Y-306303D02*
D03*
X220629Y-773614D02*
D03*
X-251456Y-347114D02*
D03*
X-248906Y-200584D02*
D03*
X-429371Y-108614D02*
D03*
X1080234Y-87075D02*
D03*
X203829Y98296D02*
D03*
X286530Y97400D02*
D03*
X217833Y-520818D02*
D03*
X-54176Y-1109640D02*
D03*
X220629Y-898614D02*
D03*
Y-648614D02*
D03*
X-103550Y-857793D02*
D03*
X-14880Y-857630D02*
D03*
X11532Y-1067098D02*
D03*
X39884Y-830861D02*
D03*
X767720Y-205450D02*
D03*
X1002111Y-89471D02*
D03*
X1053390Y-46364D02*
D03*
X55657Y-173150D02*
D03*
X-79588Y-142149D02*
D03*
X785447Y160111D02*
D03*
X1059155Y87969D02*
D03*
X2234390Y-445800D02*
D03*
X2563847Y-406309D02*
D03*
X1749473Y-525389D02*
D03*
X1700191Y-499880D02*
D03*
X1733617Y-578239D02*
D03*
X1308711Y-409999D02*
D03*
X1752200Y-447500D02*
D03*
D45*
X350629Y106386D02*
D03*
D46*
X2310000Y123000D02*
D03*
X1671000Y-617600D02*
D03*
X2096692Y-360874D02*
D03*
X2394356Y-489311D02*
D03*
X2470719Y-288784D02*
D03*
X-227400Y-822300D02*
D03*
X-124381Y149476D02*
D03*
X-39401Y-421304D02*
D03*
X-144201Y-420064D02*
D03*
X2369599Y-286824D02*
D03*
X1471937Y-629986D02*
D03*
X2116320Y-644370D02*
D03*
X-332200Y-211500D02*
D03*
X1171979Y-49214D02*
D03*
X58249Y-613964D02*
D03*
X-28550Y-1162230D02*
D03*
X-130071Y-26954D02*
D03*
D47*
X1455576Y-70182D02*
D03*
X1701807Y107098D02*
D03*
X1546968Y131474D02*
D03*
X1647455Y74459D02*
D03*
X1874000Y-410000D02*
D03*
X1848545Y94137D02*
D03*
X1792250Y-298731D02*
D03*
X1622236Y158269D02*
D03*
X1662235Y141959D02*
D03*
X2553157Y-229942D02*
D03*
X1897740Y-860000D02*
D03*
X1977400Y-643860D02*
D03*
X1887860Y-810000D02*
D03*
X1977400Y-558100D02*
D03*
X1855770Y-760000D02*
D03*
X1990739Y-506900D02*
D03*
X135629Y-208616D02*
D03*
D48*
X350629Y-178614D02*
D03*
X58299Y-548704D02*
D03*
%TF.MD5,9dcd4d0a02c262bc24e3e21c7aebf7ac*%
M02*
