G04 Layer_Color=7250688*
%FSLAX45Y45*%
%MOMM*%
%TF.FileFunction,Other,BRD_Outline*%
%TF.Part,Single*%
%TFFileComment,The blind Vias under BGA and Other Pads are Via-In-Pad (VIP)*%
G01*
G75*
%TA.AperFunction,NonConductor*%
%ADD39C,0.15000*%
%ADD145C,0.25400*%
D39*
X3599430Y-2022042D02*
Y-2122009D01*
X3649414D01*
X3666075Y-2105348D01*
Y-2088687D01*
X3649414Y-2072026D01*
X3599430D01*
X3649414D01*
X3666075Y-2055364D01*
Y-2038703D01*
X3649414Y-2022042D01*
X3599430D01*
X3699398Y-2122009D02*
Y-2022042D01*
X3749382D01*
X3766043Y-2038703D01*
Y-2072026D01*
X3749382Y-2088687D01*
X3699398D01*
X3732721D02*
X3766043Y-2122009D01*
X3799366Y-2022042D02*
Y-2122009D01*
X3849350D01*
X3866011Y-2105348D01*
Y-2038703D01*
X3849350Y-2022042D01*
X3799366D01*
X3899334Y-2138671D02*
X3965979D01*
X4049286Y-2022042D02*
X4015963D01*
X3999302Y-2038703D01*
Y-2105348D01*
X4015963Y-2122009D01*
X4049286D01*
X4065947Y-2105348D01*
Y-2038703D01*
X4049286Y-2022042D01*
X4099269Y-2055364D02*
Y-2105348D01*
X4115931Y-2122009D01*
X4165914D01*
Y-2055364D01*
X4215899Y-2038703D02*
Y-2055364D01*
X4199237D01*
X4232560D01*
X4215899D01*
Y-2105348D01*
X4232560Y-2122009D01*
X4282544D02*
X4315866D01*
X4299205D01*
Y-2022042D01*
X4282544D01*
X4365850Y-2122009D02*
X4399173D01*
X4382511D01*
Y-2055364D01*
X4365850D01*
X4449156Y-2122009D02*
Y-2055364D01*
X4499140D01*
X4515801Y-2072026D01*
Y-2122009D01*
X4599108D02*
X4565786D01*
X4549124Y-2105348D01*
Y-2072026D01*
X4565786Y-2055364D01*
X4599108D01*
X4615769Y-2072026D01*
Y-2088687D01*
X4549124D01*
D145*
X-436352Y-1231001D02*
G03*
X-430001Y-1232703I6352J11000D01*
G01*
X160000D02*
G03*
X161423Y-1232623I0J12703D01*
G01*
X-436391Y-1230979D02*
G03*
X-430001Y-1232703I6390J10978D01*
G01*
X160000D02*
G03*
X161423Y-1232623I0J12703D01*
G01*
X170324Y-1231619D02*
G03*
X173095Y-1230987I-1424J12623D01*
G01*
X170324Y-1231619D02*
G03*
X173095Y-1230987I-1424J12623D01*
G01*
X181550Y-1228028D02*
G03*
X184113Y-1226794I-4195J11990D01*
G01*
X191697Y-1222029D02*
G03*
X193920Y-1220255I-6758J10756D01*
G01*
X181550Y-1228028D02*
G03*
X184113Y-1226794I-4195J11990D01*
G01*
X191697Y-1222029D02*
G03*
X193964Y-1220212I-6758J10756D01*
G01*
X200254Y-1213921D02*
G03*
X202048Y-1211666I-8982J8982D01*
G01*
X200211Y-1213965D02*
G03*
X202028Y-1211697I-8939J9025D01*
G01*
X206774Y-1204144D02*
G03*
X208028Y-1201550I-10736J6790D01*
G01*
X206794Y-1204112D02*
G03*
X208041Y-1201510I-10756J6758D01*
G01*
X210972Y-1193137D02*
G03*
X211620Y-1190323I-11975J4236D01*
G01*
X210986Y-1193097D02*
G03*
X211620Y-1190323I-11989J4196D01*
G01*
X-512704Y-1179584D02*
G03*
X-506314Y-1190607I12703J0D01*
G01*
X-512704Y-1179584D02*
G03*
X-506353Y-1190585I12703J0D01*
G01*
X212622Y-1181421D02*
G03*
X212702Y-1179999I-12623J1422D01*
G01*
X212622Y-1181421D02*
G03*
X212702Y-1179999I-12623J1422D01*
G01*
X399999Y-1012703D02*
G03*
X401423Y-1012623I0J12703D01*
G01*
X399999Y-1012703D02*
G03*
X401411Y-1012624I0J12703D01*
G01*
D02*
G03*
X401435Y-1012621I-1411J12624D01*
G01*
X410324Y-1011619D02*
G03*
X413096Y-1010986I-1423J12623D01*
G01*
X1298564Y-1012621D02*
G03*
X1298588Y-1012624I1435J12621D01*
G01*
D02*
G03*
X1299999Y-1012703I1411J12624D01*
G01*
X1286902Y-1010986D02*
G03*
X1289663Y-1011617I4196J11990D01*
G01*
D02*
G03*
X1289687Y-1011620I1435J12621D01*
G01*
X421550Y-1008027D02*
G03*
X424112Y-1006794I-4196J11990D01*
G01*
X431697Y-1002028D02*
G03*
X433964Y-1000211I-6758J10756D01*
G01*
X1275886Y-1006794D02*
G03*
X1278448Y-1008027I6758J10756D01*
G01*
X1266078Y-1000255D02*
G03*
X1268302Y-1002028I8982J8982D01*
G01*
X410312Y-1011620D02*
G03*
X410336Y-1011617I-1411J12624D01*
G01*
D02*
G03*
X413096Y-1010986I-1435J12621D01*
G01*
X421550Y-1008027D02*
G03*
X424112Y-1006794I-4196J11990D01*
G01*
X431697Y-1002028D02*
G03*
X433921Y-1000255I-6758J10756D01*
G01*
X440255Y-993921D02*
G03*
X442028Y-991697I-8982J8982D01*
G01*
X440211Y-993964D02*
G03*
X442028Y-991697I-8939J9025D01*
G01*
X1257970D02*
G03*
X1259744Y-993921I10756J6758D01*
G01*
X1257970Y-991697D02*
G03*
X1259787Y-993964I10756J6758D01*
G01*
X1286902Y-1010986D02*
G03*
X1289675Y-1011619I4196J11990D01*
G01*
X1266035Y-1000211D02*
G03*
X1268302Y-1002028I9025J8939D01*
G01*
X1275886Y-1006794D02*
G03*
X1278448Y-1008027I6758J10756D01*
G01*
X446793Y-984114D02*
G03*
X448028Y-981551I-10756J6758D01*
G01*
X446793Y-984114D02*
G03*
X448028Y-981551I-10756J6758D01*
G01*
X450986Y-973096D02*
G03*
X451619Y-970322I-11990J4195D01*
G01*
X1251971Y-981551D02*
G03*
X1253205Y-984114I11990J4195D01*
G01*
X1251971Y-981551D02*
G03*
X1253205Y-984114I11990J4195D01*
G01*
X452622Y-961422D02*
G03*
X452702Y-960000I-12623J1422D01*
G01*
X450986Y-973096D02*
G03*
X451619Y-970322I-11990J4195D01*
G01*
X452622Y-961422D02*
G03*
X452702Y-960000I-12623J1422D01*
G01*
X-506351Y170586D02*
G03*
X-512703Y159585I6351J-11001D01*
G01*
X-506351Y170586D02*
G03*
X-512703Y159585I6351J-11001D01*
G01*
X-430001Y212702D02*
G03*
X-436352Y211000I0J-12703D01*
G01*
X-430001Y212702D02*
G03*
X-436352Y211000I0J-12703D01*
G01*
X1247297Y-960000D02*
G03*
X1247377Y-961422I12703J0D01*
G01*
X1248380Y-970322D02*
G03*
X1249012Y-973096I12623J1422D01*
G01*
X1248380Y-970322D02*
G03*
X1249012Y-973096I12623J1422D01*
G01*
X1247297Y-960000D02*
G03*
X1247377Y-961422I12703J0D01*
G01*
X1515886Y-1226794D02*
G03*
X1518448Y-1228028I6758J10756D01*
G01*
X1526903Y-1230987D02*
G03*
X1529675Y-1231619I4195J11990D01*
G01*
X1515886Y-1226794D02*
G03*
X1518448Y-1228028I6758J10756D01*
G01*
X1526903Y-1230987D02*
G03*
X1529675Y-1231619I4195J11990D01*
G01*
X1538575Y-1232623D02*
G03*
X1539999Y-1232703I1424J12623D01*
G01*
X1538575Y-1232623D02*
G03*
X1539999Y-1232703I1424J12623D01*
G01*
X1506076Y-1220255D02*
G03*
X1508302Y-1222029I8983J8981D01*
G01*
X1497971Y-1211697D02*
G03*
X1499744Y-1213921I10756J6758D01*
G01*
X2214999Y-1232703D02*
G03*
X2216422Y-1232623I0J12703D01*
G01*
X2214999Y-1232703D02*
G03*
X2216410Y-1232624I0J12703D01*
G01*
D02*
G03*
X2216434Y-1232622I-1411J12624D01*
G01*
X2225312Y-1231621D02*
G03*
X2225335Y-1231618I-1411J12624D01*
G01*
D02*
G03*
X2228096Y-1230986I-1435J12621D01*
G01*
X2225323Y-1231619D02*
G03*
X2228096Y-1230986I-1423J12623D01*
G01*
X2236550Y-1228028D02*
G03*
X2239112Y-1226794I-4196J11990D01*
G01*
X2236550Y-1228028D02*
G03*
X2239112Y-1226794I-4196J11990D01*
G01*
X2246696Y-1222029D02*
G03*
X2248921Y-1220255I-6758J10756D01*
G01*
X2246696Y-1222029D02*
G03*
X2248964Y-1220212I-6758J10756D01*
G01*
X1491971Y-1201550D02*
G03*
X1493225Y-1204144I11989J4196D01*
G01*
X1488379Y-1190323D02*
G03*
X1489026Y-1193137I12623J1422D01*
G01*
X1491957Y-1201510D02*
G03*
X1493205Y-1204112I12003J4156D01*
G01*
X1506076Y-1220255D02*
G03*
X1508302Y-1222029I8983J8981D01*
G01*
X1497951Y-1211666D02*
G03*
X1499744Y-1213921I10776J6726D01*
G01*
X1487296Y-1179999D02*
G03*
X1487376Y-1181421I12703J0D01*
G01*
X1487296Y-1179999D02*
G03*
X1487376Y-1181421I12703J0D01*
G01*
X1488379Y-1190323D02*
G03*
X1489013Y-1193097I12623J1422D01*
G01*
X2255211Y-1213965D02*
G03*
X2257028Y-1211697I-8939J9025D01*
G01*
X2255254Y-1213921D02*
G03*
X2257048Y-1211666I-8982J8982D01*
G01*
X2402971Y-1211697D02*
G03*
X2404744Y-1213921I10756J6758D01*
G01*
X2402951Y-1211666D02*
G03*
X2404744Y-1213921I10776J6726D01*
G01*
X2411076Y-1220255D02*
G03*
X2413301Y-1222029I8983J8981D01*
G01*
X2420886Y-1226794D02*
G03*
X2423448Y-1228028I6758J10756D01*
G01*
X2411076Y-1220255D02*
G03*
X2413301Y-1222029I8983J8981D01*
G01*
X2431903Y-1230987D02*
G03*
X2434675Y-1231619I4195J11990D01*
G01*
X2420886Y-1226794D02*
G03*
X2423448Y-1228028I6758J10756D01*
G01*
X2261794Y-1204112D02*
G03*
X2263023Y-1201565I-10756J6758D01*
G01*
D02*
G03*
X2263034Y-1201533I-11984J4211D01*
G01*
X2261774Y-1204144D02*
G03*
X2263028Y-1201549I-10736J6790D01*
G01*
X2396971Y-1201550D02*
G03*
X2398225Y-1204144I11989J4196D01*
G01*
X2431903Y-1230987D02*
G03*
X2434675Y-1231619I4195J11990D01*
G01*
X2443575Y-1232623D02*
G03*
X2444999Y-1232703I1424J12623D01*
G01*
X2443575Y-1232623D02*
G03*
X2444999Y-1232703I1424J12623D01*
G01*
X2829999D02*
G03*
X2842701Y-1220001I0J12703D01*
G01*
X2829999Y-1232703D02*
G03*
X2842701Y-1220001I0J12703D01*
G01*
X2265980Y-1193111D02*
G03*
X2265991Y-1193080I-11984J4211D01*
G01*
D02*
G03*
X2266619Y-1190323I-11995J4179D01*
G01*
X2265986Y-1193096D02*
G03*
X2266619Y-1190323I-11990J4195D01*
G01*
X2267622Y-1181421D02*
G03*
X2267701Y-1179999I-12623J1422D01*
G01*
X2392296D02*
G03*
X2392376Y-1181421I12703J0D01*
G01*
X2267622D02*
G03*
X2267701Y-1179999I-12623J1422D01*
G01*
X2392296D02*
G03*
X2392376Y-1181421I12703J0D01*
G01*
X2393379Y-1190323D02*
G03*
X2394026Y-1193137I12623J1422D01*
G01*
X2396957Y-1201510D02*
G03*
X2398205Y-1204112I12003J4156D01*
G01*
X2393379Y-1190323D02*
G03*
X2394012Y-1193097I12623J1422D01*
G01*
X1298576Y-1012623D02*
G03*
X1299999Y-1012703I1423J12623D01*
G01*
X2842702Y200000D02*
G03*
X2830000Y212702I-12703J0D01*
G01*
X2842702Y200000D02*
G03*
X2830000Y212702I-12703J0D01*
G01*
X-430001Y-1232703D02*
X160000D01*
X-506353Y-1190585D02*
X-506314Y-1190607D01*
X-436391Y-1230979D01*
X-436352Y-1231001D01*
X161423Y-1232623D02*
X170324Y-1231619D01*
X173095Y-1230987D02*
X181550Y-1228028D01*
X184113Y-1226794D02*
X191697Y-1222029D01*
X193920Y-1220255D02*
X193964Y-1220212D01*
X200211Y-1213965D01*
X200254Y-1213921D01*
X202028Y-1211697D02*
X202048Y-1211666D01*
X206774Y-1204144D01*
X206794Y-1204112D01*
X208028Y-1201550D02*
X208041Y-1201510D01*
X210972Y-1193137D01*
X210986Y-1193097D01*
X-512704Y-1179584D02*
X-512703Y159585D01*
X211620Y-1190323D02*
X212622Y-1181421D01*
X212702Y-1179999D02*
Y-1040714D01*
X213465Y-1033944D01*
X215478Y-1028190D01*
X218721Y-1023028D01*
X223029Y-1018720D01*
X228191Y-1015477D01*
X233943Y-1013464D01*
X240711Y-1012703D01*
X399999D01*
X1289663Y-1011617D02*
X1289675Y-1011619D01*
X1289687Y-1011620D01*
X1298564Y-1012621D01*
X1298576Y-1012623D01*
X1298588Y-1012624D01*
X401411D02*
X401423Y-1012623D01*
X401435Y-1012621D01*
X410312Y-1011620D01*
X410324Y-1011619D01*
X410336Y-1011617D01*
X413096Y-1010986D02*
X421550Y-1008027D01*
X424112Y-1006794D02*
X431697Y-1002028D01*
X1268302D02*
X1275886Y-1006794D01*
X1278448Y-1008027D02*
X1286902Y-1010986D01*
X433921Y-1000255D02*
X433964Y-1000211D01*
X440211Y-993964D01*
X440255Y-993921D01*
X1266035Y-1000211D02*
X1266078Y-1000255D01*
X1259787Y-993964D02*
X1266035Y-1000211D01*
X1259744Y-993921D02*
X1259787Y-993964D01*
X442028Y-991697D02*
X446793Y-984114D01*
X1253205D02*
X1257970Y-991697D01*
X448028Y-981551D02*
X450986Y-973096D01*
X451619Y-970322D02*
X452622Y-961422D01*
X452702Y-960000D02*
Y-410713D01*
X453464Y-403943D01*
X455478Y-398190D01*
X458720Y-393030D01*
X463030Y-388721D01*
X468190Y-385478D01*
X-506351Y170586D02*
X-436352Y211000D01*
X468190Y-385478D02*
X473944Y-383465D01*
X480713Y-382701D01*
X1247377Y-961422D02*
X1248380Y-970322D01*
X1249012Y-973096D02*
X1251971Y-981551D01*
X1246534Y-403943D02*
X1247297Y-410713D01*
Y-960000D02*
Y-410713D01*
X1241278Y-393029D02*
X1244521Y-398190D01*
X1246534Y-403943D01*
X1231809Y-385478D02*
X1236970Y-388721D01*
X1241278Y-393029D01*
X480713Y-382701D02*
X1219286D01*
X1226055Y-383465D01*
X1231809Y-385478D01*
X-430001Y212702D02*
X2830000D01*
X1508302Y-1222029D02*
X1515886Y-1226794D01*
X1518448Y-1228028D02*
X1526903Y-1230987D01*
X1529675Y-1231619D02*
X1538575Y-1232623D01*
X1539999Y-1232703D02*
X2214999D01*
X1499744Y-1213921D02*
X1506076Y-1220255D01*
X1497951Y-1211666D02*
X1497971Y-1211697D01*
X1493225Y-1204144D02*
X1497951Y-1211666D01*
X1493205Y-1204112D02*
X1493225Y-1204144D01*
X2216410Y-1232624D02*
X2216422Y-1232623D01*
X2216434Y-1232622D01*
X2225312Y-1231621D01*
X2225323Y-1231619D01*
X2225335Y-1231618D01*
X2228096Y-1230986D02*
X2236550Y-1228028D01*
X2239112Y-1226794D02*
X2246696Y-1222029D01*
X2248921Y-1220255D02*
X2248964Y-1220212D01*
X2255211Y-1213965D01*
X2255254Y-1213921D01*
X1491957Y-1201510D02*
X1491971Y-1201550D01*
X1489026Y-1193137D02*
X1491957Y-1201510D01*
X1489013Y-1193097D02*
X1489026Y-1193137D01*
X1487376Y-1181421D02*
X1488379Y-1190323D01*
X1487296Y-1179999D02*
Y-1040714D01*
X2404744Y-1213921D02*
X2411076Y-1220255D01*
X2413301Y-1222029D02*
X2420886Y-1226794D01*
X2423448Y-1228028D02*
X2431903Y-1230987D01*
X2257028Y-1211697D02*
X2257048Y-1211666D01*
X2261774Y-1204144D01*
X2261794Y-1204112D01*
X2263023Y-1201565D02*
X2263028Y-1201549D01*
X2263034Y-1201533D01*
X2265980Y-1193111D01*
X2265986Y-1193096D01*
X2265991Y-1193080D01*
X2402951Y-1211666D02*
X2402971Y-1211697D01*
X2398225Y-1204144D02*
X2402951Y-1211666D01*
X2398205Y-1204112D02*
X2398225Y-1204144D01*
X2396957Y-1201510D02*
X2396971Y-1201550D01*
X2394026Y-1193137D02*
X2396957Y-1201510D01*
X2394012Y-1193097D02*
X2394026Y-1193137D01*
X2434675Y-1231619D02*
X2443575Y-1232623D01*
X2444999Y-1232703D02*
X2829999D01*
X2266619Y-1190323D02*
X2267622Y-1181421D01*
X2392296Y-1179999D02*
Y-1145665D01*
X2267701Y-1179999D02*
Y-1145666D01*
X2269132Y-1132061D01*
X2390867Y-1132062D02*
X2392296Y-1145665D01*
X2269132Y-1132061D02*
X2273151Y-1119690D01*
X2386847Y-1119690D02*
X2390867Y-1132062D01*
X2392376Y-1181421D02*
X2393379Y-1190323D01*
X2842701Y-1220001D02*
X2842702Y200000D01*
X1486534Y-1033944D02*
X1487296Y-1040714D01*
X1484520Y-1028190D02*
X1486534Y-1033944D01*
X1476970Y-1018720D02*
X1481277Y-1023028D01*
X1484520Y-1028190D01*
X1466056Y-1013464D02*
X1471808Y-1015477D01*
X1476970Y-1018720D01*
X1299999Y-1012703D02*
X1459287D01*
X1466056Y-1013464D01*
X2273151Y-1119690D02*
X2279657Y-1108423D01*
X2288361Y-1098755D01*
X2371638D02*
X2380342Y-1108423D01*
X2288361Y-1098755D02*
X2298885Y-1091110D01*
X2361114D02*
X2371638Y-1098755D01*
X2298885Y-1091110D02*
X2310770Y-1085818D01*
X2323495Y-1083113D01*
X2349229Y-1085818D02*
X2361114Y-1091110D01*
X2323495Y-1083113D02*
X2336504D01*
X2349229Y-1085818D01*
X2380342Y-1108423D02*
X2386847Y-1119690D01*
X2404999Y-1179999D02*
Y-1144999D01*
Y-1179999D02*
X2406002Y-1188901D01*
X2408960Y-1197354D01*
X2413726Y-1204939D01*
X2420059Y-1211273D01*
X2427644Y-1216038D01*
X2436099Y-1218997D01*
X2444999Y-1220001D01*
X2829999D01*
X2830000Y200000D01*
X-430001D02*
X2830000D01*
X-500000Y159585D02*
X-430001Y200000D01*
X-500001Y-1179584D02*
X-500000Y159585D01*
X-500001Y-1179584D02*
X-430001Y-1220001D01*
X160000D01*
X168900Y-1218997D01*
X177355Y-1216038D01*
X184938Y-1211273D01*
X191272Y-1204939D01*
X196038Y-1197354D01*
X198997Y-1188901D01*
X200000Y-1179999D01*
Y-1040000D01*
X201002Y-1031100D01*
X203961Y-1022645D01*
X208726Y-1015059D01*
X215060Y-1008725D01*
X222644Y-1003960D01*
X231098Y-1001002D01*
X240000Y-1000000D01*
X399999D01*
X408900Y-998996D01*
X417355Y-996038D01*
X424939Y-991273D01*
X431273Y-984939D01*
X436038Y-977355D01*
X438996Y-968900D01*
X439999Y-960000D01*
Y-409999D01*
X441002Y-401099D01*
X443961Y-392643D01*
X448727Y-385060D01*
X455060Y-378726D01*
X462644Y-373961D01*
X471099Y-371003D01*
X479999Y-369999D01*
X1220000D01*
X1228901Y-371003D01*
X1237355Y-373961D01*
X1244939Y-378726D01*
X1251273Y-385060D01*
X1256038Y-392643D01*
X1258997Y-401099D01*
X1260000Y-409999D01*
Y-960000D02*
Y-409999D01*
Y-960000D02*
X1261002Y-968900D01*
X1263961Y-977355D01*
X1268726Y-984939D01*
X1275060Y-991273D01*
X1282644Y-996038D01*
X1291098Y-998996D01*
X1299999Y-1000000D01*
X1459999D01*
X1468900Y-1001002D01*
X1477354Y-1003960D01*
X1484939Y-1008725D01*
X1491273Y-1015059D01*
X1496038Y-1022645D01*
X1498996Y-1031100D01*
X1499999Y-1040000D01*
Y-1179999D02*
Y-1040000D01*
Y-1179999D02*
X1501002Y-1188901D01*
X1503960Y-1197354D01*
X1508726Y-1204939D01*
X1515059Y-1211273D01*
X1522644Y-1216038D01*
X1531099Y-1218997D01*
X1539999Y-1220001D01*
X2214999D01*
X2223900Y-1218997D01*
X2232354Y-1216038D01*
X2239939Y-1211273D01*
X2246272Y-1204939D01*
X2251038Y-1197354D01*
X2253996Y-1188901D01*
X2254999Y-1179999D01*
Y-1144999D01*
X2256639Y-1129406D01*
X2261483Y-1114495D01*
X2269323Y-1100915D01*
X2279815Y-1089264D01*
X2292499Y-1080049D01*
X2306823Y-1073670D01*
X2322159Y-1070411D01*
X2337839D01*
X2353176Y-1073670D01*
X2367499Y-1080049D01*
X2380184Y-1089264D01*
X2390675Y-1100915D01*
X2398515Y-1114495D01*
X2403360Y-1129406D01*
X2404999Y-1144999D01*
%TF.MD5,97cdcff90d6e8cf90904804d1d8e8e26*%
M02*
