G04 Layer_Color=65535*
%FSLAX45Y45*%
%MOMM*%
%TF.FileFunction,Legend,Top*%
%TF.Part,Single*%
%TFFileComment,The blind Vias under BGA and Other Pads are Via-In-Pad (VIP)*%
G01*
G75*
%TA.AperFunction,NonConductor*%
%ADD38C,0.10000*%
%ADD39C,0.15000*%
%ADD90C,0.20000*%
%ADD145C,0.25400*%
%ADD146R,1.94900X1.75900*%
D38*
X17295Y-1197960D02*
G03*
X101843Y-1112598I2254J82319D01*
G01*
X-137742Y-1113413D02*
G03*
X-52380Y-1197960I82319J-2254D01*
G01*
X2031960Y-211750D02*
G03*
X2031960Y-211750I-5000J0D01*
G01*
X285629Y6386D02*
G03*
X285629Y6386I-5000J0D01*
G01*
X1572236Y-45541D02*
G03*
X1572236Y-45541I-5000J0D01*
G01*
X2160120Y-274980D02*
G03*
X2160120Y-274980I-5000J0D01*
G01*
X-452395Y-594482D02*
X-333495D01*
X-452495Y-340900D02*
X-333295D01*
X-452895Y-426600D02*
X-333595D01*
X-452795Y-508800D02*
X-333000D01*
X-452695Y-684100D02*
X-333100D01*
X-452795Y-758800D02*
Y-248782D01*
X-333100D01*
Y-758800D02*
Y-248782D01*
X-452795Y-758800D02*
X-333100D01*
X-52380Y-1197960D02*
X19549D01*
X-101304Y-1007960D02*
X-74880D01*
X45120D02*
X69426D01*
X-185562Y-1164929D02*
Y-1129297D01*
X-167746Y-1147113D01*
X-185562Y-1164929D02*
X-167746Y-1147113D01*
X-160448Y-1170724D02*
Y-1127365D01*
X2731063Y-63927D02*
Y66073D01*
X2356063D02*
X2731063D01*
X2356063Y-63927D02*
X2731063D01*
X2154120Y-356980D02*
Y-336980D01*
X2144120Y-349480D02*
X2174120D01*
X2141620Y-336980D02*
X2164120D01*
X2141620Y-361980D02*
Y-336980D01*
Y-361980D02*
X2164120D01*
X2176620Y-349480D01*
X2164120Y-336980D02*
X2176620Y-349480D01*
X1532900Y-1056700D02*
X1559558D01*
X1546229D01*
Y-976726D01*
X1532900Y-990055D01*
X1599545D02*
X1612874Y-976726D01*
X1639532D01*
X1652861Y-990055D01*
Y-1043371D01*
X1639532Y-1056700D01*
X1612874D01*
X1599545Y-1043371D01*
Y-990055D01*
X1732835Y-976726D02*
X1679519D01*
Y-1016713D01*
X1706177Y-1003384D01*
X1719507D01*
X1732835Y-1016713D01*
Y-1043371D01*
X1719507Y-1056700D01*
X1692849D01*
X1679519Y-1043371D01*
X1759494Y-990055D02*
X1772823Y-976726D01*
X1799481D01*
X1812810Y-990055D01*
Y-1003384D01*
X1799481Y-1016713D01*
X1786152D01*
X1799481D01*
X1812810Y-1030042D01*
Y-1043371D01*
X1799481Y-1056700D01*
X1772823D01*
X1759494Y-1043371D01*
X1892784Y-976726D02*
X1839468D01*
Y-1016713D01*
X1866126Y-1003384D01*
X1879455D01*
X1892784Y-1016713D01*
Y-1043371D01*
X1879455Y-1056700D01*
X1852797D01*
X1839468Y-1043371D01*
X1919442Y-990055D02*
X1932771Y-976726D01*
X1959429D01*
X1972758Y-990055D01*
Y-1003384D01*
X1959429Y-1016713D01*
X1972758Y-1030042D01*
Y-1043371D01*
X1959429Y-1056700D01*
X1932771D01*
X1919442Y-1043371D01*
Y-1030042D01*
X1932771Y-1016713D01*
X1919442Y-1003384D01*
Y-990055D01*
X1932771Y-1016713D02*
X1959429D01*
X1999416D02*
X2052732D01*
X2079390Y-990055D02*
X2092719Y-976726D01*
X2119378D01*
X2132706Y-990055D01*
Y-1003384D01*
X2119378Y-1016713D01*
X2106048D01*
X2119378D01*
X2132706Y-1030042D01*
Y-1043371D01*
X2119378Y-1056700D01*
X2092719D01*
X2079390Y-1043371D01*
X2159364Y-976726D02*
Y-1056700D01*
X2212681D01*
X2239339D02*
Y-1003384D01*
X2265997Y-976726D01*
X2292655Y-1003384D01*
Y-1056700D01*
Y-1016713D01*
X2239339D01*
X2319313Y-990055D02*
X2332642Y-976726D01*
X2359300D01*
X2372629Y-990055D01*
Y-1043371D01*
X2359300Y-1056700D01*
X2332642D01*
X2319313Y-1043371D01*
Y-990055D01*
X2399287D02*
X2412616Y-976726D01*
X2439274D01*
X2452603Y-990055D01*
Y-1043371D01*
X2439274Y-1056700D01*
X2412616D01*
X2399287Y-1043371D01*
Y-990055D01*
X2479261Y-1056700D02*
X2505919D01*
X2492590D01*
Y-976726D01*
X2479261Y-990055D01*
X2545907Y-1016713D02*
X2599223D01*
X2625881Y-990055D02*
X2639210Y-976726D01*
X2665868D01*
X2679197Y-990055D01*
Y-1043371D01*
X2665868Y-1056700D01*
X2639210D01*
X2625881Y-1043371D01*
Y-990055D01*
X2705855Y-1056700D02*
X2732513D01*
X2719184D01*
Y-976726D01*
X2705855Y-990055D01*
D39*
X1909000Y-160000D02*
Y-100000D01*
X881661Y-180969D02*
Y-214292D01*
Y-197630D01*
X964968D01*
X981629Y-214292D01*
Y-230953D01*
X964968Y-247614D01*
X981629Y-81001D02*
Y-147646D01*
X914984Y-81001D01*
X898323D01*
X881661Y-97662D01*
Y-130985D01*
X898323Y-147646D01*
Y-47679D02*
X881661Y-31017D01*
Y2305D01*
X898323Y18966D01*
X964968D01*
X981629Y2305D01*
Y-31017D01*
X964968Y-47679D01*
X898323D01*
X981629Y118934D02*
Y52289D01*
X914984Y118934D01*
X898323D01*
X881661Y102273D01*
Y68951D01*
X898323Y52289D01*
X2419535Y182602D02*
X2386212D01*
X2402874D01*
Y99295D01*
X2386212Y82634D01*
X2369551D01*
X2352890Y99295D01*
X2519503Y82634D02*
X2452858D01*
X2519503Y149279D01*
Y165940D01*
X2502842Y182602D01*
X2469519D01*
X2452858Y165940D01*
X2552825D02*
X2569487Y182602D01*
X2602809D01*
X2619471Y165940D01*
Y99295D01*
X2602809Y82634D01*
X2569487D01*
X2552825Y99295D01*
Y165940D01*
X2702777Y82634D02*
Y182602D01*
X2652793Y132618D01*
X2719438D01*
X2594899Y-651933D02*
Y-685256D01*
Y-668595D01*
X2678206D01*
X2694867Y-685256D01*
Y-701917D01*
X2678206Y-718578D01*
X2694867Y-551966D02*
Y-618611D01*
X2628222Y-551966D01*
X2611561D01*
X2594899Y-568627D01*
Y-601949D01*
X2611561Y-618611D01*
Y-518643D02*
X2594899Y-501981D01*
Y-468659D01*
X2611561Y-451998D01*
X2678206D01*
X2694867Y-468659D01*
Y-501981D01*
X2678206Y-518643D01*
X2611561D01*
Y-418675D02*
X2594899Y-402014D01*
Y-368691D01*
X2611561Y-352030D01*
X2628222D01*
X2644883Y-368691D01*
Y-385353D01*
Y-368691D01*
X2661545Y-352030D01*
X2678206D01*
X2694867Y-368691D01*
Y-402014D01*
X2678206Y-418675D01*
X1578340Y-640886D02*
Y-674209D01*
Y-657548D01*
X1661646D01*
X1678308Y-674209D01*
Y-690870D01*
X1661646Y-707531D01*
X1678308Y-557580D02*
X1578340D01*
X1628324Y-607564D01*
Y-540919D01*
X1595001Y-507596D02*
X1578340Y-490935D01*
Y-457612D01*
X1595001Y-440951D01*
X1661646D01*
X1678308Y-457612D01*
Y-490935D01*
X1661646Y-507596D01*
X1595001D01*
X1678308Y-407628D02*
Y-374306D01*
Y-390967D01*
X1578340D01*
X1595001Y-407628D01*
X1996900Y-774226D02*
Y-854200D01*
X2036887D01*
X2050216Y-840871D01*
Y-827542D01*
X2036887Y-814213D01*
X1996900D01*
X2036887D01*
X2050216Y-800884D01*
Y-787555D01*
X2036887Y-774226D01*
X1996900D01*
X2076874Y-854200D02*
Y-774226D01*
X2116861D01*
X2130190Y-787555D01*
Y-814213D01*
X2116861Y-827542D01*
X2076874D01*
X2103532D02*
X2130190Y-854200D01*
X2156848Y-774226D02*
Y-854200D01*
X2196836D01*
X2210164Y-840871D01*
Y-787555D01*
X2196836Y-774226D01*
X2156848D01*
X2316797Y-854200D02*
Y-800884D01*
X2356784D01*
X2370113Y-814213D01*
Y-854200D01*
X2410100D02*
X2436758D01*
X2450087Y-840871D01*
Y-814213D01*
X2436758Y-800884D01*
X2410100D01*
X2396771Y-814213D01*
Y-840871D01*
X2410100Y-854200D01*
X2476745Y-800884D02*
X2490074D01*
Y-814213D01*
X2476745D01*
Y-800884D01*
Y-840871D02*
X2490074D01*
Y-854200D01*
X2476745D01*
Y-840871D01*
X53800Y-955100D02*
Y-855132D01*
X87123Y-888455D01*
X120445Y-855132D01*
Y-955100D01*
X53800Y-726332D02*
Y-826300D01*
X120445D01*
X53800Y-598732D02*
Y-698700D01*
Y-665377D01*
X120445Y-598732D01*
X70461Y-648716D01*
X120445Y-698700D01*
Y-477432D02*
X87123D01*
X103784D01*
Y-560739D01*
X87123Y-577400D01*
X70461D01*
X53800Y-560739D01*
Y-344986D02*
X87123D01*
X70461D01*
Y-444954D01*
X53800D01*
X87123D01*
X4431Y-2408711D02*
X71076D01*
X37753D01*
Y-2508678D01*
X121060D02*
X154382D01*
X171044Y-2492017D01*
Y-2458695D01*
X154382Y-2442033D01*
X121060D01*
X104399Y-2458695D01*
Y-2492017D01*
X121060Y-2508678D01*
X204366Y-2542001D02*
Y-2442033D01*
X254350D01*
X271011Y-2458695D01*
Y-2492017D01*
X254350Y-2508678D01*
X204366D01*
X454286Y-2408711D02*
X420963D01*
X404302Y-2425372D01*
Y-2492017D01*
X420963Y-2508678D01*
X454286D01*
X470947Y-2492017D01*
Y-2425372D01*
X454286Y-2408711D01*
X504270Y-2442033D02*
X537592Y-2508678D01*
X570915Y-2442033D01*
X654221Y-2508678D02*
X620899D01*
X604238Y-2492017D01*
Y-2458695D01*
X620899Y-2442033D01*
X654221D01*
X670883Y-2458695D01*
Y-2475356D01*
X604238D01*
X704205Y-2442033D02*
Y-2508678D01*
Y-2475356D01*
X720867Y-2458695D01*
X737528Y-2442033D01*
X754189D01*
X804173Y-2508678D02*
X837496D01*
X820835D01*
Y-2408711D01*
X804173D01*
X904141Y-2442033D02*
X937463D01*
X954125Y-2458695D01*
Y-2508678D01*
X904141D01*
X887480Y-2492017D01*
X904141Y-2475356D01*
X954125D01*
X987447Y-2442033D02*
Y-2492017D01*
X1004109Y-2508678D01*
X1054092D01*
Y-2525340D01*
X1037431Y-2542001D01*
X1020770D01*
X1054092Y-2508678D02*
Y-2442033D01*
D90*
X1544000Y-835000D02*
Y-235000D01*
X1909000Y-970000D02*
Y-910000D01*
X138286Y-1162000D02*
Y-1133697D01*
X123519Y-1148464D02*
X151822D01*
X2238563Y-48927D02*
Y51073D01*
X2258563D01*
X2288563D02*
X2298563D01*
X2238563Y-48927D02*
X2258563D01*
X2288563D02*
X2298563Y-48927D01*
X2328563Y51073D02*
X2348563D01*
X2328563Y-48927D02*
X2348563D01*
D145*
X2788312Y-771145D02*
G03*
X2788312Y-771145I-12748J0D01*
G01*
X1145129Y386D02*
X1165129Y20386D01*
X1145129Y-139614D02*
X1165129Y-159614D01*
X1045129Y140386D02*
X1075129D01*
X975129D02*
X1005129D01*
X905129D02*
X935129D01*
X835129D02*
X865129D01*
X765129D02*
X795129D01*
X1195129Y100386D02*
Y130386D01*
Y40386D02*
Y70386D01*
X1125129Y-49614D02*
Y-19614D01*
X1125129Y-119614D02*
Y-89614D01*
X1195129Y-209614D02*
Y-179614D01*
Y-269614D02*
Y-239614D01*
X735129Y100386D02*
Y130386D01*
Y40386D02*
Y70386D01*
Y-269614D02*
Y-239614D01*
X765129Y-269614D02*
X795129D01*
X835129D02*
X865129D01*
X905129D02*
X935129D01*
X975129D02*
X1005129D01*
X1045129D02*
X1075129D01*
X735129Y-209614D02*
Y-179614D01*
X1966500Y-202500D02*
X1996500Y-232500D01*
X1966500Y-202500D02*
X1996500Y-172500D01*
Y-232500D02*
Y-172500D01*
D146*
X2604950Y-826850D02*
D03*
%TF.MD5,4060582a628cbe0db2d691e8a433825b*%
M02*
