G04 Layer_Color=128*
%FSLAX45Y45*%
%MOMM*%
%TF.FileFunction,Drillmap*%
%TF.Part,Single*%
%TFFileComment,The blind Vias under BGA and Other Pads are Via-In-Pad (VIP)*%
G01*
G75*
%TA.AperFunction,NonConductor*%
%ADD39C,0.15000*%
%ADD155C,0.12700*%
D39*
X3599430Y-2822042D02*
Y-2922009D01*
X3649414D01*
X3666075Y-2905348D01*
Y-2838703D01*
X3649414Y-2822042D01*
X3599430D01*
X3699398Y-2855364D02*
Y-2922009D01*
Y-2888687D01*
X3716060Y-2872025D01*
X3732721Y-2855364D01*
X3749382D01*
X3799366Y-2922009D02*
X3832689D01*
X3816027D01*
Y-2855364D01*
X3799366D01*
X3882672Y-2922009D02*
X3915995D01*
X3899334D01*
Y-2822042D01*
X3882672D01*
X3965979Y-2922009D02*
X3999301D01*
X3982640D01*
Y-2822042D01*
X3965979D01*
X4215898Y-2838703D02*
X4199237Y-2822042D01*
X4165914D01*
X4149253Y-2838703D01*
Y-2905348D01*
X4165914Y-2922009D01*
X4199237D01*
X4215898Y-2905348D01*
Y-2872025D01*
X4182576D01*
X4249221Y-2855364D02*
Y-2905348D01*
X4265882Y-2922009D01*
X4315866D01*
Y-2855364D01*
X4349189Y-2922009D02*
X4382511D01*
X4365850D01*
Y-2855364D01*
X4349189D01*
X4499140Y-2822042D02*
Y-2922009D01*
X4449156D01*
X4432495Y-2905348D01*
Y-2872025D01*
X4449156Y-2855364D01*
X4499140D01*
X4582447Y-2922009D02*
X4549124D01*
X4532463Y-2905348D01*
Y-2872025D01*
X4549124Y-2855364D01*
X4582447D01*
X4599108Y-2872025D01*
Y-2888687D01*
X4532463D01*
D155*
X1371668Y-91370D02*
X1386668D01*
X1379168Y-98870D02*
Y-83870D01*
X1402941Y-134768D02*
X1417940D01*
X1410440Y-142268D02*
Y-127268D01*
X1369772Y159770D02*
X1384771D01*
X1377272Y152270D02*
Y167269D01*
X1342667Y52393D02*
X1357666D01*
X1350166Y44893D02*
Y59893D01*
X2152952Y-6434D02*
X2167951D01*
X2160452Y-13934D02*
Y1066D01*
X1152832Y-125063D02*
X1167831D01*
X1160331Y-132563D02*
Y-117563D01*
%TF.MD5,6c21cad9b22c1bfe2034291bbd78466a*%
M02*
