G04 Layer_Color=128*
%FSLAX45Y45*%
%MOMM*%
%TF.FileFunction,Drillmap*%
%TF.Part,Single*%
%TFFileComment,The blind Vias under BGA and Other Pads are Via-In-Pad (VIP)*%
G01*
G75*
%TA.AperFunction,NonConductor*%
%ADD39C,0.15000*%
%ADD155C,0.12700*%
D39*
X3599430Y-2822042D02*
Y-2922009D01*
X3649414D01*
X3666075Y-2905348D01*
Y-2838703D01*
X3649414Y-2822042D01*
X3599430D01*
X3699398Y-2855364D02*
Y-2922009D01*
Y-2888687D01*
X3716060Y-2872025D01*
X3732721Y-2855364D01*
X3749382D01*
X3799366Y-2922009D02*
X3832689D01*
X3816027D01*
Y-2855364D01*
X3799366D01*
X3882672Y-2922009D02*
X3915995D01*
X3899334D01*
Y-2822042D01*
X3882672D01*
X3965979Y-2922009D02*
X3999301D01*
X3982640D01*
Y-2822042D01*
X3965979D01*
X4215898Y-2838703D02*
X4199237Y-2822042D01*
X4165914D01*
X4149253Y-2838703D01*
Y-2905348D01*
X4165914Y-2922009D01*
X4199237D01*
X4215898Y-2905348D01*
Y-2872025D01*
X4182576D01*
X4249221Y-2855364D02*
Y-2905348D01*
X4265882Y-2922009D01*
X4315866D01*
Y-2855364D01*
X4349189Y-2922009D02*
X4382511D01*
X4365850D01*
Y-2855364D01*
X4349189D01*
X4499140Y-2822042D02*
Y-2922009D01*
X4449156D01*
X4432495Y-2905348D01*
Y-2872025D01*
X4449156Y-2855364D01*
X4499140D01*
X4582447Y-2922009D02*
X4549124D01*
X4532463Y-2905348D01*
Y-2872025D01*
X4549124Y-2855364D01*
X4582447D01*
X4599108Y-2872025D01*
Y-2888687D01*
X4532463D01*
D155*
X1703989Y-88605D02*
X1713989D01*
X1708989Y-93605D02*
Y-83605D01*
X1401991Y-240211D02*
X1411991D01*
X1406991Y-245211D02*
Y-235211D01*
X1614582Y-245211D02*
X1624582D01*
X1619582Y-250211D02*
Y-240211D01*
X1968917Y11836D02*
X1978917D01*
X1973917Y6836D02*
Y16836D01*
X2645059Y-103734D02*
X2655059D01*
X2650059Y-108734D02*
Y-98734D01*
X1623979Y-367894D02*
X1633979D01*
X1628979Y-372894D02*
Y-362894D01*
X2496469Y11836D02*
X2506469D01*
X2501469Y6836D02*
Y16836D01*
X1120629Y121386D02*
X1130629D01*
X1125629Y116386D02*
Y126386D01*
X825629Y16386D02*
X835629D01*
X830629Y11386D02*
Y21386D01*
X865629Y16386D02*
X875629D01*
X870629Y11386D02*
Y21386D01*
X945629Y-63614D02*
X955629D01*
X950629Y-68614D02*
Y-58614D01*
X945629Y-103614D02*
X955629D01*
X950629Y-108614D02*
Y-98614D01*
X865629Y-63614D02*
X875629D01*
X870629Y-68614D02*
Y-58614D01*
X785629Y-103614D02*
X795629D01*
X790629Y-108614D02*
Y-98614D01*
X229759Y-347514D02*
X239759D01*
X234759Y-352514D02*
Y-342514D01*
X322449Y-253821D02*
X332449D01*
X327449Y-258821D02*
Y-248821D01*
X923162Y-155602D02*
X933162D01*
X928162Y-160602D02*
Y-150602D01*
X905629Y-23614D02*
X915629D01*
X910629Y-28614D02*
Y-18614D01*
X825629Y-63614D02*
X835629D01*
X830629Y-68614D02*
Y-58614D01*
X905629Y-63614D02*
X915629D01*
X910629Y-68614D02*
Y-58614D01*
X905629Y16386D02*
X915629D01*
X910629Y11386D02*
Y21386D01*
X2660200Y27900D02*
X2670200D01*
X2665200Y22900D02*
Y32900D01*
%TF.MD5,2cb011aa71614bc600ebcb034250a1a6*%
M02*
