G04 Layer_Physical_Order=3*
G04 Layer_Color=32768*
%FSLAX45Y45*%
%MOMM*%
%TF.FileFunction,Copper,L3,Inr,Plane*%
%TF.Part,Single*%
%TFFileComment,The blind Vias under BGA and Other Pads are Via-In-Pad (VIP)*%
G01*
G75*
%TA.AperFunction,NonConductor*%
%ADD38C,0.10000*%
%ADD39C,0.15000*%
%ADD49C,1.01600*%
%ADD50R,1.19695X1.59819*%
%ADD51R,1.18498X2.54099*%
%ADD52R,3.08611X1.58476*%
%ADD53R,7.13141X2.40441*%
%ADD54R,11.77963X3.13884*%
%ADD55R,3.97552X5.25117*%
%TA.AperFunction,ComponentPad*%
%ADD56O,1.20000X2.50000*%
%TA.AperFunction,ViaPad*%
%ADD57C,2.10000*%
%TA.AperFunction,ComponentPad*%
%ADD58C,1.20000*%
%TA.AperFunction,ViaPad*%
%ADD59C,0.80000*%
%ADD60C,0.75000*%
D38*
X-333100Y-758800D02*
Y-248782D01*
X-452700Y-758800D02*
Y-250082D01*
X-421041Y-579582D02*
X-434370Y-566253D01*
Y-539595D01*
X-421041Y-526266D01*
X-407712D01*
X-394383Y-539595D01*
Y-552924D01*
Y-539595D01*
X-381054Y-526266D01*
X-367725D01*
X-354396Y-539595D01*
Y-566253D01*
X-367725Y-579582D01*
D39*
X-1733924Y-2438703D02*
X-1750586Y-2422042D01*
X-1783908D01*
X-1800569Y-2438703D01*
Y-2505348D01*
X-1783908Y-2522009D01*
X-1750586D01*
X-1733924Y-2505348D01*
Y-2472026D01*
X-1767247D01*
X-1700602Y-2455364D02*
Y-2522009D01*
Y-2488687D01*
X-1683940Y-2472026D01*
X-1667279Y-2455364D01*
X-1650618D01*
X-1583972Y-2522009D02*
X-1550650D01*
X-1533989Y-2505348D01*
Y-2472026D01*
X-1550650Y-2455364D01*
X-1583972D01*
X-1600634Y-2472026D01*
Y-2505348D01*
X-1583972Y-2522009D01*
X-1500666Y-2455364D02*
Y-2505348D01*
X-1484005Y-2522009D01*
X-1434021D01*
Y-2455364D01*
X-1400698Y-2522009D02*
Y-2455364D01*
X-1350714D01*
X-1334053Y-2472026D01*
Y-2522009D01*
X-1234085Y-2422042D02*
Y-2522009D01*
X-1284069D01*
X-1300730Y-2505348D01*
Y-2472026D01*
X-1284069Y-2455364D01*
X-1234085D01*
X-1100795Y-2522009D02*
Y-2422042D01*
X-1050811D01*
X-1034150Y-2438703D01*
Y-2472026D01*
X-1050811Y-2488687D01*
X-1100795D01*
X-1000827Y-2522009D02*
X-967505D01*
X-984166D01*
Y-2422042D01*
X-1000827D01*
X-900859Y-2455364D02*
X-867537D01*
X-850876Y-2472026D01*
Y-2522009D01*
X-900859D01*
X-917521Y-2505348D01*
X-900859Y-2488687D01*
X-850876D01*
X-817553Y-2522009D02*
Y-2455364D01*
X-767569D01*
X-750908Y-2472026D01*
Y-2522009D01*
X-667601D02*
X-700924D01*
X-717585Y-2505348D01*
Y-2472026D01*
X-700924Y-2455364D01*
X-667601D01*
X-650940Y-2472026D01*
Y-2488687D01*
X-717585D01*
X-484327Y-2522009D02*
X-517649Y-2488687D01*
Y-2455364D01*
X-484327Y-2422042D01*
X-367698Y-2438703D02*
X-384359Y-2422042D01*
X-417682D01*
X-434343Y-2438703D01*
Y-2505348D01*
X-417682Y-2522009D01*
X-384359D01*
X-367698Y-2505348D01*
Y-2472026D01*
X-401021D01*
X-334375Y-2522009D02*
Y-2422042D01*
X-267730Y-2522009D01*
Y-2422042D01*
X-234407D02*
Y-2522009D01*
X-184424D01*
X-167762Y-2505348D01*
Y-2438703D01*
X-184424Y-2422042D01*
X-234407D01*
X-134440Y-2522009D02*
X-101117Y-2488687D01*
Y-2455364D01*
X-134440Y-2422042D01*
D49*
X2404999Y-1179999D02*
Y-1144999D01*
Y-1179999D02*
X2406002Y-1188901D01*
X2408960Y-1197354D01*
X2413726Y-1204939D01*
X2420059Y-1211273D01*
X2427644Y-1216038D01*
X2436099Y-1218997D01*
X2444999Y-1220001D01*
X2829999D01*
X2830000Y200000D01*
X-430001D02*
X2830000D01*
X-500000Y159585D02*
X-430001Y200000D01*
X-500001Y-1179584D02*
X-500000Y159585D01*
X-500001Y-1179584D02*
X-430001Y-1220001D01*
X160000D01*
X168900Y-1218997D01*
X177355Y-1216038D01*
X184938Y-1211273D01*
X191272Y-1204939D01*
X196038Y-1197354D01*
X198997Y-1188901D01*
X200000Y-1179999D01*
Y-1040000D01*
X201002Y-1031100D01*
X203961Y-1022645D01*
X208726Y-1015059D01*
X215060Y-1008725D01*
X222644Y-1003960D01*
X231098Y-1001002D01*
X240000Y-1000000D01*
X399999D01*
X408900Y-998996D01*
X417355Y-996038D01*
X424939Y-991273D01*
X431273Y-984939D01*
X436038Y-977355D01*
X438996Y-968900D01*
X439999Y-960000D01*
Y-409999D01*
X441002Y-401099D01*
X443961Y-392643D01*
X448727Y-385060D01*
X455060Y-378726D01*
X462644Y-373961D01*
X471099Y-371003D01*
X479999Y-369999D01*
X1220000D01*
X1228901Y-371003D01*
X1237355Y-373961D01*
X1244939Y-378726D01*
X1251273Y-385060D01*
X1256038Y-392643D01*
X1258997Y-401099D01*
X1260000Y-409999D01*
Y-960000D02*
Y-409999D01*
Y-960000D02*
X1261002Y-968900D01*
X1263961Y-977355D01*
X1268726Y-984939D01*
X1275060Y-991273D01*
X1282644Y-996038D01*
X1291098Y-998996D01*
X1299999Y-1000000D01*
X1459999D01*
X1468900Y-1001002D01*
X1477354Y-1003960D01*
X1484939Y-1008725D01*
X1491273Y-1015059D01*
X1496038Y-1022645D01*
X1498996Y-1031100D01*
X1499999Y-1040000D01*
Y-1179999D02*
Y-1040000D01*
Y-1179999D02*
X1501002Y-1188901D01*
X1503960Y-1197354D01*
X1508726Y-1204939D01*
X1515059Y-1211273D01*
X1522644Y-1216038D01*
X1531099Y-1218997D01*
X1539999Y-1220001D01*
X2214999D01*
X2223900Y-1218997D01*
X2232354Y-1216038D01*
X2239939Y-1211273D01*
X2246272Y-1204939D01*
X2251038Y-1197354D01*
X2253996Y-1188901D01*
X2254999Y-1179999D01*
Y-1144999D01*
X2256639Y-1129406D01*
X2261483Y-1114495D01*
X2269323Y-1100915D01*
X2279815Y-1089264D01*
X2292499Y-1080049D01*
X2306823Y-1073670D01*
X2322159Y-1070411D01*
X2337839D01*
X2353176Y-1073670D01*
X2367499Y-1080049D01*
X2380184Y-1089264D01*
X2390675Y-1100915D01*
X2398515Y-1114495D01*
X2403360Y-1129406D01*
X2404999Y-1144999D01*
D50*
X-392947Y-678891D02*
D03*
D51*
X-392348Y-377432D02*
D03*
D52*
X2337671Y-1012972D02*
D03*
D53*
X1878508Y-1086484D02*
D03*
D54*
X1874901Y-834197D02*
D03*
D55*
X2619907Y-939899D02*
D03*
D56*
X1344631Y-663610D02*
D03*
X356630D02*
D03*
D57*
X0Y0D02*
D03*
D58*
X2775565Y-167145D02*
D03*
Y-294145D02*
D03*
Y-421145D02*
D03*
Y-675145D02*
D03*
D59*
X2253200Y-239100D02*
D03*
X2185250D02*
D03*
D60*
X660629Y14946D02*
D03*
Y-38194D02*
D03*
X2515076Y-85193D02*
D03*
X2435429Y-86044D02*
D03*
X2571885Y-85053D02*
D03*
X2303349Y-56641D02*
D03*
X1485221Y164631D02*
D03*
X1260200Y-142363D02*
D03*
X1379168Y-91370D02*
D03*
X1026488Y129283D02*
D03*
X1410440Y-134768D02*
D03*
X1377272Y159770D02*
D03*
X1350166Y52393D02*
D03*
X1791487Y-131216D02*
D03*
X2160452Y-6434D02*
D03*
X2378151Y125321D02*
D03*
X2441263Y126756D02*
D03*
X1533729Y-330556D02*
D03*
X350629Y-178614D02*
D03*
X711369Y-205304D02*
D03*
X2150177Y-420054D02*
D03*
X1787683Y-709609D02*
D03*
X1733617Y-660702D02*
D03*
X1160331Y-125063D02*
D03*
X1700310Y-432835D02*
D03*
X2237309Y-81885D02*
D03*
X1836756Y-71189D02*
D03*
X1308711Y-518322D02*
D03*
X2746519Y126757D02*
D03*
X-219371Y-108614D02*
D03*
X-179371Y-1108614D02*
D03*
X48449Y147676D02*
D03*
X1308711Y-463210D02*
D03*
X1959635Y-306303D02*
D03*
X220629Y-773614D02*
D03*
X-251456Y-347114D02*
D03*
X-248906Y-200584D02*
D03*
X-429371Y-108614D02*
D03*
X203829Y98296D02*
D03*
X286530Y97400D02*
D03*
X217833Y-520818D02*
D03*
X-54176Y-1109640D02*
D03*
X220629Y-898614D02*
D03*
Y-648614D02*
D03*
X-103550Y-857793D02*
D03*
X-14880Y-857630D02*
D03*
X11532Y-1067098D02*
D03*
X39884Y-830861D02*
D03*
X58299Y-548704D02*
D03*
X767720Y-205450D02*
D03*
X1002111Y-89471D02*
D03*
X55657Y-173150D02*
D03*
X-79588Y-142149D02*
D03*
X785447Y160111D02*
D03*
X1059155Y87969D02*
D03*
X2234390Y-445800D02*
D03*
X2563847Y-406309D02*
D03*
X1749473Y-525389D02*
D03*
X1700191Y-499880D02*
D03*
X1733617Y-578239D02*
D03*
X1308711Y-409999D02*
D03*
%TF.MD5,96f585db45f7181b336983fb9665c83e*%
M02*
