G04 Layer_Color=2752767*
%FSLAX45Y45*%
%MOMM*%
%TF.FileFunction,Drawing*%
%TF.Part,Single*%
%TFFileComment,The blind Vias under BGA and Other Pads are Via-In-Pad (VIP)*%
G01*
G75*
%TA.AperFunction,NonConductor*%
%ADD39C,0.15000*%
%ADD155C,0.12700*%
%ADD156C,0.16933*%
D39*
X3599430Y-2422042D02*
Y-2522009D01*
X3649414D01*
X3666075Y-2505348D01*
Y-2438703D01*
X3649414Y-2422042D01*
X3599430D01*
X3699398Y-2455364D02*
Y-2522009D01*
Y-2488687D01*
X3716060Y-2472026D01*
X3732721Y-2455364D01*
X3749382D01*
X3799366Y-2522009D02*
X3832689D01*
X3816027D01*
Y-2455364D01*
X3799366D01*
X3882672Y-2522009D02*
X3915995D01*
X3899334D01*
Y-2422042D01*
X3882672D01*
X3965979Y-2522009D02*
X3999301D01*
X3982640D01*
Y-2422042D01*
X3965979D01*
X4149253D02*
Y-2522009D01*
X4199237D01*
X4215898Y-2505348D01*
Y-2438703D01*
X4199237Y-2422042D01*
X4149253D01*
X4249221Y-2455364D02*
Y-2522009D01*
Y-2488687D01*
X4265882Y-2472026D01*
X4282543Y-2455364D01*
X4299205D01*
X4365850D02*
X4399173D01*
X4415834Y-2472026D01*
Y-2522009D01*
X4365850D01*
X4349189Y-2505348D01*
X4365850Y-2488687D01*
X4415834D01*
X4449156Y-2455364D02*
Y-2505348D01*
X4465818Y-2522009D01*
X4482479Y-2505348D01*
X4499140Y-2522009D01*
X4515801Y-2505348D01*
Y-2455364D01*
X4549124Y-2522009D02*
X4582447D01*
X4565786D01*
Y-2455364D01*
X4549124D01*
X4632431Y-2522009D02*
Y-2455364D01*
X4682415D01*
X4699076Y-2472026D01*
Y-2522009D01*
X4765721Y-2555332D02*
X4782382D01*
X4799043Y-2538671D01*
Y-2455364D01*
X4749060D01*
X4732398Y-2472026D01*
Y-2505348D01*
X4749060Y-2522009D01*
X4799043D01*
D155*
X1293831Y-714410D02*
Y-612810D01*
X1395431D01*
Y-714410D01*
X1293831D01*
X305830D02*
Y-612810D01*
X407430D01*
Y-714410D01*
X305830D01*
X2775565Y-217945D02*
X2724765Y-116345D01*
X2826365D01*
X2775565Y-217945D01*
Y-344945D02*
X2724765Y-243345D01*
X2826365D01*
X2775565Y-344945D01*
Y-471945D02*
X2724765Y-370345D01*
X2826365D01*
X2775565Y-471945D01*
Y-598945D02*
X2724765Y-497345D01*
X2826365D01*
X2775565Y-598945D01*
Y-725945D02*
X2724765Y-624345D01*
X2826365D01*
X2775565Y-725945D01*
X2253200Y-289900D02*
X2278600Y-264500D01*
X2304000D01*
X2278600Y-239100D01*
X2304000Y-213700D01*
X2278600D01*
X2253200Y-188300D01*
X2227800Y-213700D01*
X2202400D01*
X2227800Y-239100D01*
X2202400Y-264500D01*
X2227800D01*
X2253200Y-289900D01*
X-45171Y-272819D02*
X-19771Y-222019D01*
X-45171Y-171219D01*
X5629Y-196619D01*
X56429Y-171219D01*
X31029Y-222019D01*
X56429Y-272819D01*
X5629Y-247419D01*
X-45171Y-272819D01*
X350629Y55586D02*
X376029Y80986D01*
X401429D01*
X376029Y106386D01*
X401429Y131786D01*
X376029D01*
X350629Y157186D01*
X325229Y131786D01*
X299829D01*
X325229Y106386D01*
X299829Y80986D01*
X325229D01*
X350629Y55586D01*
X83300Y100500D02*
X108700Y151300D01*
X83300Y202100D01*
X134100Y176700D01*
X184900Y202100D01*
X159500Y151300D01*
X184900Y100500D01*
X134100Y125900D01*
X83300Y100500D01*
X257900Y-529400D02*
X283300Y-478600D01*
X257900Y-427800D01*
X308700Y-453200D01*
X359500Y-427800D01*
X334100Y-478600D01*
X359500Y-529400D01*
X308700Y-504000D01*
X257900Y-529400D01*
X609829Y-35854D02*
X635229Y14946D01*
X609829Y65746D01*
X660629Y40346D01*
X711429Y65746D01*
X686029Y14946D01*
X711429Y-35854D01*
X660629Y-10454D01*
X609829Y-35854D01*
Y-88994D02*
X635229Y-38194D01*
X609829Y12606D01*
X660629Y-12794D01*
X711429Y12606D01*
X686029Y-38194D01*
X711429Y-88994D01*
X660629Y-63594D01*
X609829Y-88994D01*
X2464276Y-135993D02*
X2489676Y-85193D01*
X2464276Y-34393D01*
X2515076Y-59793D01*
X2565876Y-34393D01*
X2540476Y-85193D01*
X2565876Y-135993D01*
X2515076Y-110593D01*
X2464276Y-135993D01*
X2384629Y-136844D02*
X2410029Y-86044D01*
X2384629Y-35244D01*
X2435429Y-60644D01*
X2486229Y-35244D01*
X2460829Y-86044D01*
X2486229Y-136844D01*
X2435429Y-111444D01*
X2384629Y-136844D01*
X2521085Y-135853D02*
X2546485Y-85053D01*
X2521085Y-34253D01*
X2571885Y-59653D01*
X2622685Y-34253D01*
X2597285Y-85053D01*
X2622685Y-135853D01*
X2571885Y-110453D01*
X2521085Y-135853D01*
X2252549Y-107441D02*
X2277949Y-56641D01*
X2252549Y-5841D01*
X2303349Y-31241D01*
X2354149Y-5841D01*
X2328749Y-56641D01*
X2354149Y-107441D01*
X2303349Y-82041D01*
X2252549Y-107441D01*
X2230652Y-172129D02*
X2256052Y-121329D01*
X2230652Y-70529D01*
X2281452Y-95929D01*
X2332252Y-70529D01*
X2306852Y-121329D01*
X2332252Y-172129D01*
X2281452Y-146729D01*
X2230652Y-172129D01*
X2310000Y72200D02*
X2335400Y97600D01*
X2360800D01*
X2335400Y123000D01*
X2360800Y148400D01*
X2335400D01*
X2310000Y173800D01*
X2284600Y148400D01*
X2259200D01*
X2284600Y123000D01*
X2259200Y97600D01*
X2284600D01*
X2310000Y72200D01*
X1434421Y113831D02*
X1459821Y164631D01*
X1434421Y215431D01*
X1485221Y190031D01*
X1536021Y215431D01*
X1510621Y164631D01*
X1536021Y113831D01*
X1485221Y139231D01*
X1434421Y113831D01*
X1209400Y-193163D02*
X1234800Y-142363D01*
X1209400Y-91563D01*
X1260200Y-116963D01*
X1311000Y-91563D01*
X1285600Y-142363D01*
X1311000Y-193163D01*
X1260200Y-167763D01*
X1209400Y-193163D01*
X975688Y78483D02*
X1001088Y129283D01*
X975688Y180083D01*
X1026488Y154683D01*
X1077288Y180083D01*
X1051888Y129283D01*
X1077288Y78483D01*
X1026488Y103883D01*
X975688Y78483D01*
X1811415Y-182016D02*
X1836815Y-131216D01*
X1811415Y-80416D01*
X1862215Y-105816D01*
X1913015Y-80416D01*
X1887615Y-131216D01*
X1913015Y-182016D01*
X1862215Y-156616D01*
X1811415Y-182016D01*
X1740687D02*
X1766087Y-131216D01*
X1740687Y-80416D01*
X1791487Y-105816D01*
X1842287Y-80416D01*
X1816887Y-131216D01*
X1842287Y-182016D01*
X1791487Y-156616D01*
X1740687Y-182016D01*
X2327351Y74521D02*
X2352751Y125321D01*
X2327351Y176121D01*
X2378151Y150721D01*
X2428951Y176121D01*
X2403551Y125321D01*
X2428951Y74521D01*
X2378151Y99921D01*
X2327351Y74521D01*
X2390463Y75956D02*
X2415863Y126756D01*
X2390463Y177556D01*
X2441263Y152156D01*
X2492063Y177556D01*
X2466663Y126756D01*
X2492063Y75956D01*
X2441263Y101356D01*
X2390463Y75956D01*
X1482929Y-381356D02*
X1508329Y-330556D01*
X1482929Y-279756D01*
X1533729Y-305156D01*
X1584529Y-279756D01*
X1559129Y-330556D01*
X1584529Y-381356D01*
X1533729Y-355956D01*
X1482929Y-381356D01*
X299829Y-229414D02*
X325229Y-178614D01*
X299829Y-127814D01*
X350629Y-153214D01*
X401429Y-127814D01*
X376029Y-178614D01*
X401429Y-229414D01*
X350629Y-204014D01*
X299829Y-229414D01*
X660569Y-256104D02*
X685969Y-205304D01*
X660569Y-154504D01*
X711369Y-179904D01*
X762169Y-154504D01*
X736769Y-205304D01*
X762169Y-256104D01*
X711369Y-230704D01*
X660569Y-256104D01*
X2099377Y-470854D02*
X2124777Y-420054D01*
X2099377Y-369254D01*
X2150177Y-394654D01*
X2200977Y-369254D01*
X2175577Y-420054D01*
X2200977Y-470854D01*
X2150177Y-445454D01*
X2099377Y-470854D01*
X1671000Y-668400D02*
X1696400Y-643000D01*
X1721800D01*
X1696400Y-617600D01*
X1721800Y-592200D01*
X1696400D01*
X1671000Y-566800D01*
X1645600Y-592200D01*
X1620200D01*
X1645600Y-617600D01*
X1620200Y-643000D01*
X1645600D01*
X1671000Y-668400D01*
X1736883Y-760409D02*
X1762283Y-709609D01*
X1736883Y-658809D01*
X1787683Y-684209D01*
X1838483Y-658809D01*
X1813083Y-709609D01*
X1838483Y-760409D01*
X1787683Y-735009D01*
X1736883Y-760409D01*
X2096692Y-411674D02*
X2122092Y-386274D01*
X2147492D01*
X2122092Y-360874D01*
X2147492Y-335474D01*
X2122092D01*
X2096692Y-310074D01*
X2071292Y-335474D01*
X2045892D01*
X2071292Y-360874D01*
X2045892Y-386274D01*
X2071292D01*
X2096692Y-411674D01*
X1682817Y-711502D02*
X1708217Y-660702D01*
X1682817Y-609902D01*
X1733617Y-635302D01*
X1784417Y-609902D01*
X1759017Y-660702D01*
X1784417Y-711502D01*
X1733617Y-686102D01*
X1682817Y-711502D01*
X2394356Y-540111D02*
X2419756Y-514711D01*
X2445156D01*
X2419756Y-489311D01*
X2445156Y-463911D01*
X2419756D01*
X2394356Y-438511D01*
X2368956Y-463911D01*
X2343556D01*
X2368956Y-489311D01*
X2343556Y-514711D01*
X2368956D01*
X2394356Y-540111D01*
X1649510Y-483635D02*
X1674910Y-432835D01*
X1649510Y-382035D01*
X1700310Y-407435D01*
X1751110Y-382035D01*
X1725710Y-432835D01*
X1751110Y-483635D01*
X1700310Y-458235D01*
X1649510Y-483635D01*
X2186509Y-132685D02*
X2211909Y-81885D01*
X2186509Y-31085D01*
X2237309Y-56485D01*
X2288109Y-31085D01*
X2262709Y-81885D01*
X2288109Y-132685D01*
X2237309Y-107285D01*
X2186509Y-132685D01*
X1785956Y-121989D02*
X1811356Y-71189D01*
X1785956Y-20389D01*
X1836756Y-45789D01*
X1887556Y-20389D01*
X1862156Y-71189D01*
X1887556Y-121989D01*
X1836756Y-96589D01*
X1785956Y-121989D01*
X2185250Y-289900D02*
X2210650Y-264500D01*
X2236050D01*
X2210650Y-239100D01*
X2236050Y-213700D01*
X2210650D01*
X2185250Y-188300D01*
X2159850Y-213700D01*
X2134450D01*
X2159850Y-239100D01*
X2134450Y-264500D01*
X2159850D01*
X2185250Y-289900D01*
X2470719Y-339584D02*
X2496119Y-314184D01*
X2521519D01*
X2496119Y-288784D01*
X2521519Y-263384D01*
X2496119D01*
X2470719Y-237984D01*
X2445319Y-263384D01*
X2419919D01*
X2445319Y-288784D01*
X2419919Y-314184D01*
X2445319D01*
X2470719Y-339584D01*
X1257911Y-569122D02*
X1283311Y-518322D01*
X1257911Y-467522D01*
X1308711Y-492922D01*
X1359511Y-467522D01*
X1334111Y-518322D01*
X1359511Y-569122D01*
X1308711Y-543722D01*
X1257911Y-569122D01*
X2695719Y75957D02*
X2721119Y126757D01*
X2695719Y177557D01*
X2746519Y152157D01*
X2797319Y177557D01*
X2771919Y126757D01*
X2797319Y75957D01*
X2746519Y101357D01*
X2695719Y75957D01*
X-270171Y-159414D02*
X-244771Y-108614D01*
X-270171Y-57814D01*
X-219371Y-83214D01*
X-168571Y-57814D01*
X-193971Y-108614D01*
X-168571Y-159414D01*
X-219371Y-134014D01*
X-270171Y-159414D01*
X-230171Y-1159414D02*
X-204771Y-1108614D01*
X-230171Y-1057814D01*
X-179371Y-1083214D01*
X-128571Y-1057814D01*
X-153971Y-1108614D01*
X-128571Y-1159414D01*
X-179371Y-1134014D01*
X-230171Y-1159414D01*
X-2351Y96876D02*
X23049Y147676D01*
X-2351Y198476D01*
X48449Y173076D01*
X99249Y198476D01*
X73849Y147676D01*
X99249Y96876D01*
X48449Y122276D01*
X-2351Y96876D01*
X1257911Y-514010D02*
X1283311Y-463210D01*
X1257911Y-412410D01*
X1308711Y-437810D01*
X1359511Y-412410D01*
X1334111Y-463210D01*
X1359511Y-514010D01*
X1308711Y-488610D01*
X1257911Y-514010D01*
X-227400Y-873100D02*
X-202000Y-847700D01*
X-176600D01*
X-202000Y-822300D01*
X-176600Y-796900D01*
X-202000D01*
X-227400Y-771500D01*
X-252800Y-796900D01*
X-278200D01*
X-252800Y-822300D01*
X-278200Y-847700D01*
X-252800D01*
X-227400Y-873100D01*
X-124381Y98676D02*
X-98981Y124076D01*
X-73581D01*
X-98981Y149476D01*
X-73581Y174876D01*
X-98981D01*
X-124381Y200276D01*
X-149781Y174876D01*
X-175181D01*
X-149781Y149476D01*
X-175181Y124076D01*
X-149781D01*
X-124381Y98676D01*
X-39401Y-472104D02*
X-14001Y-446704D01*
X11399D01*
X-14001Y-421304D01*
X11399Y-395904D01*
X-14001D01*
X-39401Y-370504D01*
X-64801Y-395904D01*
X-90201D01*
X-64801Y-421304D01*
X-90201Y-446704D01*
X-64801D01*
X-39401Y-472104D01*
X-144201Y-470864D02*
X-118801Y-445464D01*
X-93401D01*
X-118801Y-420064D01*
X-93401Y-394664D01*
X-118801D01*
X-144201Y-369264D01*
X-169601Y-394664D01*
X-195001D01*
X-169601Y-420064D01*
X-195001Y-445464D01*
X-169601D01*
X-144201Y-470864D01*
X2369599Y-337624D02*
X2394999Y-312224D01*
X2420399D01*
X2394999Y-286824D01*
X2420399Y-261424D01*
X2394999D01*
X2369599Y-236024D01*
X2344199Y-261424D01*
X2318799D01*
X2344199Y-286824D01*
X2318799Y-312224D01*
X2344199D01*
X2369599Y-337624D01*
X1471937Y-680786D02*
X1497337Y-655386D01*
X1522737D01*
X1497337Y-629986D01*
X1522737Y-604586D01*
X1497337D01*
X1471937Y-579186D01*
X1446537Y-604586D01*
X1421137D01*
X1446537Y-629986D01*
X1421137Y-655386D01*
X1446537D01*
X1471937Y-680786D01*
X2116320Y-695170D02*
X2141720Y-669770D01*
X2167120D01*
X2141720Y-644370D01*
X2167120Y-618970D01*
X2141720D01*
X2116320Y-593570D01*
X2090920Y-618970D01*
X2065520D01*
X2090920Y-644370D01*
X2065520Y-669770D01*
X2090920D01*
X2116320Y-695170D01*
X1908835Y-357103D02*
X1934235Y-306303D01*
X1908835Y-255503D01*
X1959635Y-280903D01*
X2010435Y-255503D01*
X1985035Y-306303D01*
X2010435Y-357103D01*
X1959635Y-331703D01*
X1908835Y-357103D01*
X169829Y-824414D02*
X195229Y-773614D01*
X169829Y-722814D01*
X220629Y-748214D01*
X271429Y-722814D01*
X246029Y-773614D01*
X271429Y-824414D01*
X220629Y-799014D01*
X169829Y-824414D01*
X-302256Y-397914D02*
X-276856Y-347114D01*
X-302256Y-296314D01*
X-251456Y-321714D01*
X-200656Y-296314D01*
X-226056Y-347114D01*
X-200656Y-397914D01*
X-251456Y-372514D01*
X-302256Y-397914D01*
X-332200Y-262300D02*
X-306800Y-236900D01*
X-281400D01*
X-306800Y-211500D01*
X-281400Y-186100D01*
X-306800D01*
X-332200Y-160700D01*
X-357600Y-186100D01*
X-383000D01*
X-357600Y-211500D01*
X-383000Y-236900D01*
X-357600D01*
X-332200Y-262300D01*
X-299706Y-251384D02*
X-274306Y-200584D01*
X-299706Y-149784D01*
X-248906Y-175184D01*
X-198106Y-149784D01*
X-223506Y-200584D01*
X-198106Y-251384D01*
X-248906Y-225984D01*
X-299706Y-251384D01*
X-480171Y-159414D02*
X-454771Y-108614D01*
X-480171Y-57814D01*
X-429371Y-83214D01*
X-378571Y-57814D01*
X-403971Y-108614D01*
X-378571Y-159414D01*
X-429371Y-134014D01*
X-480171Y-159414D01*
X1029434Y-137875D02*
X1054834Y-87075D01*
X1029434Y-36275D01*
X1080234Y-61675D01*
X1131034Y-36275D01*
X1105634Y-87075D01*
X1131034Y-137875D01*
X1080234Y-112475D01*
X1029434Y-137875D01*
X1171979Y-100014D02*
X1197379Y-74614D01*
X1222779D01*
X1197379Y-49214D01*
X1222779Y-23814D01*
X1197379D01*
X1171979Y1586D01*
X1146579Y-23814D01*
X1121179D01*
X1146579Y-49214D01*
X1121179Y-74614D01*
X1146579D01*
X1171979Y-100014D01*
X153029Y47496D02*
X178429Y98296D01*
X153029Y149096D01*
X203829Y123696D01*
X254629Y149096D01*
X229229Y98296D01*
X254629Y47496D01*
X203829Y72896D01*
X153029Y47496D01*
X235730Y46600D02*
X261130Y97400D01*
X235730Y148200D01*
X286530Y122800D01*
X337330Y148200D01*
X311930Y97400D01*
X337330Y46600D01*
X286530Y72000D01*
X235730Y46600D01*
X167033Y-571618D02*
X192433Y-520818D01*
X167033Y-470018D01*
X217833Y-495418D01*
X268633Y-470018D01*
X243233Y-520818D01*
X268633Y-571618D01*
X217833Y-546218D01*
X167033Y-571618D01*
X-104976Y-1160440D02*
X-79576Y-1109640D01*
X-104976Y-1058840D01*
X-54176Y-1084240D01*
X-3376Y-1058840D01*
X-28776Y-1109640D01*
X-3376Y-1160440D01*
X-54176Y-1135040D01*
X-104976Y-1160440D01*
X169829Y-949414D02*
X195229Y-898614D01*
X169829Y-847814D01*
X220629Y-873214D01*
X271429Y-847814D01*
X246029Y-898614D01*
X271429Y-949414D01*
X220629Y-924014D01*
X169829Y-949414D01*
Y-699414D02*
X195229Y-648614D01*
X169829Y-597814D01*
X220629Y-623214D01*
X271429Y-597814D01*
X246029Y-648614D01*
X271429Y-699414D01*
X220629Y-674014D01*
X169829Y-699414D01*
X58249Y-664764D02*
X83649Y-639364D01*
X109049D01*
X83649Y-613964D01*
X109049Y-588564D01*
X83649D01*
X58249Y-563164D01*
X32849Y-588564D01*
X7449D01*
X32849Y-613964D01*
X7449Y-639364D01*
X32849D01*
X58249Y-664764D01*
X-154350Y-908593D02*
X-128950Y-857793D01*
X-154350Y-806993D01*
X-103550Y-832393D01*
X-52750Y-806993D01*
X-78150Y-857793D01*
X-52750Y-908593D01*
X-103550Y-883193D01*
X-154350Y-908593D01*
X-65680Y-908430D02*
X-40280Y-857630D01*
X-65680Y-806830D01*
X-14880Y-832230D01*
X35920Y-806830D01*
X10520Y-857630D01*
X35920Y-908430D01*
X-14880Y-883030D01*
X-65680Y-908430D01*
X-28550Y-1213030D02*
X-3150Y-1187630D01*
X22250D01*
X-3150Y-1162230D01*
X22250Y-1136830D01*
X-3150D01*
X-28550Y-1111430D01*
X-53950Y-1136830D01*
X-79350D01*
X-53950Y-1162230D01*
X-79350Y-1187630D01*
X-53950D01*
X-28550Y-1213030D01*
X-39268Y-1117898D02*
X-13868Y-1067098D01*
X-39268Y-1016298D01*
X11532Y-1041698D01*
X62332Y-1016298D01*
X36932Y-1067098D01*
X62332Y-1117898D01*
X11532Y-1092498D01*
X-39268Y-1117898D01*
X-10916Y-881661D02*
X14484Y-830861D01*
X-10916Y-780061D01*
X39884Y-805461D01*
X90684Y-780061D01*
X65284Y-830861D01*
X90684Y-881661D01*
X39884Y-856261D01*
X-10916Y-881661D01*
X7499Y-599504D02*
X32899Y-548704D01*
X7499Y-497904D01*
X58299Y-523304D01*
X109099Y-497904D01*
X83699Y-548704D01*
X109099Y-599504D01*
X58299Y-574104D01*
X7499Y-599504D01*
X716920Y-256250D02*
X742320Y-205450D01*
X716920Y-154650D01*
X767720Y-180050D01*
X818520Y-154650D01*
X793120Y-205450D01*
X818520Y-256250D01*
X767720Y-230850D01*
X716920Y-256250D01*
X951311Y-140271D02*
X976711Y-89471D01*
X951311Y-38671D01*
X1002111Y-64071D01*
X1052911Y-38671D01*
X1027511Y-89471D01*
X1052911Y-140271D01*
X1002111Y-114871D01*
X951311Y-140271D01*
X1002590Y-97164D02*
X1027990Y-46364D01*
X1002590Y4436D01*
X1053390Y-20964D01*
X1104190Y4436D01*
X1078790Y-46364D01*
X1104190Y-97164D01*
X1053390Y-71764D01*
X1002590Y-97164D01*
X-130071Y-77754D02*
X-104671Y-52354D01*
X-79271D01*
X-104671Y-26954D01*
X-79271Y-1554D01*
X-104671D01*
X-130071Y23846D01*
X-155471Y-1554D01*
X-180871D01*
X-155471Y-26954D01*
X-180871Y-52354D01*
X-155471D01*
X-130071Y-77754D01*
X4857Y-223950D02*
X30257Y-173150D01*
X4857Y-122350D01*
X55657Y-147750D01*
X106457Y-122350D01*
X81057Y-173150D01*
X106457Y-223950D01*
X55657Y-198550D01*
X4857Y-223950D01*
X-130388Y-192949D02*
X-104988Y-142149D01*
X-130388Y-91349D01*
X-79588Y-116749D01*
X-28788Y-91349D01*
X-54188Y-142149D01*
X-28788Y-192949D01*
X-79588Y-167549D01*
X-130388Y-192949D01*
X734647Y109311D02*
X760047Y160111D01*
X734647Y210911D01*
X785447Y185511D01*
X836247Y210911D01*
X810847Y160111D01*
X836247Y109311D01*
X785447Y134711D01*
X734647Y109311D01*
X1008355Y37169D02*
X1033755Y87969D01*
X1008355Y138769D01*
X1059155Y113369D01*
X1109955Y138769D01*
X1084555Y87969D01*
X1109955Y37169D01*
X1059155Y62569D01*
X1008355Y37169D01*
X2183590Y-496600D02*
X2208990Y-445800D01*
X2183590Y-395000D01*
X2234390Y-420400D01*
X2285190Y-395000D01*
X2259790Y-445800D01*
X2285190Y-496600D01*
X2234390Y-471200D01*
X2183590Y-496600D01*
X2513047Y-457109D02*
X2538447Y-406309D01*
X2513047Y-355509D01*
X2563847Y-380909D01*
X2614647Y-355509D01*
X2589247Y-406309D01*
X2614647Y-457109D01*
X2563847Y-431709D01*
X2513047Y-457109D01*
X1698673Y-576189D02*
X1724073Y-525389D01*
X1698673Y-474589D01*
X1749473Y-499989D01*
X1800273Y-474589D01*
X1774873Y-525389D01*
X1800273Y-576189D01*
X1749473Y-550789D01*
X1698673Y-576189D01*
X1649391Y-550680D02*
X1674791Y-499880D01*
X1649391Y-449080D01*
X1700191Y-474480D01*
X1750991Y-449080D01*
X1725591Y-499880D01*
X1750991Y-550680D01*
X1700191Y-525280D01*
X1649391Y-550680D01*
X1682817Y-629039D02*
X1708217Y-578239D01*
X1682817Y-527439D01*
X1733617Y-552839D01*
X1784417Y-527439D01*
X1759017Y-578239D01*
X1784417Y-629039D01*
X1733617Y-603639D01*
X1682817Y-629039D01*
X1257911Y-460799D02*
X1283311Y-409999D01*
X1257911Y-359199D01*
X1308711Y-384599D01*
X1359511Y-359199D01*
X1334111Y-409999D01*
X1359511Y-460799D01*
X1308711Y-435399D01*
X1257911Y-460799D01*
X1701400Y-498300D02*
X1726800Y-447500D01*
X1701400Y-396700D01*
X1752200Y-422100D01*
X1803000Y-396700D01*
X1777600Y-447500D01*
X1803000Y-498300D01*
X1752200Y-472900D01*
X1701400Y-498300D01*
D156*
X50800Y0D02*
G03*
X50800Y0I-50800J0D01*
G01*
%TF.MD5,13ea4e5e76b5ca3f787b3d56b086e5d8*%
M02*
