G04 Layer_Color=128*
%FSLAX45Y45*%
%MOMM*%
%TF.FileFunction,Paste,Bot*%
%TF.Part,Single*%
%TFFileComment,The blind Vias under BGA and Other Pads are Via-In-Pad (VIP)*%
G01*
G75*
%TA.AperFunction,SMDPad,CuDef*%
%ADD28R,0.40000X0.60000*%
%ADD29R,0.60000X0.40000*%
%ADD31R,0.76200X0.76200*%
%ADD32R,0.56000X0.52000*%
%ADD33R,0.52000X0.56000*%
%TA.AperFunction,NonConductor*%
%ADD39C,0.15000*%
%TA.AperFunction,SMDPad,CuDef*%
%ADD67R,0.62000X0.52000*%
%ADD68R,0.43000X1.05000*%
%TA.AperFunction,SMDPad,SMDef*%
G04:AMPARAMS|DCode=69|XSize=0.195mm|YSize=0.6mm|CornerRadius=0.04875mm|HoleSize=0mm|Usage=FLASHONLY|Rotation=0.000|XOffset=0mm|YOffset=0mm|HoleType=Round|Shape=RoundedRectangle|*
%AMROUNDEDRECTD69*
21,1,0.19500,0.50250,0,0,0.0*
21,1,0.09750,0.60000,0,0,0.0*
1,1,0.09750,0.04875,-0.25125*
1,1,0.09750,-0.04875,-0.25125*
1,1,0.09750,-0.04875,0.25125*
1,1,0.09750,0.04875,0.25125*
%
%ADD69ROUNDEDRECTD69*%
%TA.AperFunction,SMDPad,CuDef*%
G04:AMPARAMS|DCode=73|XSize=0.25mm|YSize=0.5mm|CornerRadius=0.0625mm|HoleSize=0mm|Usage=FLASHONLY|Rotation=270.000|XOffset=0mm|YOffset=0mm|HoleType=Round|Shape=RoundedRectangle|*
%AMROUNDEDRECTD73*
21,1,0.25000,0.37500,0,0,270.0*
21,1,0.12500,0.50000,0,0,270.0*
1,1,0.12500,-0.18750,-0.06250*
1,1,0.12500,-0.18750,0.06250*
1,1,0.12500,0.18750,0.06250*
1,1,0.12500,0.18750,-0.06250*
%
%ADD73ROUNDEDRECTD73*%
%ADD74R,0.50000X0.80000*%
%ADD75R,1.00000X1.25000*%
%ADD76R,1.10000X1.25000*%
%ADD77R,0.60000X0.50000*%
%ADD78R,0.52000X0.62000*%
%TA.AperFunction,BGAPad,CuDef*%
%ADD80C,0.40640*%
%TA.AperFunction,SMDPad,CuDef*%
%ADD81R,0.73660X0.40640*%
%ADD82R,0.78740X0.40640*%
%ADD83R,0.40640X0.78740*%
%ADD84R,1.50000X0.55000*%
%ADD85R,0.55000X1.50000*%
%ADD86R,0.85000X0.90000*%
%TA.AperFunction,SMDPad,SMDef*%
G04:AMPARAMS|DCode=92|XSize=0.14mm|YSize=0.29mm|CornerRadius=0.02mm|HoleSize=0mm|Usage=FLASHONLY|Rotation=270.000|XOffset=0mm|YOffset=0mm|HoleType=Round|Shape=RoundedRectangle|*
%AMROUNDEDRECTD92*
21,1,0.14000,0.25000,0,0,270.0*
21,1,0.10000,0.29000,0,0,270.0*
1,1,0.04000,-0.12500,-0.05000*
1,1,0.04000,-0.12500,0.05000*
1,1,0.04000,0.12500,0.05000*
1,1,0.04000,0.12500,-0.05000*
%
%ADD92ROUNDEDRECTD92*%
%TA.AperFunction,SMDPad,CuDef*%
%ADD93R,0.10000X0.19000*%
G04:AMPARAMS|DCode=94|XSize=0.08mm|YSize=0.17mm|CornerRadius=0mm|HoleSize=0mm|Usage=FLASHONLY|Rotation=180.000|XOffset=0mm|YOffset=0mm|HoleType=Round|Shape=RoundedRectangle|*
%AMROUNDEDRECTD94*
21,1,0.08000,0.17000,0,0,180.0*
21,1,0.08000,0.17000,0,0,180.0*
1,1,0.00000,-0.04000,0.08500*
1,1,0.00000,0.04000,0.08500*
1,1,0.00000,0.04000,-0.08500*
1,1,0.00000,-0.04000,-0.08500*
%
%ADD94ROUNDEDRECTD94*%
%TA.AperFunction,BGAPad,SMDef*%
%ADD95C,0.15000*%
%ADD96C,0.23000*%
D28*
X1082629Y16386D02*
D03*
X1172629D02*
D03*
X1216629Y120386D02*
D03*
X1126629D02*
D03*
X2567459Y128876D02*
D03*
X2657459D02*
D03*
X1501969Y-18684D02*
D03*
X1411968D02*
D03*
X-354371Y-928614D02*
D03*
X-444371D02*
D03*
D29*
X42370Y-923614D02*
D03*
Y-1013614D02*
D03*
X-63501D02*
D03*
Y-923614D02*
D03*
X2765009Y52426D02*
D03*
Y-37574D02*
D03*
X55629Y-489954D02*
D03*
Y-399954D02*
D03*
X240429Y-347234D02*
D03*
Y-257234D02*
D03*
X-169371Y-923614D02*
D03*
Y-1013614D02*
D03*
D31*
X149919Y-262514D02*
D03*
Y-402214D02*
D03*
D32*
X909629Y151386D02*
D03*
X831629D02*
D03*
X2249039Y123876D02*
D03*
X2171039D02*
D03*
D33*
X55629Y-253584D02*
D03*
Y-331584D02*
D03*
D39*
X1799430Y-2022042D02*
Y-2122009D01*
X1849414D01*
X1866076Y-2105348D01*
Y-2088687D01*
X1849414Y-2072026D01*
X1799430D01*
X1849414D01*
X1866076Y-2055364D01*
Y-2038703D01*
X1849414Y-2022042D01*
X1799430D01*
X1916060Y-2122009D02*
X1949382D01*
X1966043Y-2105348D01*
Y-2072026D01*
X1949382Y-2055364D01*
X1916060D01*
X1899398Y-2072026D01*
Y-2105348D01*
X1916060Y-2122009D01*
X2016027Y-2038703D02*
Y-2055364D01*
X1999366D01*
X2032689D01*
X2016027D01*
Y-2105348D01*
X2032689Y-2122009D01*
X2099334Y-2038703D02*
Y-2055364D01*
X2082672D01*
X2115995D01*
X2099334D01*
Y-2105348D01*
X2115995Y-2122009D01*
X2182640D02*
X2215963D01*
X2232624Y-2105348D01*
Y-2072026D01*
X2215963Y-2055364D01*
X2182640D01*
X2165979Y-2072026D01*
Y-2105348D01*
X2182640Y-2122009D01*
X2265947D02*
Y-2055364D01*
X2282608D01*
X2299269Y-2072026D01*
Y-2122009D01*
Y-2072026D01*
X2315931Y-2055364D01*
X2332592Y-2072026D01*
Y-2122009D01*
X2465882D02*
Y-2022042D01*
X2515866D01*
X2532527Y-2038703D01*
Y-2072026D01*
X2515866Y-2088687D01*
X2465882D01*
X2582511Y-2055364D02*
X2615834D01*
X2632495Y-2072026D01*
Y-2122009D01*
X2582511D01*
X2565850Y-2105348D01*
X2582511Y-2088687D01*
X2632495D01*
X2665818Y-2122009D02*
X2715802D01*
X2732463Y-2105348D01*
X2715802Y-2088687D01*
X2682479D01*
X2665818Y-2072026D01*
X2682479Y-2055364D01*
X2732463D01*
X2782447Y-2038703D02*
Y-2055364D01*
X2765786D01*
X2799108D01*
X2782447D01*
Y-2105348D01*
X2799108Y-2122009D01*
X2899076D02*
X2865753D01*
X2849092Y-2105348D01*
Y-2072026D01*
X2865753Y-2055364D01*
X2899076D01*
X2915737Y-2072026D01*
Y-2088687D01*
X2849092D01*
D67*
X384900Y-365900D02*
D03*
Y-263900D02*
D03*
X463629Y-108614D02*
D03*
Y-210614D02*
D03*
D68*
X850631Y-305609D02*
D03*
X785630D02*
D03*
X915631D02*
D03*
X980631D02*
D03*
X720631D02*
D03*
D69*
X150919Y-155054D02*
D03*
X-289371Y-931114D02*
D03*
D73*
X243789Y-185554D02*
D03*
D74*
X-416871Y-1084615D02*
D03*
X-281871D02*
D03*
D75*
X-219371Y50386D02*
D03*
D76*
X-429371D02*
D03*
D77*
X1070789Y-133644D02*
D03*
Y-233644D02*
D03*
X625629Y-133614D02*
D03*
Y-233614D02*
D03*
D78*
X-140371Y-258614D02*
D03*
X-38371D02*
D03*
X646629Y-323614D02*
D03*
X544629D02*
D03*
D80*
X1589609Y-37694D02*
D03*
Y-103734D02*
D03*
Y-169774D02*
D03*
Y-235814D02*
D03*
Y-301854D02*
D03*
Y-367894D02*
D03*
Y-433934D02*
D03*
Y-499974D02*
D03*
Y-566014D02*
D03*
X2689429D02*
D03*
Y-499974D02*
D03*
Y-433934D02*
D03*
Y-367894D02*
D03*
Y-301854D02*
D03*
Y-235814D02*
D03*
Y-169774D02*
D03*
Y-103734D02*
D03*
Y-37694D02*
D03*
X2567509Y51206D02*
D03*
X2501469D02*
D03*
X2435429D02*
D03*
X2369389D02*
D03*
X2303349D02*
D03*
X2237309D02*
D03*
X2171269D02*
D03*
X2105229D02*
D03*
X2039189D02*
D03*
X1973149D02*
D03*
X1907109D02*
D03*
X1841069D02*
D03*
X1775029D02*
D03*
X1708989D02*
D03*
D81*
X1626439Y-37694D02*
D03*
X2652599D02*
D03*
D82*
X1628979Y-103734D02*
D03*
Y-169774D02*
D03*
Y-235814D02*
D03*
Y-301854D02*
D03*
Y-367894D02*
D03*
Y-433934D02*
D03*
Y-499974D02*
D03*
Y-566014D02*
D03*
X2650059D02*
D03*
Y-499974D02*
D03*
Y-433934D02*
D03*
Y-367894D02*
D03*
Y-301854D02*
D03*
Y-235814D02*
D03*
Y-169774D02*
D03*
Y-103734D02*
D03*
D83*
X2567509Y11836D02*
D03*
X2501469D02*
D03*
X2435429D02*
D03*
X2369389D02*
D03*
X2303349D02*
D03*
X2237309D02*
D03*
X2171269D02*
D03*
X2105229D02*
D03*
X2039189D02*
D03*
X1973149D02*
D03*
X1907109D02*
D03*
X1841069D02*
D03*
X1775029D02*
D03*
X1708989D02*
D03*
D84*
X-94566Y-347114D02*
D03*
Y-672114D02*
D03*
D85*
X138129Y26386D02*
D03*
X463129D02*
D03*
D86*
X675289Y141666D02*
D03*
X555289D02*
D03*
D92*
X110919Y-137554D02*
D03*
Y-172554D02*
D03*
X-249371Y-913614D02*
D03*
Y-948614D02*
D03*
D93*
X226289Y-120554D02*
D03*
D94*
X261289D02*
D03*
D95*
X910629Y-23614D02*
D03*
Y16386D02*
D03*
X870629D02*
D03*
X830629D02*
D03*
X950629Y-63614D02*
D03*
X910629D02*
D03*
X870629D02*
D03*
X830629D02*
D03*
X790629D02*
D03*
Y-23614D02*
D03*
Y16386D02*
D03*
D96*
X750629Y56386D02*
D03*
Y16386D02*
D03*
Y-23614D02*
D03*
Y-103614D02*
D03*
X790629Y56386D02*
D03*
Y-103614D02*
D03*
X830629Y56386D02*
D03*
Y-23614D02*
D03*
Y-103614D02*
D03*
X870629Y56386D02*
D03*
Y-23614D02*
D03*
Y-103614D02*
D03*
X910629Y56386D02*
D03*
Y-103614D02*
D03*
X950629Y56386D02*
D03*
Y16386D02*
D03*
Y-23614D02*
D03*
Y-103614D02*
D03*
X750629Y-63614D02*
D03*
%TF.MD5,ebca9e1179d13d790a62a11d4f3cf57a*%
M02*
