G04 Layer_Physical_Order=6*
G04 Layer_Color=16711680*
%FSLAX45Y45*%
%MOMM*%
%TF.FileFunction,Copper,L6,Bot,Signal*%
%TF.Part,Single*%
%TFFileComment,The blind Vias under BGA and Other Pads are Via-In-Pad (VIP)*%
G01*
G75*
%TA.AperFunction,SMDPad,CuDef*%
%ADD16C,1.00000*%
%ADD18C,0.50800*%
%ADD28R,0.40000X0.60000*%
%ADD29R,0.60000X0.40000*%
%ADD31R,0.76200X0.76200*%
%ADD32R,0.56000X0.52000*%
%ADD33R,0.52000X0.56000*%
%TA.AperFunction,Conductor*%
%ADD34C,0.12700*%
%ADD35C,0.25000*%
%ADD36C,0.20000*%
%ADD37C,0.15000*%
%TA.AperFunction,NonConductor*%
%ADD38C,0.10000*%
%ADD39C,0.15000*%
%TA.AperFunction,ComponentPad*%
%ADD40O,1.10000X2.40000*%
%TA.AperFunction,ViaPad*%
%ADD41C,1.50000*%
%TA.AperFunction,ComponentPad*%
%ADD42C,1.00000*%
%TA.AperFunction,ViaPad*%
%ADD43C,0.61000*%
%ADD44C,0.40100*%
%ADD45C,0.50000*%
%ADD46C,0.45100*%
%ADD47C,0.25000*%
%ADD48C,0.45000*%
%TA.AperFunction,SMDPad,CuDef*%
%ADD67R,0.62000X0.52000*%
%ADD68R,0.43000X1.05000*%
%TA.AperFunction,SMDPad,SMDef*%
G04:AMPARAMS|DCode=69|XSize=0.195mm|YSize=0.6mm|CornerRadius=0.04875mm|HoleSize=0mm|Usage=FLASHONLY|Rotation=0.000|XOffset=0mm|YOffset=0mm|HoleType=Round|Shape=RoundedRectangle|*
%AMROUNDEDRECTD69*
21,1,0.19500,0.50250,0,0,0.0*
21,1,0.09750,0.60000,0,0,0.0*
1,1,0.09750,0.04875,-0.25125*
1,1,0.09750,-0.04875,-0.25125*
1,1,0.09750,-0.04875,0.25125*
1,1,0.09750,0.04875,0.25125*
%
%ADD69ROUNDEDRECTD69*%
G04:AMPARAMS|DCode=70|XSize=0.2mm|YSize=0.35mm|CornerRadius=0.05mm|HoleSize=0mm|Usage=FLASHONLY|Rotation=270.000|XOffset=0mm|YOffset=0mm|HoleType=Round|Shape=RoundedRectangle|*
%AMROUNDEDRECTD70*
21,1,0.20000,0.25000,0,0,270.0*
21,1,0.10000,0.35000,0,0,270.0*
1,1,0.10000,-0.12500,-0.05000*
1,1,0.10000,-0.12500,0.05000*
1,1,0.10000,0.12500,0.05000*
1,1,0.10000,0.12500,-0.05000*
%
%ADD70ROUNDEDRECTD70*%
%TA.AperFunction,SMDPad,CuDef*%
%ADD71R,0.16000X0.25000*%
G04:AMPARAMS|DCode=72|XSize=0.16mm|YSize=0.25mm|CornerRadius=0.04mm|HoleSize=0mm|Usage=FLASHONLY|Rotation=180.000|XOffset=0mm|YOffset=0mm|HoleType=Round|Shape=RoundedRectangle|*
%AMROUNDEDRECTD72*
21,1,0.16000,0.17000,0,0,180.0*
21,1,0.08000,0.25000,0,0,180.0*
1,1,0.08000,-0.04000,0.08500*
1,1,0.08000,0.04000,0.08500*
1,1,0.08000,0.04000,-0.08500*
1,1,0.08000,-0.04000,-0.08500*
%
%ADD72ROUNDEDRECTD72*%
G04:AMPARAMS|DCode=73|XSize=0.25mm|YSize=0.5mm|CornerRadius=0.0625mm|HoleSize=0mm|Usage=FLASHONLY|Rotation=270.000|XOffset=0mm|YOffset=0mm|HoleType=Round|Shape=RoundedRectangle|*
%AMROUNDEDRECTD73*
21,1,0.25000,0.37500,0,0,270.0*
21,1,0.12500,0.50000,0,0,270.0*
1,1,0.12500,-0.18750,-0.06250*
1,1,0.12500,-0.18750,0.06250*
1,1,0.12500,0.18750,0.06250*
1,1,0.12500,0.18750,-0.06250*
%
%ADD73ROUNDEDRECTD73*%
%ADD74R,0.50000X0.80000*%
%ADD75R,1.00000X1.25000*%
%ADD76R,1.10000X1.25000*%
%ADD77R,0.60000X0.50000*%
%ADD78R,0.52000X0.62000*%
%TA.AperFunction,BGAPad,SMDef*%
%ADD79C,0.25000*%
%TA.AperFunction,BGAPad,CuDef*%
%ADD80C,0.40640*%
%TA.AperFunction,SMDPad,CuDef*%
%ADD81R,0.73660X0.40640*%
%ADD82R,0.78740X0.40640*%
%ADD83R,0.40640X0.78740*%
%ADD84R,1.50000X0.55000*%
%ADD85R,0.55000X1.50000*%
%ADD86R,0.85000X0.90000*%
G36*
X685629Y-63614D02*
X625629D01*
Y36386D01*
X685629D01*
Y-63614D01*
D02*
G37*
G36*
X1754709Y-41281D02*
X1772064D01*
Y-104806D01*
X1767876Y-107605D01*
X1760637Y-118438D01*
X1758096Y-131216D01*
X1760637Y-143995D01*
X1767876Y-154827D01*
X1778709Y-162066D01*
X1791487Y-164608D01*
X1804266Y-162066D01*
X1815098Y-154827D01*
X1822337Y-143995D01*
X1824879Y-131216D01*
X1822337Y-118438D01*
X1818667Y-112946D01*
X1819792Y-110636D01*
X1827064Y-102653D01*
X1836756Y-104580D01*
X1849534Y-102039D01*
X1860367Y-94800D01*
X1862053Y-92276D01*
X1874754Y-96129D01*
Y-111607D01*
X1876288Y-115311D01*
X1877070Y-119244D01*
X1880116Y-123801D01*
X1881591Y-131216D01*
X1880433Y-137033D01*
X1880708Y-138414D01*
X1880169Y-139715D01*
X1881704Y-143420D01*
X1882486Y-147352D01*
X1883657Y-148134D01*
X1884195Y-149435D01*
X1930979Y-196219D01*
X1930979Y-196221D01*
X1940700Y-200248D01*
X1940701Y-200246D01*
X2144522D01*
X2150769Y-212947D01*
X2144557Y-222244D01*
X2141204Y-239100D01*
X2144557Y-255956D01*
X2154105Y-270245D01*
X2168394Y-279793D01*
X2185250Y-283146D01*
X2202106Y-279793D01*
X2216395Y-270245D01*
X2222055D01*
X2236344Y-279793D01*
X2253200Y-283146D01*
X2270056Y-279793D01*
X2284345Y-270245D01*
X2293893Y-255956D01*
X2297246Y-239100D01*
X2293893Y-222244D01*
X2287681Y-212947D01*
X2293928Y-200246D01*
X2589902Y-200247D01*
X2597998Y-212947D01*
X2596943Y-215494D01*
Y-256134D01*
X2598252Y-259296D01*
X2592377Y-263222D01*
X2586763Y-271624D01*
X2584792Y-281534D01*
Y-289153D01*
X2650059D01*
Y-314553D01*
X2584792D01*
Y-322174D01*
X2586763Y-332085D01*
X2592377Y-340486D01*
X2598252Y-344412D01*
X2596943Y-347574D01*
Y-362460D01*
X2588273D01*
X2580840Y-363938D01*
X2574539Y-368148D01*
X2568787Y-373900D01*
X2563847Y-372917D01*
X2551069Y-375459D01*
X2540236Y-382697D01*
X2532997Y-393530D01*
X2530455Y-406309D01*
X2532997Y-419087D01*
X2540236Y-429920D01*
X2551069Y-437158D01*
X2563847Y-439700D01*
X2576625Y-437158D01*
X2588097Y-444768D01*
X2588641Y-447286D01*
X2588631Y-447303D01*
X2502679Y-533255D01*
X1791930D01*
X1782865Y-525389D01*
X1780323Y-512611D01*
X1773084Y-501778D01*
X1762251Y-494540D01*
X1749473Y-491998D01*
X1745135Y-492861D01*
X1731308Y-487210D01*
X1729166Y-484295D01*
X1723802Y-476268D01*
X1720459Y-474034D01*
Y-458760D01*
X1723921Y-456446D01*
X1731160Y-445613D01*
X1733701Y-432835D01*
X1731160Y-420056D01*
X1723921Y-409223D01*
X1713088Y-401985D01*
X1700310Y-399443D01*
X1690373Y-401420D01*
X1683411Y-395490D01*
X1680803Y-391379D01*
X1680823Y-391288D01*
X1682096Y-388214D01*
Y-347574D01*
X1680823Y-344500D01*
X1678720Y-334874D01*
X1680823Y-325248D01*
X1682096Y-322174D01*
Y-281534D01*
X1680823Y-278460D01*
X1678720Y-268834D01*
X1680823Y-259208D01*
X1682096Y-256134D01*
Y-215494D01*
X1680823Y-212420D01*
X1678720Y-202794D01*
X1680823Y-193168D01*
X1682096Y-190094D01*
Y-149454D01*
X1680823Y-146380D01*
X1678720Y-136754D01*
X1680823Y-127128D01*
X1682096Y-124054D01*
Y-115055D01*
X1682517Y-114655D01*
X1694796Y-109429D01*
X1699157Y-112343D01*
X1708989Y-114299D01*
X1718822Y-112343D01*
X1727157Y-106773D01*
X1732727Y-98438D01*
X1734683Y-88605D01*
X1732727Y-78773D01*
X1728412Y-72315D01*
Y-41281D01*
X1729309D01*
X1739029Y-37255D01*
X1744989Y-37254D01*
X1754709Y-41281D01*
D02*
G37*
G36*
X2633698Y171065D02*
X2627738Y168596D01*
X2623712Y158876D01*
Y98876D01*
X2627738Y89156D01*
X2637459Y85130D01*
X2677459D01*
X2687179Y89156D01*
X2691205Y98876D01*
Y103613D01*
X2722596D01*
X2722907Y103146D01*
X2730750Y97906D01*
X2730930Y86637D01*
X2730182Y84173D01*
X2725289Y82146D01*
X2721263Y72426D01*
Y32426D01*
X2725289Y22706D01*
X2735009Y18679D01*
X2795009D01*
X2801065Y21188D01*
X2813765Y15148D01*
Y-296D01*
X2801065Y-6336D01*
X2795009Y-3828D01*
X2735009D01*
X2725289Y-7854D01*
X2724627Y-9452D01*
X2723601Y-9852D01*
X2710782Y-12249D01*
X2702313Y-6590D01*
X2691285Y-4396D01*
X2689429Y-3628D01*
X2615769D01*
X2614276Y-4246D01*
X2601576Y4240D01*
Y51206D01*
X2600807Y53062D01*
X2598613Y64090D01*
X2591511Y74720D01*
X2592468Y87205D01*
X2597179Y89156D01*
X2601205Y98876D01*
Y158876D01*
X2597179Y168596D01*
X2591219Y171065D01*
X2593745Y183765D01*
X2631172D01*
X2633698Y171065D01*
D02*
G37*
G36*
X2150949Y-41281D02*
X2191589D01*
X2201309Y-37255D01*
X2206854Y-37254D01*
X2217886Y-42283D01*
Y-55475D01*
X2213698Y-58273D01*
X2206459Y-69106D01*
X2203918Y-81885D01*
X2206459Y-94663D01*
X2213698Y-105496D01*
X2224531Y-112734D01*
X2237309Y-115276D01*
X2250088Y-112734D01*
X2260921Y-105496D01*
X2268159Y-94663D01*
X2269570Y-87570D01*
X2272161Y-85705D01*
X2282738Y-82257D01*
X2290571Y-87491D01*
X2303349Y-90033D01*
X2316128Y-87491D01*
X2326226Y-80743D01*
X2330229Y-81593D01*
X2338948Y-85171D01*
X2339177Y-130951D01*
X2330220Y-139953D01*
X2286582D01*
X2285281Y-140492D01*
X2283901Y-140218D01*
X2281452Y-140705D01*
X2279004Y-140218D01*
X2277624Y-140492D01*
X2276323Y-139953D01*
X1963394Y-139953D01*
X1941246Y-117806D01*
Y-50230D01*
X1952829Y-41281D01*
X1993469D01*
X2003189Y-37255D01*
X2009149Y-37254D01*
X2018869Y-41281D01*
X2059509D01*
X2069229Y-37255D01*
X2075189Y-37254D01*
X2084909Y-41281D01*
X2125549D01*
X2135269Y-37255D01*
X2141229Y-37254D01*
X2150949Y-41281D01*
D02*
G37*
G36*
X1100869Y-257604D02*
X1112769Y-270604D01*
X1347349Y-270605D01*
X1347349Y-354720D01*
Y-648124D01*
X1343779Y-651694D01*
X1276234D01*
Y-409999D01*
X1275865Y-409108D01*
X1276132Y-408181D01*
X1275129Y-399281D01*
X1274214Y-397625D01*
X1274320Y-395736D01*
X1271362Y-387281D01*
X1270101Y-385871D01*
X1269784Y-384006D01*
X1265020Y-376423D01*
X1263477Y-375328D01*
X1262753Y-373580D01*
X1260999Y-371827D01*
X1261002Y-371003D01*
X1260172Y-371000D01*
X1256419Y-367247D01*
X1254671Y-366523D01*
X1253576Y-364979D01*
X1245991Y-360214D01*
X1244127Y-359898D01*
X1242718Y-358638D01*
X1234264Y-355679D01*
X1232375Y-355785D01*
X1230720Y-354870D01*
X1221819Y-353866D01*
X1220892Y-354134D01*
X1220000Y-353764D01*
X959139D01*
Y-262904D01*
X968119Y-253924D01*
X1040768Y-253925D01*
X1040769Y-210724D01*
X1100869D01*
Y-257604D01*
D02*
G37*
G36*
X675628Y-203615D02*
X675629Y-248614D01*
X742629Y-248615D01*
Y-353764D01*
X615629D01*
Y-303614D01*
X575629Y-263614D01*
X575629Y-212595D01*
X584609Y-203614D01*
X675628Y-203615D01*
D02*
G37*
G36*
X1003212Y-124696D02*
X1006150Y-125316D01*
X1014891Y-133269D01*
Y-158644D01*
X1004229Y-170141D01*
X954295D01*
X954294Y-170141D01*
X946861Y-171619D01*
X940559Y-175830D01*
X940559Y-175830D01*
X939337Y-177053D01*
X923077D01*
X915644Y-178531D01*
X909343Y-182742D01*
X852721Y-239363D01*
X829131D01*
X819411Y-243389D01*
X816850Y-243389D01*
X807130Y-239363D01*
X805054D01*
Y-223360D01*
X803575Y-215927D01*
X800071Y-210683D01*
X801112Y-205450D01*
X798570Y-192671D01*
X791331Y-181839D01*
X783802Y-176807D01*
X787654Y-164107D01*
X812559D01*
X819992Y-162629D01*
X826293Y-158418D01*
X844363Y-140348D01*
X848383Y-134332D01*
X855841Y-139315D01*
X870629Y-142257D01*
X885417Y-139315D01*
X897953Y-130939D01*
X900281Y-127455D01*
X900797Y-127352D01*
X910629Y-129308D01*
X920462Y-127352D01*
X924438Y-124695D01*
X936820D01*
X940796Y-127352D01*
X950629Y-129308D01*
X960462Y-127352D01*
X964438Y-124695D01*
X1003212D01*
Y-124696D01*
D02*
G37*
G36*
X-11191Y174177D02*
X-10827Y171065D01*
X-15479Y147676D01*
X-10613Y123212D01*
X3245Y102472D01*
X4320Y101753D01*
X4193Y101127D01*
X3498Y99182D01*
X-1795Y89276D01*
X-21373Y86699D01*
X-22982Y85770D01*
X-24840D01*
X-43084Y78212D01*
X-44398Y76899D01*
X-46192Y76418D01*
X-61859Y64396D01*
X-62788Y62788D01*
X-64396Y61859D01*
X-76418Y46192D01*
X-76899Y44398D01*
X-78212Y43084D01*
X-85770Y24840D01*
Y22982D01*
X-86699Y21373D01*
X-89276Y1794D01*
X-88795Y0D01*
X-89276Y-1794D01*
X-86699Y-21373D01*
X-85770Y-22982D01*
Y-24840D01*
X-78212Y-43084D01*
X-76899Y-44398D01*
X-76418Y-46192D01*
X-64396Y-61859D01*
X-62788Y-62788D01*
X-61859Y-64396D01*
X-46192Y-76418D01*
X-44398Y-76899D01*
X-43084Y-78212D01*
X-24840Y-85770D01*
X-22982D01*
X-21373Y-86699D01*
X-16498Y-87340D01*
X-12416Y-99367D01*
X-34547Y-121497D01*
X-53999D01*
X-55977Y-118537D01*
X-66810Y-111299D01*
X-79588Y-108757D01*
X-92367Y-111299D01*
X-103200Y-118537D01*
X-110438Y-129370D01*
X-112980Y-142149D01*
X-110438Y-154927D01*
X-103200Y-165760D01*
X-92367Y-172999D01*
X-79588Y-175540D01*
X-66810Y-172999D01*
X-55977Y-165760D01*
X-52358Y-160343D01*
X-26501D01*
X-19068Y-158865D01*
X-12767Y-154655D01*
X28414Y-113473D01*
X38957D01*
X46390Y-111995D01*
X51791Y-108386D01*
X63166Y-110046D01*
X69667Y-121277D01*
X67423Y-132554D01*
X58062Y-140237D01*
X55657Y-139758D01*
X42879Y-142300D01*
X32046Y-149538D01*
X24807Y-160371D01*
X22265Y-173150D01*
X24807Y-185928D01*
X25850Y-187489D01*
X20005Y-201601D01*
X19718Y-201658D01*
X17222Y-203325D01*
X5941Y-209302D01*
X-2461Y-203688D01*
X-12371Y-201717D01*
X-25672D01*
Y-258615D01*
X-51072D01*
Y-201717D01*
X-64371D01*
X-74282Y-203688D01*
X-82684Y-209302D01*
X-88298Y-217704D01*
X-89169Y-222084D01*
X-102376Y-223385D01*
X-104651Y-217894D01*
X-114371Y-213868D01*
X-166371D01*
X-176092Y-217894D01*
X-180118Y-227614D01*
Y-289614D01*
X-176092Y-299334D01*
X-179286Y-309894D01*
X-183313Y-319614D01*
Y-323969D01*
X-227533D01*
X-227845Y-323503D01*
X-238677Y-316264D01*
X-251456Y-313723D01*
X-264234Y-316264D01*
X-275067Y-323503D01*
X-282306Y-334336D01*
X-284848Y-347114D01*
X-282306Y-359893D01*
X-275067Y-370725D01*
X-264234Y-377964D01*
X-251456Y-380506D01*
X-238677Y-377964D01*
X-227845Y-370725D01*
X-227533Y-370259D01*
X-183313D01*
Y-374614D01*
X-179286Y-384334D01*
X-169566Y-388360D01*
X-19566D01*
X-9846Y-384334D01*
X-5820Y-374614D01*
Y-373974D01*
X2046Y-373041D01*
X11883Y-383115D01*
Y-419954D01*
X15909Y-429674D01*
X25629Y-433700D01*
X74304D01*
X78875Y-436303D01*
X82210Y-450065D01*
X78219Y-455597D01*
X77119Y-456208D01*
X25629D01*
X15909Y-460234D01*
X11883Y-469954D01*
Y-509954D01*
X15909Y-519674D01*
X19182Y-521030D01*
X25000Y-534639D01*
X24916Y-536105D01*
X22409Y-548704D01*
X25141Y-562439D01*
X32921Y-574082D01*
X44565Y-581862D01*
X58299Y-584594D01*
X72033Y-581862D01*
X83676Y-574082D01*
X91456Y-562439D01*
X94188Y-548704D01*
X91456Y-534970D01*
X95349Y-519674D01*
X99375Y-509954D01*
Y-476660D01*
X109831Y-466494D01*
X111109Y-466071D01*
X111819Y-466212D01*
X137219D01*
Y-402214D01*
X149919D01*
Y-389514D01*
X213917D01*
Y-380980D01*
X270429D01*
X280149Y-376954D01*
X284175Y-367234D01*
Y-327234D01*
X280149Y-317514D01*
X270429Y-313488D01*
X215133D01*
X206414Y-304115D01*
X205428Y-301813D01*
X206399Y-293673D01*
X210429Y-290980D01*
X270429D01*
X280149Y-286954D01*
X284175Y-277234D01*
Y-262403D01*
X296875Y-255504D01*
X302864Y-259390D01*
X303712Y-263653D01*
X309281Y-271989D01*
X317617Y-277558D01*
X327449Y-279514D01*
X327453Y-279514D01*
X340153Y-289752D01*
Y-289900D01*
X344180Y-299620D01*
X349671Y-301895D01*
X349178Y-306903D01*
X433500Y-307117D01*
X433500Y-148360D01*
X494629D01*
X502742Y-145000D01*
X504349Y-144334D01*
X508375Y-134614D01*
Y-82614D01*
X504349Y-72894D01*
X501368Y-71659D01*
X500349Y-58334D01*
X504375Y-48614D01*
Y63863D01*
X512789Y70768D01*
X556882D01*
Y-163614D01*
X560908Y-173334D01*
X570629Y-177361D01*
X584144D01*
X584609Y-189867D01*
X584609Y-189868D01*
X574889Y-193894D01*
X565908Y-202874D01*
X564629Y-205963D01*
X561882Y-212595D01*
X561882Y-212595D01*
X561882Y-263613D01*
X561882Y-263614D01*
X564629Y-270245D01*
Y-353764D01*
X479999D01*
X479107Y-354134D01*
X478179Y-353866D01*
X469279Y-354870D01*
X467625Y-355785D01*
X465737Y-355679D01*
X457282Y-358638D01*
X455871Y-359898D01*
X454006Y-360215D01*
X446423Y-364980D01*
X445328Y-366523D01*
X443581Y-367247D01*
X437247Y-373580D01*
X436523Y-375327D01*
X434981Y-376421D01*
X430215Y-384005D01*
X429898Y-385870D01*
X428637Y-387281D01*
X425678Y-395736D01*
X425785Y-397625D01*
X424869Y-399281D01*
X423867Y-408181D01*
X424134Y-409108D01*
X423764Y-409999D01*
Y-424252D01*
Y-554029D01*
X411064Y-558340D01*
X404915Y-550325D01*
X390773Y-539474D01*
X374304Y-532652D01*
X356630Y-530325D01*
X338957Y-532652D01*
X322488Y-539474D01*
X308346Y-550325D01*
X297495Y-564468D01*
X290673Y-580936D01*
X288346Y-598609D01*
Y-728610D01*
X290673Y-746283D01*
X297495Y-762752D01*
X308346Y-776894D01*
X322488Y-787745D01*
X338957Y-794567D01*
X356630Y-796894D01*
X374304Y-794567D01*
X390773Y-787745D01*
X404915Y-776894D01*
X411064Y-768879D01*
X423764Y-773190D01*
Y-959089D01*
X423068Y-965265D01*
X421318Y-970267D01*
X418500Y-974753D01*
X414753Y-978499D01*
X410266Y-981318D01*
X405264Y-983069D01*
X399088Y-983765D01*
X240000D01*
X239110Y-984134D01*
X238184Y-983867D01*
X229283Y-984869D01*
X227626Y-985785D01*
X225735Y-985678D01*
X217282Y-988637D01*
X215872Y-989897D01*
X214007Y-990214D01*
X206423Y-994979D01*
X205328Y-996522D01*
X203580Y-997246D01*
X197246Y-1003579D01*
X196522Y-1005328D01*
X194979Y-1006424D01*
X190214Y-1014009D01*
X189897Y-1015873D01*
X188637Y-1017283D01*
X185679Y-1025737D01*
X185785Y-1027626D01*
X184870Y-1029282D01*
X183867Y-1038182D01*
X184134Y-1039109D01*
X183765Y-1040000D01*
Y-1179088D01*
X183069Y-1185265D01*
X181319Y-1190265D01*
X178499Y-1194753D01*
X174752Y-1198500D01*
X170266Y-1201319D01*
X165264Y-1203069D01*
X159088Y-1203766D01*
X-425650D01*
X-483766Y-1170211D01*
X-483766Y-981439D01*
X-471267Y-974769D01*
X-463794Y-978972D01*
Y-1057115D01*
X-462316Y-1064548D01*
X-458105Y-1070849D01*
X-455618Y-1073337D01*
Y-1124614D01*
X-451591Y-1134335D01*
X-441871Y-1138361D01*
X-391871D01*
X-382151Y-1134335D01*
X-378125Y-1124614D01*
Y-1044615D01*
X-382151Y-1034894D01*
X-391871Y-1030868D01*
X-424948D01*
Y-972361D01*
X-424371D01*
X-414651Y-968334D01*
X-410625Y-958614D01*
Y-898614D01*
X-410681Y-898479D01*
X-404906Y-887676D01*
X-384167Y-873818D01*
X-370309Y-853079D01*
X-365443Y-828614D01*
X-370309Y-804150D01*
X-382940Y-785246D01*
X-379306Y-772546D01*
X-333100D01*
X-323380Y-768520D01*
X-319354Y-758800D01*
Y-247982D01*
X-323380Y-238261D01*
X-333100Y-234235D01*
X-452196D01*
X-461916Y-238261D01*
X-465942Y-247982D01*
Y-758800D01*
X-461916Y-768520D01*
X-461364Y-774127D01*
X-471167Y-781025D01*
X-483766Y-776046D01*
X-483766Y-161183D01*
X-471065Y-156164D01*
X-453835Y-167676D01*
X-429371Y-172542D01*
X-404907Y-167676D01*
X-384167Y-153818D01*
X-370309Y-133078D01*
X-365443Y-108614D01*
X-370309Y-84150D01*
X-384167Y-63410D01*
X-404907Y-49552D01*
X-409948Y-48549D01*
Y-25861D01*
X-374371D01*
X-364651Y-21835D01*
X-360625Y-12114D01*
Y112886D01*
X-364651Y122606D01*
X-374371Y126632D01*
X-483765D01*
Y150212D01*
X-425650Y183765D01*
X-16316D01*
X-11191Y174177D01*
D02*
G37*
G36*
X2543698Y171065D02*
X2537738Y168596D01*
X2533712Y158876D01*
Y98876D01*
X2537738Y89156D01*
X2535336Y78728D01*
X2525275Y75012D01*
X2514353Y82310D01*
X2501469Y84873D01*
X2497807Y84144D01*
X2490653Y91154D01*
X2488675Y95277D01*
X2490047Y98573D01*
X2490042Y98585D01*
X2490047Y98596D01*
Y154700D01*
X2488054Y159510D01*
X2486091Y164349D01*
X2486041Y164371D01*
X2486020Y164420D01*
X2481208Y166413D01*
X2476400Y168446D01*
X2361513Y169281D01*
X2361488Y169270D01*
X2361463Y169281D01*
X2356628Y167299D01*
X2351763Y165325D01*
X2351753Y165300D01*
X2351728Y165290D01*
X2342715Y156342D01*
X2342705Y156317D01*
X2342680Y156307D01*
X2340669Y151453D01*
X2338653Y146637D01*
X2338664Y146612D01*
X2338653Y146587D01*
Y80664D01*
X2331602Y77198D01*
X2325953Y75815D01*
X2316233Y82310D01*
X2311972Y83158D01*
X2303246Y86969D01*
X2302754Y96955D01*
X2302937Y97876D01*
Y111177D01*
X2249038D01*
Y136577D01*
X2302937D01*
Y149876D01*
X2300965Y159786D01*
X2295352Y168188D01*
X2291046Y171065D01*
X2294899Y183765D01*
X2541172D01*
X2543698Y171065D01*
D02*
G37*
G36*
X486891Y154365D02*
X555288D01*
Y128965D01*
X486891D01*
Y115132D01*
X435629D01*
X425909Y111106D01*
X421883Y101386D01*
Y-48614D01*
X424830Y-55731D01*
X419412Y-68431D01*
X181845D01*
X176427Y-55731D01*
X179375Y-48614D01*
Y59973D01*
X190490Y67087D01*
X192075Y67242D01*
X203829Y64904D01*
X216607Y67446D01*
X227440Y74684D01*
X234679Y85517D01*
X237221Y98296D01*
X234679Y111074D01*
X227440Y121907D01*
X216607Y129146D01*
X203829Y131687D01*
X191050Y129146D01*
X180218Y121907D01*
X177419Y117719D01*
X167359D01*
X159926Y116240D01*
X158267Y115132D01*
X117387D01*
X114754Y117286D01*
X108248Y126818D01*
X108238Y126866D01*
X112377Y147676D01*
X107725Y171065D01*
X108089Y174177D01*
X113214Y183765D01*
X486891D01*
Y154365D01*
D02*
G37*
G36*
X2476300Y154700D02*
Y98596D01*
X2467304Y89631D01*
X2390200Y89901D01*
X2389299Y89000D01*
X2389300Y77558D01*
Y-110700D01*
X2401600Y-123000D01*
X2556300D01*
X2583000Y-149700D01*
X2690700D01*
Y-186500D01*
X1940700Y-186500D01*
X1893916Y-139715D01*
X1895606Y-131216D01*
X1893065Y-118438D01*
X1888500Y-111607D01*
X1888500Y-29500D01*
X1886900Y-26300D01*
Y46719D01*
X1895880Y55700D01*
X1927500Y55700D01*
Y-123500D01*
X1957700Y-153700D01*
X2276323Y-153700D01*
X2281452Y-154720D01*
X2286582Y-153700D01*
X2353038D01*
X2352400Y-26200D01*
Y146587D01*
X2361413Y155534D01*
X2476300Y154700D01*
D02*
G37*
G36*
X1910922Y172564D02*
X1906398Y165794D01*
X1901532Y141330D01*
X1906398Y116866D01*
X1920256Y96126D01*
X1922215Y94817D01*
X1917260Y82854D01*
X1907109Y84873D01*
X1894225Y82310D01*
X1883303Y75012D01*
X1881726Y72652D01*
X1866452D01*
X1864875Y75012D01*
X1853953Y82310D01*
X1841069Y84873D01*
X1828185Y82310D01*
X1817263Y75012D01*
X1815686Y72652D01*
X1800412D01*
X1798835Y75012D01*
X1787913Y82310D01*
X1775029Y84873D01*
X1762145Y82310D01*
X1751223Y75012D01*
X1749646Y72652D01*
X1734372D01*
X1732795Y75012D01*
X1721873Y82310D01*
X1708989Y84873D01*
X1696105Y82310D01*
X1685183Y75012D01*
X1677885Y64090D01*
X1675691Y53062D01*
X1674923Y51206D01*
Y5292D01*
X1663269Y-3628D01*
X1589609D01*
X1587753Y-4396D01*
X1576725Y-6590D01*
X1565803Y-13888D01*
X1565361Y-14549D01*
X1535715D01*
Y11316D01*
X1531689Y21036D01*
X1521969Y25062D01*
X1481969D01*
X1472248Y21036D01*
X1468222Y11316D01*
Y-48684D01*
X1472248Y-58405D01*
X1481969Y-62431D01*
X1521969D01*
X1525812Y-60839D01*
X1559137D01*
X1563972Y-72626D01*
X1563721Y-74157D01*
X1556625Y-81157D01*
X1446718D01*
X1439285Y-82635D01*
X1432984Y-86846D01*
X1392535Y-127294D01*
X1388325Y-133596D01*
X1386847Y-141029D01*
Y-198232D01*
X1387568Y-201857D01*
Y-223921D01*
X1383253Y-230378D01*
X1381297Y-240211D01*
X1383253Y-250043D01*
X1388823Y-258379D01*
X1397158Y-263949D01*
X1406991Y-265904D01*
X1416823Y-263949D01*
X1425159Y-258379D01*
X1430729Y-250043D01*
X1432684Y-240211D01*
X1430761Y-230540D01*
X1431143Y-229982D01*
X1440054Y-221475D01*
X1450856Y-228692D01*
X1475320Y-233558D01*
X1499784Y-228692D01*
X1520524Y-214834D01*
X1534382Y-194094D01*
X1535385Y-189053D01*
X1562778D01*
X1565803Y-193580D01*
X1568163Y-195157D01*
Y-210431D01*
X1565803Y-212008D01*
X1558505Y-222930D01*
X1555942Y-235814D01*
X1558505Y-248698D01*
X1565803Y-259620D01*
X1568163Y-261197D01*
Y-276471D01*
X1565803Y-278048D01*
X1558505Y-288970D01*
X1557895Y-292040D01*
X1546507Y-299706D01*
X1533729Y-297165D01*
X1520951Y-299706D01*
X1510118Y-306945D01*
X1502879Y-317778D01*
X1500338Y-330556D01*
X1502879Y-343335D01*
X1510118Y-354167D01*
X1520951Y-361406D01*
X1533729Y-363948D01*
X1544192Y-361866D01*
X1551007Y-365363D01*
X1556378Y-370085D01*
X1558505Y-380778D01*
X1565803Y-391700D01*
X1568163Y-393277D01*
Y-408551D01*
X1565803Y-410128D01*
X1558505Y-421050D01*
X1555942Y-433934D01*
X1558505Y-446818D01*
X1565803Y-457740D01*
X1568163Y-459317D01*
Y-474591D01*
X1565803Y-476168D01*
X1558505Y-487090D01*
X1555942Y-499974D01*
X1558505Y-512858D01*
X1565803Y-523780D01*
Y-526934D01*
X1556647Y-533052D01*
X1546542Y-548175D01*
X1545520Y-553314D01*
X1589609D01*
Y-566014D01*
X1602309D01*
Y-612232D01*
X1616279D01*
Y-566014D01*
X1641679D01*
Y-612232D01*
X1668349D01*
X1678260Y-610260D01*
X1686662Y-604646D01*
X1691943Y-596743D01*
X1695512Y-595952D01*
X1705462Y-595051D01*
X1710005Y-601850D01*
X1720838Y-609089D01*
X1733617Y-611631D01*
X1746395Y-609089D01*
X1757228Y-601850D01*
X1760093Y-597562D01*
X2177712D01*
X2177871Y-597594D01*
X2197398D01*
X2197556Y-597562D01*
X2547640D01*
X2555073Y-596084D01*
X2561374Y-591873D01*
X2573058Y-580189D01*
X2584792Y-585049D01*
Y-586334D01*
X2586763Y-596245D01*
X2592377Y-604646D01*
X2600779Y-610260D01*
X2610689Y-612232D01*
X2637359D01*
Y-566013D01*
X2662759D01*
Y-612232D01*
X2676729D01*
Y-566013D01*
X2689429D01*
Y-553313D01*
X2733519D01*
X2732496Y-548175D01*
X2722391Y-533052D01*
X2713235Y-526934D01*
Y-523780D01*
X2720533Y-512858D01*
X2723096Y-499974D01*
X2720533Y-487090D01*
X2713235Y-476168D01*
X2710876Y-474591D01*
Y-459317D01*
X2713235Y-457740D01*
X2724608D01*
X2730361Y-466349D01*
X2751100Y-480207D01*
X2775565Y-485073D01*
X2800029Y-480207D01*
X2802564Y-478513D01*
X2813765Y-484500D01*
Y-611790D01*
X2802564Y-617777D01*
X2800029Y-616083D01*
X2775565Y-611217D01*
X2751100Y-616083D01*
X2730361Y-629941D01*
X2716503Y-650681D01*
X2712574Y-670430D01*
X1774993Y-670431D01*
X1767008Y-660701D01*
X1764466Y-647923D01*
X1757228Y-637090D01*
X1746395Y-629852D01*
X1733617Y-627310D01*
X1720838Y-629852D01*
X1710005Y-637090D01*
X1702767Y-647923D01*
X1700225Y-660701D01*
X1692240Y-670431D01*
X1412915Y-670431D01*
Y-598609D01*
X1410588Y-580936D01*
X1403766Y-564468D01*
X1392915Y-550325D01*
X1378773Y-539474D01*
X1362304Y-532652D01*
X1361095Y-532493D01*
Y-354720D01*
X1361096Y-270605D01*
X1357070Y-260884D01*
X1347349Y-256858D01*
X1260000Y-256858D01*
Y-208987D01*
X1272324D01*
X1279757Y-207509D01*
X1286058Y-203298D01*
X1392274Y-97083D01*
X1396484Y-90782D01*
X1397962Y-83349D01*
Y-62431D01*
X1431968D01*
X1441689Y-58405D01*
X1445715Y-48684D01*
Y11316D01*
X1441689Y21036D01*
X1431968Y25062D01*
X1391969D01*
X1382248Y21036D01*
X1378222Y11316D01*
Y-24962D01*
X1369597Y-33587D01*
X1364805Y-38379D01*
X1360595Y-44681D01*
X1359116Y-52114D01*
Y-75303D01*
X1303315Y-131104D01*
X1289377Y-127081D01*
D01*
D01*
X1283812Y-118752D01*
X1272979Y-111513D01*
X1260200Y-108972D01*
D01*
X1260200D01*
X1247422Y-111513D01*
X1236589Y-118752D01*
X1229350Y-129585D01*
X1226809Y-142363D01*
X1229350Y-155142D01*
X1230887Y-157441D01*
X1224098Y-170141D01*
X1137348D01*
X1126686Y-158644D01*
Y-146345D01*
X1110629D01*
Y-158044D01*
X1025629D01*
Y-113145D01*
X1025722Y-113082D01*
X1032961Y-102249D01*
X1035502Y-89471D01*
X1034417Y-84014D01*
X1032961Y-76693D01*
X1025722Y-65860D01*
X1014889Y-58621D01*
X1003213Y-56299D01*
X1002628Y-56182D01*
X1002628Y-3037D01*
X1048882D01*
Y-13614D01*
X1052908Y-23334D01*
X1053584Y-23614D01*
X1062629Y-27361D01*
X1102629D01*
X1112349Y-23334D01*
X1114624Y-17843D01*
X1127831Y-19144D01*
X1128703Y-23525D01*
X1134317Y-31927D01*
X1142718Y-37540D01*
X1152629Y-39512D01*
X1159929D01*
Y16386D01*
X1172629D01*
Y29086D01*
X1218526D01*
Y46386D01*
X1217452Y51788D01*
X1225193Y64488D01*
X1236629D01*
X1246539Y66460D01*
X1254941Y72074D01*
X1260555Y80475D01*
X1262526Y90386D01*
Y107686D01*
X1216629D01*
Y133086D01*
X1262526D01*
Y150386D01*
X1260555Y160296D01*
X1254941Y168698D01*
X1251399Y171065D01*
D01*
X1255252Y183765D01*
X1904935D01*
X1910922Y172564D01*
D02*
G37*
G36*
X722529Y150350D02*
Y86386D01*
X804629D01*
Y43386D01*
X696476D01*
X695349Y46106D01*
X685629Y50132D01*
X625629D01*
X615909Y46106D01*
X611882Y36386D01*
Y-63614D01*
X615909Y-73335D01*
X625629Y-77361D01*
Y-88614D01*
X675629D01*
Y-163614D01*
X570629D01*
Y82919D01*
X597789D01*
X606159Y86386D01*
X629200D01*
Y158840D01*
X713524Y159306D01*
X722529Y150350D01*
D02*
G37*
G36*
X1085629Y66386D02*
X1062629D01*
X1039627Y43384D01*
X907086Y43385D01*
X904351Y45804D01*
X898892Y56086D01*
X899111Y57190D01*
X898837Y58571D01*
X899375Y59872D01*
Y86386D01*
X904053Y93386D01*
X1000629D01*
Y150013D01*
X1085629D01*
Y66386D01*
D02*
G37*
G36*
X867882Y177385D02*
Y125386D01*
X870629Y118755D01*
Y101386D01*
X885629Y86386D01*
Y59872D01*
X884935Y56386D01*
X884995Y56086D01*
X877874Y43386D01*
X818375D01*
Y86386D01*
X814349Y96106D01*
X804629Y100132D01*
X750029D01*
Y183765D01*
X863620D01*
X867882Y177385D01*
D02*
G37*
%LPC*%
G36*
X1959635Y-272912D02*
X1946856Y-275454D01*
X1936023Y-282692D01*
X1928785Y-293525D01*
X1926243Y-306303D01*
X1928785Y-319082D01*
X1936023Y-329915D01*
X1946856Y-337153D01*
X1959635Y-339695D01*
X1972413Y-337153D01*
X1983246Y-329915D01*
X1990484Y-319082D01*
X1993026Y-306303D01*
X1990484Y-293525D01*
X1983246Y-282692D01*
X1972413Y-275454D01*
X1959635Y-272912D01*
D02*
G37*
G36*
X2234390Y-412408D02*
X2221612Y-414950D01*
X2210779Y-422189D01*
X2203540Y-433021D01*
X2200998Y-445800D01*
X2203540Y-458578D01*
X2210779Y-469411D01*
X2221612Y-476650D01*
X2234390Y-479192D01*
X2247168Y-476650D01*
X2258001Y-469411D01*
X2265240Y-458578D01*
X2267782Y-445800D01*
X2265240Y-433021D01*
X2258001Y-422189D01*
X2247168Y-414950D01*
X2234390Y-412408D01*
D02*
G37*
G36*
X2150177Y-386662D02*
X2137398Y-389204D01*
X2126565Y-396443D01*
X2119327Y-407276D01*
X2116785Y-420054D01*
X2119327Y-432833D01*
X2126565Y-443665D01*
X2137398Y-450904D01*
X2150177Y-453446D01*
X2162955Y-450904D01*
X2173788Y-443665D01*
X2181026Y-432833D01*
X2183568Y-420054D01*
X2181026Y-407276D01*
X2173788Y-396443D01*
X2162955Y-389204D01*
X2150177Y-386662D01*
D02*
G37*
G36*
X220629Y-615223D02*
X207850Y-617764D01*
X197018Y-625003D01*
X189779Y-635836D01*
X187237Y-648614D01*
X189779Y-661393D01*
X197018Y-672225D01*
X207850Y-679464D01*
X220629Y-682006D01*
X233407Y-679464D01*
X244240Y-672225D01*
X251479Y-661393D01*
X254021Y-648614D01*
X251479Y-635836D01*
X244240Y-625003D01*
X233407Y-617764D01*
X220629Y-615223D01*
D02*
G37*
G36*
X-19566Y-618717D02*
X-81866D01*
Y-659414D01*
X6331D01*
Y-644614D01*
X4360Y-634704D01*
X-1254Y-626302D01*
X-9656Y-620688D01*
X-19566Y-618717D01*
D02*
G37*
G36*
X-107266D02*
X-169566D01*
X-179477Y-620688D01*
X-187878Y-626302D01*
X-193492Y-634704D01*
X-195464Y-644614D01*
Y-659414D01*
X-107266D01*
Y-618717D01*
D02*
G37*
G36*
X220629Y-740223D02*
X207850Y-742764D01*
X197018Y-750003D01*
X189779Y-760836D01*
X187237Y-773614D01*
X189779Y-786393D01*
X197018Y-797225D01*
X207850Y-804464D01*
X220629Y-807006D01*
X233407Y-804464D01*
X244240Y-797225D01*
X251479Y-786393D01*
X254021Y-773614D01*
X251479Y-760836D01*
X244240Y-750003D01*
X233407Y-742764D01*
X220629Y-740223D01*
D02*
G37*
G36*
Y-865223D02*
X207850Y-867764D01*
X197018Y-875003D01*
X189779Y-885836D01*
X187237Y-898614D01*
X189779Y-911393D01*
X197018Y-922225D01*
X207850Y-929464D01*
X220629Y-932006D01*
X233407Y-929464D01*
X244240Y-922225D01*
X251479Y-911393D01*
X254021Y-898614D01*
X251479Y-885836D01*
X244240Y-875003D01*
X233407Y-867764D01*
X220629Y-865223D01*
D02*
G37*
G36*
X-107266Y-684814D02*
X-195464D01*
Y-699614D01*
X-193492Y-709525D01*
X-187878Y-717926D01*
X-179477Y-723540D01*
X-169566Y-725512D01*
X-107266D01*
Y-684814D01*
D02*
G37*
G36*
X6331D02*
X-81866D01*
Y-725512D01*
X-19566D01*
X-9656Y-723540D01*
X-1254Y-717926D01*
X4360Y-709525D01*
X6331Y-699614D01*
Y-684814D01*
D02*
G37*
G36*
X39884Y-797470D02*
X27105Y-800012D01*
X16272Y-807250D01*
X9034Y-818083D01*
X8882Y-818845D01*
X-2102Y-826780D01*
X-14880Y-824239D01*
X-27659Y-826780D01*
X-38491Y-834019D01*
X-45730Y-844852D01*
X-48272Y-857630D01*
X-45730Y-870409D01*
X-42539Y-875184D01*
X-57223Y-889868D01*
X-71482D01*
X-71488Y-889862D01*
X-77108Y-877168D01*
X-72700Y-870572D01*
X-70158Y-857793D01*
X-72700Y-845015D01*
X-79939Y-834182D01*
X-90771Y-826943D01*
X-103550Y-824402D01*
X-116328Y-826943D01*
X-127161Y-834182D01*
X-134400Y-845015D01*
X-136942Y-857793D01*
X-135959Y-862734D01*
X-163093Y-889868D01*
X-199371D01*
X-209091Y-893894D01*
X-209214Y-894191D01*
X-226598D01*
X-229965Y-891941D01*
X-236871Y-890567D01*
X-261871D01*
X-268777Y-891941D01*
X-271064Y-893469D01*
X-271825Y-893318D01*
X-277639Y-889434D01*
X-284496Y-888070D01*
X-294246D01*
X-301104Y-889434D01*
X-306917Y-893318D01*
X-308891Y-896273D01*
X-321073Y-895361D01*
X-322133Y-894972D01*
X-324651Y-888894D01*
X-334371Y-884868D01*
X-374371D01*
X-384091Y-888894D01*
X-388117Y-898614D01*
Y-958614D01*
X-384091Y-968334D01*
X-374371Y-972361D01*
X-334371D01*
X-324651Y-968334D01*
X-323339Y-965167D01*
X-317230Y-964158D01*
X-309526Y-965006D01*
X-306917Y-968910D01*
X-301104Y-972795D01*
X-294246Y-974159D01*
X-284705D01*
X-283788Y-975531D01*
X-273732Y-982250D01*
X-262072Y-984570D01*
Y-948615D01*
X-236672D01*
Y-984570D01*
X-236408Y-984517D01*
X-226914Y-992271D01*
X-225269Y-995251D01*
Y-1000914D01*
X-169372D01*
Y-1026314D01*
X-225269D01*
Y-1033614D01*
X-223297Y-1043525D01*
X-217683Y-1051927D01*
Y-1055839D01*
X-227738Y-1065191D01*
X-243125D01*
Y-1044615D01*
X-247151Y-1034894D01*
X-256871Y-1030868D01*
X-306871D01*
X-316591Y-1034894D01*
X-320618Y-1044615D01*
Y-1124614D01*
X-316591Y-1134335D01*
X-306871Y-1138361D01*
X-256871D01*
X-250718Y-1135812D01*
X-245888Y-1134737D01*
X-235008Y-1138205D01*
X-224575Y-1153818D01*
X-203835Y-1167676D01*
X-179371Y-1172542D01*
X-154907Y-1167676D01*
X-134167Y-1153818D01*
X-120309Y-1133079D01*
X-115443Y-1108614D01*
X-120309Y-1084150D01*
X-129439Y-1070485D01*
X-129444Y-1067687D01*
X-125646Y-1054992D01*
X-121059Y-1051927D01*
X-116336Y-1044859D01*
X-106187Y-1043381D01*
X-103879Y-1043345D01*
X-102516Y-1043627D01*
X-93500Y-1047361D01*
X-73599D01*
Y-1083230D01*
X-77787Y-1086029D01*
X-85026Y-1096862D01*
X-87568Y-1109640D01*
X-85026Y-1122419D01*
X-77787Y-1133252D01*
X-66954Y-1140490D01*
X-54176Y-1143032D01*
X-41397Y-1140490D01*
X-30565Y-1133252D01*
X-23326Y-1122419D01*
X-20784Y-1109640D01*
X-23326Y-1096862D01*
X-30565Y-1086029D01*
X-34753Y-1083230D01*
Y-1057034D01*
X-32626Y-1056121D01*
X-21473Y-1065155D01*
X-21860Y-1067098D01*
X-19318Y-1079876D01*
X-12080Y-1090709D01*
X-1247Y-1097948D01*
X11532Y-1100489D01*
X24310Y-1097948D01*
X35143Y-1090709D01*
X42381Y-1079876D01*
X44923Y-1067098D01*
X43523Y-1060061D01*
X51844Y-1047361D01*
X72370D01*
X82090Y-1043335D01*
X86116Y-1033614D01*
Y-993614D01*
X82090Y-983894D01*
X72370Y-979868D01*
X12370D01*
X2649Y-983894D01*
X-1377Y-993614D01*
Y-1029892D01*
X-2203Y-1030718D01*
X-2398Y-1031011D01*
X-7054Y-1032366D01*
X-19754Y-1022834D01*
Y-993614D01*
X-23780Y-983894D01*
X-33501Y-979868D01*
X-93500D01*
X-102516Y-983602D01*
X-103879Y-983884D01*
X-106187Y-983848D01*
X-116336Y-982370D01*
X-121059Y-975302D01*
X-129460Y-969688D01*
X-133841Y-968817D01*
X-135142Y-955609D01*
X-129651Y-953335D01*
X-125625Y-943614D01*
Y-910372D01*
X-122999Y-907565D01*
X-119197Y-905109D01*
X-107247Y-911836D01*
Y-943614D01*
X-103221Y-953335D01*
X-93500Y-957361D01*
X-33501D01*
X-23780Y-953335D01*
X-19754Y-943614D01*
Y-910372D01*
X-17134Y-907570D01*
X-13327Y-905111D01*
X-1377Y-911839D01*
Y-943614D01*
X2649Y-953335D01*
X12370Y-957361D01*
X72370D01*
X82090Y-953335D01*
X86116Y-943614D01*
Y-903614D01*
X82090Y-893894D01*
X72370Y-889868D01*
X59307D01*
Y-857271D01*
X63495Y-854473D01*
X70733Y-843640D01*
X73275Y-830861D01*
X70733Y-818083D01*
X63495Y-807250D01*
X52662Y-800012D01*
X39884Y-797470D01*
D02*
G37*
G36*
X-169371Y126632D02*
X-269371D01*
X-279091Y122606D01*
X-283118Y112886D01*
Y-12114D01*
X-279091Y-21835D01*
X-269371Y-25861D01*
X-238794D01*
Y-48549D01*
X-243835Y-49552D01*
X-264575Y-63410D01*
X-278433Y-84150D01*
X-283299Y-108614D01*
X-278433Y-133078D01*
X-264575Y-153818D01*
X-260490Y-156548D01*
X-261235Y-164767D01*
X-262650Y-170379D01*
X-272517Y-176973D01*
X-279756Y-187806D01*
X-282297Y-200584D01*
X-279756Y-213363D01*
X-272517Y-224195D01*
X-261684Y-231434D01*
X-248906Y-233976D01*
X-236127Y-231434D01*
X-225294Y-224195D01*
X-218056Y-213363D01*
X-215514Y-200584D01*
X-218056Y-187806D01*
X-220157Y-184662D01*
X-220095Y-183718D01*
X-213730Y-171420D01*
X-194907Y-167676D01*
X-174167Y-153818D01*
X-160309Y-133078D01*
X-155443Y-108614D01*
X-160309Y-84150D01*
X-174167Y-63410D01*
X-194907Y-49552D01*
X-199948Y-48549D01*
Y-25861D01*
X-169371D01*
X-159651Y-21835D01*
X-155625Y-12114D01*
Y112886D01*
X-159651Y122606D01*
X-169371Y126632D01*
D02*
G37*
G36*
X217833Y-487426D02*
X205054Y-489968D01*
X194222Y-497207D01*
X186983Y-508039D01*
X184441Y-520818D01*
X186983Y-533596D01*
X194222Y-544429D01*
X205054Y-551668D01*
X217833Y-554209D01*
X230611Y-551668D01*
X241444Y-544429D01*
X248683Y-533596D01*
X251225Y-520818D01*
X248683Y-508039D01*
X241444Y-497207D01*
X230611Y-489968D01*
X217833Y-487426D01*
D02*
G37*
G36*
X213917Y-414914D02*
X162619D01*
Y-466212D01*
X188019D01*
X197930Y-464241D01*
X206331Y-458627D01*
X211945Y-450225D01*
X213917Y-440314D01*
Y-414914D01*
D02*
G37*
G36*
X286530Y130792D02*
X273752Y128250D01*
X262919Y121011D01*
X255680Y110179D01*
X253138Y97400D01*
X255680Y84622D01*
X262919Y73789D01*
X273752Y66550D01*
X286530Y64009D01*
X299309Y66550D01*
X310141Y73789D01*
X317380Y84622D01*
X319922Y97400D01*
X317380Y110179D01*
X310141Y121011D01*
X299309Y128250D01*
X286530Y130792D01*
D02*
G37*
G36*
X1576909Y-578714D02*
X1545520D01*
X1546542Y-583853D01*
X1556647Y-598976D01*
X1571770Y-609081D01*
X1576909Y-610103D01*
Y-578714D01*
D02*
G37*
G36*
X2733519Y-578713D02*
X2702129D01*
Y-610103D01*
X2707268Y-609081D01*
X2722391Y-598976D01*
X2732496Y-583853D01*
X2733519Y-578713D01*
D02*
G37*
G36*
X1110628Y-84704D02*
X1110629Y-120945D01*
X1126686D01*
Y-108644D01*
X1124715Y-98734D01*
X1119101Y-90332D01*
X1110699Y-84718D01*
X1110628Y-84704D01*
D02*
G37*
G36*
X1218526Y3686D02*
X1185329D01*
Y-39512D01*
X1192629D01*
X1202539Y-37540D01*
X1210941Y-31927D01*
X1216555Y-23525D01*
X1218526Y-13614D01*
Y3686D01*
D02*
G37*
%LPD*%
D16*
X2078940Y141330D02*
D03*
X-179371Y-1108614D02*
D03*
X-219371Y-108614D02*
D03*
X-429371D02*
D03*
X1475320Y-169630D02*
D03*
X350629Y-178614D02*
D03*
X-429371Y-828614D02*
D03*
X48449Y147676D02*
D03*
X1965460Y141330D02*
D03*
D18*
X1350631Y-918610D02*
D03*
X2775627Y-1158614D02*
D03*
D28*
X1082629Y16386D02*
D03*
X1172629D02*
D03*
X1216629Y120386D02*
D03*
X1126629D02*
D03*
X2567459Y128876D02*
D03*
X2657459D02*
D03*
X1501969Y-18684D02*
D03*
X1411968D02*
D03*
X-354371Y-928614D02*
D03*
X-444371D02*
D03*
D29*
X42370Y-923614D02*
D03*
Y-1013614D02*
D03*
X-63501D02*
D03*
Y-923614D02*
D03*
X2765009Y52426D02*
D03*
Y-37574D02*
D03*
X55629Y-489954D02*
D03*
Y-399954D02*
D03*
X240429Y-347234D02*
D03*
Y-257234D02*
D03*
X-169371Y-923614D02*
D03*
Y-1013614D02*
D03*
D31*
X149919Y-262514D02*
D03*
Y-402214D02*
D03*
D32*
X909629Y151386D02*
D03*
X831629D02*
D03*
X2249039Y123876D02*
D03*
X2171039D02*
D03*
D33*
X55629Y-253584D02*
D03*
Y-331584D02*
D03*
D34*
X135019Y-253614D02*
X150919Y-237714D01*
X137749Y-263554D02*
X150919Y-250385D01*
X532400Y118777D02*
X555289Y141666D01*
X229759Y-262514D02*
X234759Y-257514D01*
X5629Y-222019D02*
X14846Y-212801D01*
X-1776Y-222019D02*
X5629D01*
Y-203584D01*
X13870Y-211825D01*
X1791487Y-13583D02*
X1795968Y-9103D01*
X2171039Y12066D02*
Y123876D01*
X1475320Y-169630D02*
X1628835D01*
X1446718Y-100580D02*
X1628979D01*
X1272324Y-189564D02*
X1378539Y-83349D01*
X954294Y-189564D02*
X1272324D01*
X1378539Y-83349D02*
Y-52114D01*
X2625805Y-499974D02*
X2650059D01*
X4908Y-202863D02*
X5629Y-203584D01*
X-33341Y-253584D02*
X-1776Y-222019D01*
X14846Y-212801D02*
X15822Y-211825D01*
X4908Y-200911D02*
Y-199652D01*
Y-202863D02*
Y-200911D01*
X1069Y-197071D02*
X4908Y-200911D01*
Y-199652D02*
X6199Y-198362D01*
Y-154465D01*
X1026488Y120636D02*
X1059155Y87969D01*
X1026488Y120636D02*
Y129283D01*
X1628979Y-566014D02*
X1660514D01*
X1671000Y-576500D01*
Y-617600D02*
Y-576500D01*
X2515076Y-85193D02*
X2523362D01*
X2515076D02*
X2553009Y-47259D01*
X2435429Y-89461D02*
Y-86044D01*
Y11836D01*
X2571885Y-85053D02*
X2579487D01*
X1411968Y-18684D02*
Y-18684D01*
X1378539Y-52114D02*
X1411968Y-18684D01*
X2249039Y123876D02*
X2250219Y122696D01*
X927679Y169436D02*
X1167579D01*
X909629Y151386D02*
X927679Y169436D01*
X1167579D02*
X1216629Y120386D01*
X870629Y-168159D02*
Y-103614D01*
X2510724Y-552679D02*
X2629468Y-433934D01*
X1782149Y-552679D02*
X2510724D01*
X1791487Y-130658D02*
Y-13583D01*
X1708989Y-88605D02*
Y11836D01*
X1406270Y-198232D02*
Y-141029D01*
Y-198232D02*
X1406991Y-198953D01*
Y-240211D02*
Y-198953D01*
X1406270Y-141029D02*
X1446718Y-100580D01*
X1533729Y-330556D02*
X1560907D01*
X1589609Y-301854D01*
X711369Y-205304D02*
Y-169734D01*
X1589609Y-301854D02*
X1628979D01*
X2177871Y-578171D02*
X2197398D01*
X2177839Y-578139D02*
X2177871Y-578171D01*
X1754859Y-525389D02*
X1782149Y-552679D01*
X1775029Y11836D02*
X1795968Y-9103D01*
X1628835Y-169630D02*
X1628979Y-169774D01*
Y-103734D02*
Y-100580D01*
X1619582Y-245211D02*
X1628979Y-235814D01*
X1973149Y11836D02*
X1973917D01*
X2629468Y-433934D02*
X2650059D01*
X2553009Y-2664D02*
X2567509Y11836D01*
X2553009Y-47259D02*
Y-2664D01*
X2626846Y-37694D02*
X2652599D01*
X2579487Y-85053D02*
X2626846Y-37694D01*
X2237309Y-81885D02*
Y11836D01*
X1836756Y7522D02*
X1841069Y11836D01*
X1836756Y-71189D02*
Y7522D01*
X2636071Y-381883D02*
X2650059Y-367894D01*
X45629Y-258614D02*
X50629Y-253614D01*
X850631Y-305609D02*
Y-268922D01*
X162869Y-120554D02*
X226289D01*
X150919Y-132504D02*
X162869Y-120554D01*
X150919Y-155054D02*
Y-132504D01*
X138129Y69066D02*
X167359Y98296D01*
X138129Y26386D02*
Y69066D01*
X-219371Y-108614D02*
Y50386D01*
X-203371Y-1084615D02*
X-179371Y-1108614D01*
X-281871Y-1084615D02*
X-203371D01*
X830629Y-126614D02*
Y-103614D01*
X-184371Y-1013614D02*
X-169371D01*
X-249371Y-948614D02*
X-184371Y-1013614D01*
X-179371Y-913614D02*
X-169371Y-923614D01*
X-249371Y-913614D02*
X-179371D01*
X-291871Y-928614D02*
X-289371Y-931114D01*
X-354371Y-928614D02*
X-291871D01*
X-444371Y-843614D02*
X-429371Y-828614D01*
X-444371Y-928614D02*
Y-843614D01*
Y-1057115D02*
Y-928614D01*
Y-1057115D02*
X-416871Y-1084615D01*
X-429371Y-108614D02*
Y50385D01*
X-429371Y50386D02*
X-429371Y50385D01*
X2171269Y11836D02*
Y51206D01*
X228489Y-257514D02*
X234759D01*
X224589Y-253614D02*
X228489Y-257514D01*
X228589Y-257614D01*
X149919Y-262514D02*
X150919Y-261515D01*
Y-250385D01*
Y-237714D01*
Y-155054D01*
X463129Y-108114D02*
Y26386D01*
X442870Y-87855D02*
X463129Y-108114D01*
X261289Y-120554D02*
Y-88045D01*
X261099Y-87855D02*
X442870D01*
X50599Y-253584D02*
X55629D01*
X50599D02*
X50629Y-253614D01*
X-38371Y-258614D02*
X-33341Y-253584D01*
X50599D01*
X2171039Y12066D02*
X2171269Y11836D01*
X2078940Y141330D02*
X2105229Y115041D01*
Y11836D02*
Y51206D01*
Y115041D01*
X1965460Y141330D02*
X2039189Y67601D01*
Y11836D02*
Y51206D01*
Y67601D01*
X850631Y-268922D02*
X923077Y-196476D01*
X261099Y-87855D02*
X261289Y-88045D01*
X950629Y-63614D02*
X950629Y-63614D01*
Y-103614D02*
Y-103614D01*
X870629Y-63614D02*
Y-63614D01*
X923077Y-196476D02*
X947382D01*
X100114Y-126750D02*
X110919Y-137554D01*
X1080234Y-120906D02*
Y-87075D01*
X54404Y-171879D02*
X55079Y-172554D01*
X55657Y-173132D01*
X53729Y-172554D02*
X55079D01*
X167359Y98296D02*
X203829D01*
X149919Y-262514D02*
X229759D01*
X6199Y-154465D02*
X33914Y-126750D01*
X52501D01*
X52502Y-126750D01*
X100114D01*
X243789Y-185554D02*
X267289D01*
X281579Y-199844D01*
Y-207954D02*
Y-199844D01*
X736419Y-144684D02*
X812559D01*
X830629Y-126614D01*
X785630Y-305609D02*
Y-223360D01*
X281579Y-207954D02*
X327446Y-253821D01*
X327449D01*
X-63501Y-1013614D02*
X-53491Y-1023624D01*
X-54176Y-1109640D02*
Y-1024309D01*
X11532Y-1044453D02*
X42370Y-1013614D01*
X711369Y-169734D02*
X736419Y-144684D01*
X-169371Y-923614D02*
X-103550Y-857793D01*
X-63501Y-923614D02*
X-14880Y-874994D01*
Y-857630D01*
X11532Y-1067098D02*
Y-1044453D01*
X39884Y-921128D02*
Y-830861D01*
Y-921128D02*
X42370Y-923614D01*
X947382Y-196476D02*
X954294Y-189564D01*
X883186Y-155602D02*
X928162D01*
X767720Y-205450D02*
X785630Y-223360D01*
X-26501Y-140920D02*
X20369Y-94050D01*
X38957D01*
X45152Y-87855D01*
X261099D01*
X55657Y-173150D02*
Y-173132D01*
X13870Y-211825D02*
X15822D01*
X-78360Y-140920D02*
X-26501D01*
X-79588Y-142149D02*
X-78360Y-140920D01*
X910629Y-23614D02*
X910629D01*
X830629Y-63614D02*
Y-63614D01*
X910629Y16386D02*
X910629D01*
Y-63614D02*
X911779D01*
X950629Y16386D02*
X1082629D01*
X870629Y-168159D02*
X883186Y-155602D01*
X2563847Y-406309D02*
X2588273Y-381883D01*
X2636071D01*
X1749473Y-525389D02*
X1754859D01*
X1628979Y-499974D02*
X1629074Y-499880D01*
X1700191D01*
X53729Y-172554D02*
X54404Y-171879D01*
X55079Y-172554D02*
X110919D01*
X2547640Y-578139D02*
X2625805Y-499974D01*
X2197398Y-578171D02*
X2197429Y-578139D01*
X2547640D01*
X-54176Y-1024309D02*
X-53491Y-1023624D01*
X1733617Y-578139D02*
X2177839D01*
X-40782Y-253584D02*
X-33341D01*
X14846Y-212801D02*
X55629Y-253584D01*
X13870Y-211825D02*
X14846Y-212801D01*
X4908Y-200911D02*
X15822Y-211825D01*
X2250219Y122696D02*
X2310000D01*
D35*
X532400Y-205845D02*
Y118777D01*
D36*
X385000Y-265800D02*
Y-212985D01*
X350629Y-178614D02*
X385000Y-212985D01*
X-140371Y-347114D02*
Y-258614D01*
X2369389Y-169541D02*
X2369622Y-169774D01*
X822904Y160111D02*
X831629Y151386D01*
X785447Y160111D02*
X822904D01*
X2369389Y51206D02*
Y116559D01*
X2378151Y125321D01*
X2369389Y-169541D02*
Y11836D01*
X2303349Y-56641D02*
Y11836D01*
X1949444Y-169774D02*
X2369622D01*
X1308711Y-463210D02*
Y-409999D01*
Y-518322D02*
Y-463210D01*
Y-518322D02*
X1344631Y-554241D01*
Y-663610D02*
Y-554241D01*
X2567459Y128876D02*
X2567509Y128825D01*
X2657459Y128876D02*
X2659577Y126757D01*
X2746519D01*
X2765009Y108267D01*
Y52426D02*
Y108267D01*
X1907109Y-127440D02*
X1949444Y-169774D01*
X1907109Y-127440D02*
Y11836D01*
X2369389D02*
Y51206D01*
X2717234Y-235814D02*
X2775565Y-294145D01*
X2689429Y-235814D02*
X2717234D01*
X2757696Y-566014D02*
X2775565Y-548145D01*
X2689429Y-566014D02*
X2757696D01*
X2650059Y-235814D02*
X2689429D01*
X2650059Y-566014D02*
X2689429D01*
X1501969Y-18684D02*
X1520978Y-37694D01*
X1589609D01*
X1626439D01*
X-94566Y-347114D02*
X40099D01*
X55629Y-331584D01*
Y-399954D02*
Y-331584D01*
Y-399954D02*
X55629Y-399954D01*
X2764889Y-37694D02*
X2765009Y-37574D01*
X2652599Y-37694D02*
X2689429D01*
X2764889D01*
X2567509Y11836D02*
Y51206D01*
Y128825D01*
X55629Y-489954D02*
X58299Y-492624D01*
X-251456Y-347114D02*
X-140371D01*
X-94566D01*
X790629Y-103614D02*
X790629D01*
X58299Y-548704D02*
Y-492624D01*
X928162Y-155602D02*
X1045538D01*
X2369622Y-169774D02*
X2650059D01*
X1045538Y-155602D02*
X1080234Y-120906D01*
D37*
X1030641Y-23614D02*
X1053390Y-46364D01*
X950629Y-23614D02*
X1030641D01*
X1632842Y-432835D02*
X1700310D01*
X1628979Y-433934D02*
X1631460Y-431453D01*
X749189Y14946D02*
X750629Y16386D01*
X660629Y14946D02*
X749189D01*
X1631460Y-431453D02*
X1632842Y-432835D01*
D38*
X-435470Y-320798D02*
X-422141Y-294140D01*
X-395483Y-267482D01*
X-368825D01*
X-355495Y-280811D01*
Y-307469D01*
X-368825Y-320798D01*
X-382153D01*
X-395483Y-307469D01*
Y-267482D01*
D39*
X982447Y-2038703D02*
X999108Y-2022042D01*
X1032431D01*
X1049092Y-2038703D01*
Y-2055364D01*
X1032431Y-2072026D01*
X999108D01*
X982447Y-2088687D01*
Y-2105348D01*
X999108Y-2122009D01*
X1032431D01*
X1049092Y-2105348D01*
X932463Y-2122009D02*
X899140D01*
X882479Y-2105348D01*
Y-2072026D01*
X899140Y-2055364D01*
X932463D01*
X949124Y-2072026D01*
Y-2105348D01*
X932463Y-2122009D01*
X849157D02*
X815834D01*
X832495D01*
Y-2022042D01*
X849157D01*
X699205D02*
Y-2122009D01*
X749189D01*
X765850Y-2105348D01*
Y-2072026D01*
X749189Y-2055364D01*
X699205D01*
X615898Y-2122009D02*
X649221D01*
X665882Y-2105348D01*
Y-2072026D01*
X649221Y-2055364D01*
X615898D01*
X599237Y-2072026D01*
Y-2088687D01*
X665882D01*
X565915Y-2055364D02*
Y-2122009D01*
Y-2088687D01*
X549253Y-2072026D01*
X532592Y-2055364D01*
X515931D01*
X299334Y-2038703D02*
X315995Y-2022042D01*
X349318D01*
X365979Y-2038703D01*
Y-2055364D01*
X349318Y-2072026D01*
X315995D01*
X299334Y-2088687D01*
Y-2105348D01*
X315995Y-2122009D01*
X349318D01*
X365979Y-2105348D01*
X266011Y-2122009D02*
X232689D01*
X249350D01*
Y-2055364D01*
X266011D01*
X116060Y-2022042D02*
Y-2122009D01*
X166043D01*
X182705Y-2105348D01*
Y-2072026D01*
X166043Y-2055364D01*
X116060D01*
X32753Y-2122009D02*
X66076D01*
X82737Y-2105348D01*
Y-2072026D01*
X66076Y-2055364D01*
X32753D01*
X16092Y-2072026D01*
Y-2088687D01*
X82737D01*
D40*
X1344631Y-663610D02*
D03*
X356630D02*
D03*
D41*
X0Y0D02*
D03*
D42*
X2775565Y-167145D02*
D03*
Y-294145D02*
D03*
Y-421145D02*
D03*
Y-548145D02*
D03*
Y-675145D02*
D03*
D43*
X2253200Y-239100D02*
D03*
X2185250D02*
D03*
D44*
X5629Y-222019D02*
D03*
X134100Y151300D02*
D03*
X308700Y-478600D02*
D03*
X660629Y14946D02*
D03*
Y-38194D02*
D03*
X2515076Y-85193D02*
D03*
X2435429Y-86044D02*
D03*
X2571885Y-85053D02*
D03*
X2303349Y-56641D02*
D03*
X2281452Y-121329D02*
D03*
X1485221Y164631D02*
D03*
X1260200Y-142363D02*
D03*
X1026488Y129283D02*
D03*
X1862215Y-131216D02*
D03*
X1791487D02*
D03*
X2378151Y125321D02*
D03*
X2441263Y126756D02*
D03*
X1533729Y-330556D02*
D03*
X711369Y-205304D02*
D03*
X2150177Y-420054D02*
D03*
X1787683Y-709609D02*
D03*
X1733617Y-660702D02*
D03*
X1700310Y-432835D02*
D03*
X2237309Y-81885D02*
D03*
X1836756Y-71189D02*
D03*
X1308711Y-518322D02*
D03*
X2746519Y126757D02*
D03*
X-219371Y-108614D02*
D03*
X-179371Y-1108614D02*
D03*
X48449Y147676D02*
D03*
X1308711Y-463210D02*
D03*
X1959635Y-306303D02*
D03*
X220629Y-773614D02*
D03*
X-251456Y-347114D02*
D03*
X-248906Y-200584D02*
D03*
X-429371Y-108614D02*
D03*
X1080234Y-87075D02*
D03*
X203829Y98296D02*
D03*
X286530Y97400D02*
D03*
X217833Y-520818D02*
D03*
X-54176Y-1109640D02*
D03*
X220629Y-898614D02*
D03*
Y-648614D02*
D03*
X-103550Y-857793D02*
D03*
X-14880Y-857630D02*
D03*
X11532Y-1067098D02*
D03*
X39884Y-830861D02*
D03*
X767720Y-205450D02*
D03*
X1002111Y-89471D02*
D03*
X1053390Y-46364D02*
D03*
X55657Y-173150D02*
D03*
X-79588Y-142149D02*
D03*
X785447Y160111D02*
D03*
X1059155Y87969D02*
D03*
X2234390Y-445800D02*
D03*
X2563847Y-406309D02*
D03*
X1749473Y-525389D02*
D03*
X1700191Y-499880D02*
D03*
X1733617Y-578239D02*
D03*
X1308711Y-409999D02*
D03*
X1752200Y-447500D02*
D03*
X2665200Y27900D02*
D03*
D45*
X350629Y106386D02*
D03*
D46*
X2310000Y123000D02*
D03*
X1671000Y-617600D02*
D03*
X2096692Y-360874D02*
D03*
X2394356Y-489311D02*
D03*
X2470719Y-288784D02*
D03*
X-227400Y-822300D02*
D03*
X-124381Y149476D02*
D03*
X-39401Y-421304D02*
D03*
X-144201Y-420064D02*
D03*
X2369599Y-286824D02*
D03*
X1471937Y-629986D02*
D03*
X2116320Y-644370D02*
D03*
X-332200Y-211500D02*
D03*
X1171979Y-49214D02*
D03*
X58249Y-613964D02*
D03*
X-28550Y-1162230D02*
D03*
X-130071Y-26954D02*
D03*
D47*
X1708989Y-88605D02*
D03*
X1406991Y-240211D02*
D03*
X1619582Y-245211D02*
D03*
X1973917Y11836D02*
D03*
X2650059Y-103734D02*
D03*
X1628979Y-367894D02*
D03*
X2501469Y11836D02*
D03*
X1125629Y121386D02*
D03*
X830629Y16386D02*
D03*
X870629D02*
D03*
X950629Y-63614D02*
D03*
X950629Y-103614D02*
D03*
X870629Y-63614D02*
D03*
X790629Y-103614D02*
D03*
X234759Y-347514D02*
D03*
X327449Y-253821D02*
D03*
X928162Y-155602D02*
D03*
X910629Y-23614D02*
D03*
X830629Y-63614D02*
D03*
X910629Y-63614D02*
D03*
X910629Y16386D02*
D03*
D48*
X350629Y-178614D02*
D03*
X58299Y-548704D02*
D03*
D67*
X384900Y-365900D02*
D03*
Y-263900D02*
D03*
X463629Y-108614D02*
D03*
Y-210614D02*
D03*
D68*
X850631Y-305609D02*
D03*
X785630D02*
D03*
X915631D02*
D03*
X980631D02*
D03*
X720631D02*
D03*
D69*
X150919Y-155054D02*
D03*
X-289371Y-931114D02*
D03*
D70*
X110919Y-137554D02*
D03*
Y-172554D02*
D03*
X-249371Y-913614D02*
D03*
Y-948614D02*
D03*
D71*
X226289Y-120554D02*
D03*
D72*
X261289D02*
D03*
D73*
X243789Y-185554D02*
D03*
D74*
X-416871Y-1084615D02*
D03*
X-281871D02*
D03*
D75*
X-219371Y50386D02*
D03*
D76*
X-429371D02*
D03*
D77*
X1070789Y-133644D02*
D03*
Y-233644D02*
D03*
X625629Y-133614D02*
D03*
Y-233614D02*
D03*
D78*
X-140371Y-258614D02*
D03*
X-38371D02*
D03*
X646629Y-323614D02*
D03*
X544629D02*
D03*
D79*
X910629Y-23614D02*
D03*
Y16386D02*
D03*
X870629D02*
D03*
X830629D02*
D03*
X950629Y-63614D02*
D03*
X910629D02*
D03*
X870629D02*
D03*
X830629D02*
D03*
X790629D02*
D03*
Y-23614D02*
D03*
Y16386D02*
D03*
X750629Y56386D02*
D03*
Y16386D02*
D03*
Y-23614D02*
D03*
Y-103614D02*
D03*
X790629Y56386D02*
D03*
Y-103614D02*
D03*
X830629Y56386D02*
D03*
Y-23614D02*
D03*
Y-103614D02*
D03*
X870629Y56386D02*
D03*
Y-23614D02*
D03*
Y-103614D02*
D03*
X910629Y56386D02*
D03*
Y-103614D02*
D03*
X950629Y56386D02*
D03*
Y16386D02*
D03*
Y-23614D02*
D03*
Y-103614D02*
D03*
X750629Y-63614D02*
D03*
D80*
X1589609Y-37694D02*
D03*
Y-103734D02*
D03*
Y-169774D02*
D03*
Y-235814D02*
D03*
Y-301854D02*
D03*
Y-367894D02*
D03*
Y-433934D02*
D03*
Y-499974D02*
D03*
Y-566014D02*
D03*
X2689429D02*
D03*
Y-499974D02*
D03*
Y-433934D02*
D03*
Y-367894D02*
D03*
Y-301854D02*
D03*
Y-235814D02*
D03*
Y-169774D02*
D03*
Y-103734D02*
D03*
Y-37694D02*
D03*
X2567509Y51206D02*
D03*
X2501469D02*
D03*
X2435429D02*
D03*
X2369389D02*
D03*
X2303349D02*
D03*
X2237309D02*
D03*
X2171269D02*
D03*
X2105229D02*
D03*
X2039189D02*
D03*
X1973149D02*
D03*
X1907109D02*
D03*
X1841069D02*
D03*
X1775029D02*
D03*
X1708989D02*
D03*
D81*
X1626439Y-37694D02*
D03*
X2652599D02*
D03*
D82*
X1628979Y-103734D02*
D03*
Y-169774D02*
D03*
Y-235814D02*
D03*
Y-301854D02*
D03*
Y-367894D02*
D03*
Y-433934D02*
D03*
Y-499974D02*
D03*
Y-566014D02*
D03*
X2650059D02*
D03*
Y-499974D02*
D03*
Y-433934D02*
D03*
Y-367894D02*
D03*
Y-301854D02*
D03*
Y-235814D02*
D03*
Y-169774D02*
D03*
Y-103734D02*
D03*
D83*
X2567509Y11836D02*
D03*
X2501469D02*
D03*
X2435429D02*
D03*
X2369389D02*
D03*
X2303349D02*
D03*
X2237309D02*
D03*
X2171269D02*
D03*
X2105229D02*
D03*
X2039189D02*
D03*
X1973149D02*
D03*
X1907109D02*
D03*
X1841069D02*
D03*
X1775029D02*
D03*
X1708989D02*
D03*
D84*
X-94566Y-347114D02*
D03*
Y-672114D02*
D03*
D85*
X138129Y26386D02*
D03*
X463129D02*
D03*
D86*
X675289Y141666D02*
D03*
X555289D02*
D03*
%TF.MD5,3418ada387ee91d243b1b280f24f95e4*%
M02*
