G04 Layer_Color=8388736*
%FSLAX45Y45*%
%MOMM*%
%TF.FileFunction,Soldermask,Top*%
%TF.Part,Single*%
%TFFileComment,The blind Vias under BGA and Other Pads are Via-In-Pad (VIP)*%
G01*
G75*
%TA.AperFunction,SMDPad,CuDef*%
%ADD16C,1.00000*%
%TA.AperFunction,NonConductor*%
%ADD39C,0.15000*%
%TA.AperFunction,ComponentPad*%
%ADD42C,1.00000*%
%TA.AperFunction,ViaPad*%
%ADD48C,0.45000*%
%TA.AperFunction,BGAPad,SMDef*%
%ADD79C,0.25000*%
%TA.AperFunction,SMDPad,CuDef*%
%ADD105C,0.91400*%
%ADD116R,0.56000X0.76000*%
%ADD117R,0.76000X0.56000*%
%ADD118R,0.92200X0.92200*%
%ADD119R,0.68000X0.64000*%
%ADD120R,0.64000X0.68000*%
%TA.AperFunction,ComponentPad*%
%ADD124O,1.30000X2.60000*%
%TA.AperFunction,ViaPad*%
%ADD125C,1.70000*%
%ADD126C,0.60100*%
%TA.AperFunction,NonConductor*%
%ADD127R,1.19095X5.12019*%
%TA.AperFunction,SMDPad,CuDef*%
%ADD128R,1.00000X0.90000*%
%ADD129R,1.05000X0.80000*%
%ADD130R,1.16000X0.46000*%
%ADD131R,0.84000X0.44000*%
%ADD132R,1.20000X1.40000*%
%ADD133R,1.10000X0.70000*%
%ADD134R,3.92000X1.16000*%
%ADD135R,0.70000X0.80000*%
%ADD136R,1.57000X1.19000*%
G04:AMPARAMS|DCode=137|XSize=0.33mm|YSize=0.58mm|CornerRadius=0.1025mm|HoleSize=0mm|Usage=FLASHONLY|Rotation=0.000|XOffset=0mm|YOffset=0mm|HoleType=Round|Shape=RoundedRectangle|*
%AMROUNDEDRECTD137*
21,1,0.33000,0.37500,0,0,0.0*
21,1,0.12500,0.58000,0,0,0.0*
1,1,0.20500,0.06250,-0.18750*
1,1,0.20500,-0.06250,-0.18750*
1,1,0.20500,-0.06250,0.18750*
1,1,0.20500,0.06250,0.18750*
%
%ADD137ROUNDEDRECTD137*%
G04:AMPARAMS|DCode=138|XSize=0.24mm|YSize=0.33mm|CornerRadius=0.08mm|HoleSize=0mm|Usage=FLASHONLY|Rotation=90.000|XOffset=0mm|YOffset=0mm|HoleType=Round|Shape=RoundedRectangle|*
%AMROUNDEDRECTD138*
21,1,0.24000,0.17000,0,0,90.0*
21,1,0.08000,0.33000,0,0,90.0*
1,1,0.16000,0.08500,0.04000*
1,1,0.16000,0.08500,-0.04000*
1,1,0.16000,-0.08500,-0.04000*
1,1,0.16000,-0.08500,0.04000*
%
%ADD138ROUNDEDRECTD138*%
%ADD139R,0.33000X0.24000*%
%TA.AperFunction,BGAPad,CuDef*%
%ADD140C,0.34000*%
%TA.AperFunction,SMDPad,CuDef*%
%ADD141O,0.28000X0.93000*%
%ADD142O,0.30000X1.00000*%
%ADD143O,1.00000X0.28000*%
%ADD144O,0.98000X0.26000*%
D16*
X220629Y-898614D02*
D03*
Y-773614D02*
D03*
Y-648614D02*
D03*
Y-523614D02*
D03*
Y-398614D02*
D03*
D39*
X1799430Y-2422042D02*
X1866076D01*
X1832753D01*
Y-2522009D01*
X1916060D02*
X1949382D01*
X1966043Y-2505348D01*
Y-2472026D01*
X1949382Y-2455364D01*
X1916060D01*
X1899398Y-2472026D01*
Y-2505348D01*
X1916060Y-2522009D01*
X1999366Y-2555332D02*
Y-2455364D01*
X2049350D01*
X2066011Y-2472026D01*
Y-2505348D01*
X2049350Y-2522009D01*
X1999366D01*
X2265947Y-2438703D02*
X2249286Y-2422042D01*
X2215963D01*
X2199302Y-2438703D01*
Y-2455364D01*
X2215963Y-2472026D01*
X2249286D01*
X2265947Y-2488687D01*
Y-2505348D01*
X2249286Y-2522009D01*
X2215963D01*
X2199302Y-2505348D01*
X2315931Y-2522009D02*
X2349253D01*
X2365914Y-2505348D01*
Y-2472026D01*
X2349253Y-2455364D01*
X2315931D01*
X2299269Y-2472026D01*
Y-2505348D01*
X2315931Y-2522009D01*
X2399237D02*
X2432560D01*
X2415899D01*
Y-2422042D01*
X2399237D01*
X2549189D02*
Y-2522009D01*
X2499205D01*
X2482544Y-2505348D01*
Y-2472026D01*
X2499205Y-2455364D01*
X2549189D01*
X2632495Y-2522009D02*
X2599173D01*
X2582511Y-2505348D01*
Y-2472026D01*
X2599173Y-2455364D01*
X2632495D01*
X2649156Y-2472026D01*
Y-2488687D01*
X2582511D01*
X2682479Y-2455364D02*
Y-2522009D01*
Y-2488687D01*
X2699141Y-2472026D01*
X2715802Y-2455364D01*
X2732463D01*
D42*
X2775565Y-167145D02*
D03*
Y-294145D02*
D03*
Y-421145D02*
D03*
Y-548145D02*
D03*
Y-675145D02*
D03*
D48*
X135629Y-208616D02*
D03*
D79*
X2268770Y-389480D02*
D03*
X2199470D02*
D03*
X2234120Y-369490D02*
D03*
X2268770Y-349480D02*
D03*
X2199470D02*
D03*
X2234120Y-329470D02*
D03*
X2268770Y-309480D02*
D03*
X2199470D02*
D03*
D105*
X1350631Y-918610D02*
D03*
X2775627Y-1158614D02*
D03*
D116*
X1971400Y-475980D02*
D03*
X2061400D02*
D03*
X135629Y-38614D02*
D03*
X225629D02*
D03*
X1411968Y86474D02*
D03*
X1501969D02*
D03*
X609629Y-210574D02*
D03*
X519629D02*
D03*
X1501969Y-18684D02*
D03*
X1411968D02*
D03*
X-80471Y-200584D02*
D03*
X-170471D02*
D03*
Y-288014D02*
D03*
X-80471D02*
D03*
D117*
X135629Y-123614D02*
D03*
Y-213614D02*
D03*
X225629D02*
D03*
Y-123614D02*
D03*
X2369622Y-144814D02*
D03*
Y-234814D02*
D03*
X2570529D02*
D03*
Y-144814D02*
D03*
X2470076Y-234814D02*
D03*
Y-144814D02*
D03*
X1966689Y-167020D02*
D03*
Y-257020D02*
D03*
X-229371Y56386D02*
D03*
Y146386D02*
D03*
D118*
X1974789Y80816D02*
D03*
Y-58884D02*
D03*
D119*
X2055400Y-558100D02*
D03*
X1977400D02*
D03*
X271629Y46386D02*
D03*
X349629D02*
D03*
X522719Y-131280D02*
D03*
X444719D02*
D03*
X1977400Y-643860D02*
D03*
X2055400D02*
D03*
X1977400Y-367430D02*
D03*
X2055400D02*
D03*
D120*
X605629Y-52280D02*
D03*
Y-130280D02*
D03*
X1273629Y42416D02*
D03*
Y120416D02*
D03*
X-319371Y140386D02*
D03*
Y62386D02*
D03*
D124*
X1344631Y-663610D02*
D03*
X356630D02*
D03*
D125*
X0Y0D02*
D03*
D126*
X220629Y-773614D02*
D03*
X-429371Y-108614D02*
D03*
X217833Y-520818D02*
D03*
X220629Y-898614D02*
D03*
Y-648614D02*
D03*
X39884Y-830861D02*
D03*
D127*
X-392648Y-502792D02*
D03*
D128*
X1132629Y-244614D02*
D03*
Y105386D02*
D03*
D129*
X755129Y-129614D02*
D03*
Y-9614D02*
D03*
D130*
X1609000Y-131000D02*
D03*
Y-939000D02*
D03*
D131*
X1874000Y-210000D02*
D03*
Y-260000D02*
D03*
Y-810000D02*
D03*
Y-310000D02*
D03*
Y-760000D02*
D03*
Y-710000D02*
D03*
Y-410000D02*
D03*
Y-660000D02*
D03*
Y-460000D02*
D03*
Y-510000D02*
D03*
Y-560000D02*
D03*
Y-610000D02*
D03*
Y-860000D02*
D03*
Y-360000D02*
D03*
D132*
X135120Y-1040460D02*
D03*
X-164880D02*
D03*
D133*
X-14880Y-995460D02*
D03*
D134*
X2556063Y1073D02*
D03*
D135*
X2121039Y-131934D02*
D03*
Y-31934D02*
D03*
D136*
Y-6434D02*
D03*
Y-157434D02*
D03*
X484486Y-28584D02*
D03*
Y122416D02*
D03*
D137*
X2111960Y-261750D02*
D03*
D138*
X2046960Y-279250D02*
D03*
D139*
Y-244250D02*
D03*
D140*
X310629Y-23614D02*
D03*
X350629D02*
D03*
X310629Y-63614D02*
D03*
X350629D02*
D03*
X310629Y-103614D02*
D03*
X350629D02*
D03*
D141*
X1622236Y6959D02*
D03*
X1662235D02*
D03*
X1742236D02*
D03*
X1782235D02*
D03*
Y141959D02*
D03*
X1742236D02*
D03*
X1662235D02*
D03*
X1622236D02*
D03*
D142*
X1702236Y9459D02*
D03*
Y139459D02*
D03*
D143*
X1782235Y74459D02*
D03*
D144*
X1622236D02*
D03*
%TF.MD5,1daf4f893a3ea9eb75398789d4dbace3*%
M02*
