G04 Layer_Physical_Order=4*
G04 Layer_Color=128*
%FSLAX45Y45*%
%MOMM*%
%TF.FileFunction,Copper,L4,Inr,Plane*%
%TF.Part,Single*%
%TFFileComment,The blind Vias under BGA and Other Pads are Via-In-Pad (VIP)*%
G01*
G75*
%TA.AperFunction,NonConductor*%
%ADD38C,0.10000*%
%ADD39C,0.15000*%
%ADD49C,1.01600*%
%TA.AperFunction,ComponentPad*%
%ADD56O,1.20000X2.50000*%
%TA.AperFunction,ViaPad*%
%ADD57C,2.10000*%
%TA.AperFunction,ComponentPad*%
%ADD58C,1.20000*%
%TA.AperFunction,ViaPad*%
%ADD59C,0.80000*%
%ADD60C,0.75000*%
%TA.AperFunction,NonConductor*%
%ADD61R,1.18594X1.71000*%
%ADD62R,1.21895X2.55019*%
%ADD63R,3.58584X1.11017*%
%ADD64R,7.37164X2.17224*%
%ADD65R,11.21094X3.20896*%
%ADD66R,4.07138X5.20995*%
D38*
X-333100Y-758800D02*
Y-250082D01*
X-452800Y-758799D02*
Y-248782D01*
X-352495Y-480969D02*
X-432470D01*
X-392483Y-440982D01*
Y-494298D01*
D39*
X-1800569Y-2922009D02*
Y-2822042D01*
X-1750586D01*
X-1733924Y-2838703D01*
Y-2872025D01*
X-1750586Y-2888687D01*
X-1800569D01*
X-1683940Y-2922009D02*
X-1650618D01*
X-1633957Y-2905348D01*
Y-2872025D01*
X-1650618Y-2855364D01*
X-1683940D01*
X-1700602Y-2872025D01*
Y-2905348D01*
X-1683940Y-2922009D01*
X-1600634Y-2855364D02*
Y-2905348D01*
X-1583972Y-2922009D01*
X-1567311Y-2905348D01*
X-1550650Y-2922009D01*
X-1533989Y-2905348D01*
Y-2855364D01*
X-1450682Y-2922009D02*
X-1484005D01*
X-1500666Y-2905348D01*
Y-2872025D01*
X-1484005Y-2855364D01*
X-1450682D01*
X-1434021Y-2872025D01*
Y-2888687D01*
X-1500666D01*
X-1400698Y-2855364D02*
Y-2922009D01*
Y-2888687D01*
X-1384037Y-2872025D01*
X-1367376Y-2855364D01*
X-1350714D01*
X-1200763Y-2922009D02*
Y-2822042D01*
X-1150779D01*
X-1134118Y-2838703D01*
Y-2872025D01*
X-1150779Y-2888687D01*
X-1200763D01*
X-1100795Y-2922009D02*
X-1067472D01*
X-1084133D01*
Y-2822042D01*
X-1100795D01*
X-1000827Y-2855364D02*
X-967505D01*
X-950843Y-2872025D01*
Y-2922009D01*
X-1000827D01*
X-1017488Y-2905348D01*
X-1000827Y-2888687D01*
X-950843D01*
X-917521Y-2922009D02*
Y-2855364D01*
X-867537D01*
X-850876Y-2872025D01*
Y-2922009D01*
X-767569D02*
X-800891D01*
X-817553Y-2905348D01*
Y-2872025D01*
X-800891Y-2855364D01*
X-767569D01*
X-750908Y-2872025D01*
Y-2888687D01*
X-817553D01*
X-584295Y-2922009D02*
X-617617Y-2888687D01*
Y-2855364D01*
X-584295Y-2822042D01*
X-534311D02*
Y-2888687D01*
X-500988Y-2922009D01*
X-467666Y-2888687D01*
Y-2822042D01*
X-367698Y-2838703D02*
X-384359Y-2822042D01*
X-417682D01*
X-434343Y-2838703D01*
Y-2905348D01*
X-417682Y-2922009D01*
X-384359D01*
X-367698Y-2905348D01*
X-267730Y-2838703D02*
X-284391Y-2822042D01*
X-317714D01*
X-334375Y-2838703D01*
Y-2905348D01*
X-317714Y-2922009D01*
X-284391D01*
X-267730Y-2905348D01*
X-234407Y-2922009D02*
X-201085Y-2888687D01*
Y-2855364D01*
X-234407Y-2822042D01*
D49*
X2404999Y-1179999D02*
Y-1144999D01*
Y-1179999D02*
X2406002Y-1188901D01*
X2408960Y-1197354D01*
X2413726Y-1204939D01*
X2420059Y-1211273D01*
X2427644Y-1216038D01*
X2436099Y-1218997D01*
X2444999Y-1220001D01*
X2829999D01*
X2830000Y200000D01*
X-430001D02*
X2830000D01*
X-500000Y159585D02*
X-430001Y200000D01*
X-500001Y-1179584D02*
X-500000Y159585D01*
X-500001Y-1179584D02*
X-430001Y-1220001D01*
X160000D01*
X168900Y-1218997D01*
X177355Y-1216038D01*
X184938Y-1211273D01*
X191272Y-1204939D01*
X196038Y-1197354D01*
X198997Y-1188901D01*
X200000Y-1179999D01*
Y-1040000D01*
X201002Y-1031100D01*
X203961Y-1022645D01*
X208726Y-1015059D01*
X215060Y-1008725D01*
X222644Y-1003960D01*
X231098Y-1001002D01*
X240000Y-1000000D01*
X399999D01*
X408900Y-998996D01*
X417355Y-996038D01*
X424939Y-991273D01*
X431273Y-984939D01*
X436038Y-977355D01*
X438996Y-968900D01*
X439999Y-960000D01*
Y-409999D01*
X441002Y-401099D01*
X443961Y-392643D01*
X448727Y-385060D01*
X455060Y-378726D01*
X462644Y-373961D01*
X471099Y-371003D01*
X479999Y-369999D01*
X1220000D01*
X1228901Y-371003D01*
X1237355Y-373961D01*
X1244939Y-378726D01*
X1251273Y-385060D01*
X1256038Y-392643D01*
X1258997Y-401099D01*
X1260000Y-409999D01*
Y-960000D02*
Y-409999D01*
Y-960000D02*
X1261002Y-968900D01*
X1263961Y-977355D01*
X1268726Y-984939D01*
X1275060Y-991273D01*
X1282644Y-996038D01*
X1291098Y-998996D01*
X1299999Y-1000000D01*
X1459999D01*
X1468900Y-1001002D01*
X1477354Y-1003960D01*
X1484939Y-1008725D01*
X1491273Y-1015059D01*
X1496038Y-1022645D01*
X1498996Y-1031100D01*
X1499999Y-1040000D01*
Y-1179999D02*
Y-1040000D01*
Y-1179999D02*
X1501002Y-1188901D01*
X1503960Y-1197354D01*
X1508726Y-1204939D01*
X1515059Y-1211273D01*
X1522644Y-1216038D01*
X1531099Y-1218997D01*
X1539999Y-1220001D01*
X2214999D01*
X2223900Y-1218997D01*
X2232354Y-1216038D01*
X2239939Y-1211273D01*
X2246272Y-1204939D01*
X2251038Y-1197354D01*
X2253996Y-1188901D01*
X2254999Y-1179999D01*
Y-1144999D01*
X2256639Y-1129406D01*
X2261483Y-1114495D01*
X2269323Y-1100915D01*
X2279815Y-1089264D01*
X2292499Y-1080049D01*
X2306823Y-1073670D01*
X2322159Y-1070411D01*
X2337839D01*
X2353176Y-1073670D01*
X2367499Y-1080049D01*
X2380184Y-1089264D01*
X2390675Y-1100915D01*
X2398515Y-1114495D01*
X2403360Y-1129406D01*
X2404999Y-1144999D01*
D56*
X1344631Y-663610D02*
D03*
X356630D02*
D03*
D57*
X0Y0D02*
D03*
D58*
X2775565Y-167145D02*
D03*
Y-294145D02*
D03*
Y-421145D02*
D03*
Y-548145D02*
D03*
D59*
X350629Y106386D02*
D03*
X2310000Y123000D02*
D03*
X1671000Y-617600D02*
D03*
X2096692Y-360874D02*
D03*
X2394356Y-489311D02*
D03*
X2470719Y-288784D02*
D03*
X-227400Y-822300D02*
D03*
X-124381Y149476D02*
D03*
X-39401Y-421304D02*
D03*
X-144201Y-420064D02*
D03*
X2369599Y-286824D02*
D03*
X1471937Y-629986D02*
D03*
X2116320Y-644370D02*
D03*
X-332200Y-211500D02*
D03*
X1171979Y-49214D02*
D03*
X58249Y-613964D02*
D03*
X-28550Y-1162230D02*
D03*
X-130071Y-26954D02*
D03*
D60*
X5629Y-222019D02*
D03*
X134100Y151300D02*
D03*
X308700Y-478600D02*
D03*
X2515076Y-85193D02*
D03*
X2435429Y-86044D02*
D03*
X2571885Y-85053D02*
D03*
X2303349Y-56641D02*
D03*
X2281452Y-121329D02*
D03*
X1485221Y164631D02*
D03*
X1260200Y-142363D02*
D03*
X1379168Y-91370D02*
D03*
X1026488Y129283D02*
D03*
X1862215Y-131216D02*
D03*
X1410440Y-134768D02*
D03*
X1377272Y159770D02*
D03*
X1350166Y52393D02*
D03*
X1791487Y-131216D02*
D03*
X2160452Y-6434D02*
D03*
X2378151Y125321D02*
D03*
X2441263Y126756D02*
D03*
X1533729Y-330556D02*
D03*
X350629Y-178614D02*
D03*
X711369Y-205304D02*
D03*
X2150177Y-420054D02*
D03*
X1787683Y-709609D02*
D03*
X1733617Y-660702D02*
D03*
X1160331Y-125063D02*
D03*
X1700310Y-432835D02*
D03*
X2237309Y-81885D02*
D03*
X1836756Y-71189D02*
D03*
X1308711Y-518322D02*
D03*
X-219371Y-108614D02*
D03*
X48449Y147676D02*
D03*
X1308711Y-463210D02*
D03*
X220629Y-773614D02*
D03*
X-251456Y-347114D02*
D03*
X-248906Y-200584D02*
D03*
X-429371Y-108614D02*
D03*
X1080234Y-87075D02*
D03*
X203829Y98296D02*
D03*
X286530Y97400D02*
D03*
X217833Y-520818D02*
D03*
X-54176Y-1109640D02*
D03*
X220629Y-898614D02*
D03*
Y-648614D02*
D03*
X-103550Y-857793D02*
D03*
X-14880Y-857630D02*
D03*
X11532Y-1067098D02*
D03*
X39884Y-830861D02*
D03*
X767720Y-205450D02*
D03*
X1002111Y-89471D02*
D03*
X1053390Y-46364D02*
D03*
X55657Y-173150D02*
D03*
X-79588Y-142149D02*
D03*
X785447Y160111D02*
D03*
X1059155Y87969D02*
D03*
X2234390Y-445800D02*
D03*
X2563847Y-406309D02*
D03*
X1749473Y-525389D02*
D03*
X1700191Y-499880D02*
D03*
X1733617Y-578239D02*
D03*
X1308711Y-409999D02*
D03*
X1752200Y-447500D02*
D03*
D61*
X-392398Y-335583D02*
D03*
D62*
X-394047Y-631292D02*
D03*
D63*
X2283831Y-1026747D02*
D03*
D64*
X1879538Y-1088732D02*
D03*
D65*
X1869590Y-838512D02*
D03*
D66*
X2617018Y-938551D02*
D03*
%TF.MD5,c1995c9066d2f8b766e86d82ee458a4a*%
M02*
