G04 Layer_Color=2752767*
%FSLAX45Y45*%
%MOMM*%
%TF.FileFunction,Drawing*%
%TF.Part,Single*%
%TFFileComment,The blind Vias under BGA and Other Pads are Via-In-Pad (VIP)*%
G01*
G75*
%TA.AperFunction,NonConductor*%
%ADD39C,0.15000*%
%ADD155C,0.12700*%
D39*
X3599430Y-2422042D02*
Y-2522009D01*
X3649414D01*
X3666075Y-2505348D01*
Y-2438703D01*
X3649414Y-2422042D01*
X3599430D01*
X3699398Y-2455364D02*
Y-2522009D01*
Y-2488687D01*
X3716060Y-2472026D01*
X3732721Y-2455364D01*
X3749382D01*
X3799366Y-2522009D02*
X3832689D01*
X3816027D01*
Y-2455364D01*
X3799366D01*
X3882672Y-2522009D02*
X3915995D01*
X3899334D01*
Y-2422042D01*
X3882672D01*
X3965979Y-2522009D02*
X3999301D01*
X3982640D01*
Y-2422042D01*
X3965979D01*
X4149253D02*
Y-2522009D01*
X4199237D01*
X4215898Y-2505348D01*
Y-2438703D01*
X4199237Y-2422042D01*
X4149253D01*
X4249221Y-2455364D02*
Y-2522009D01*
Y-2488687D01*
X4265882Y-2472026D01*
X4282543Y-2455364D01*
X4299205D01*
X4365850D02*
X4399173D01*
X4415834Y-2472026D01*
Y-2522009D01*
X4365850D01*
X4349189Y-2505348D01*
X4365850Y-2488687D01*
X4415834D01*
X4449156Y-2455364D02*
Y-2505348D01*
X4465818Y-2522009D01*
X4482479Y-2505348D01*
X4499140Y-2522009D01*
X4515801Y-2505348D01*
Y-2455364D01*
X4549124Y-2522009D02*
X4582447D01*
X4565786D01*
Y-2455364D01*
X4549124D01*
X4632431Y-2522009D02*
Y-2455364D01*
X4682415D01*
X4699076Y-2472026D01*
Y-2522009D01*
X4765721Y-2555332D02*
X4782382D01*
X4799043Y-2538671D01*
Y-2455364D01*
X4749060D01*
X4732398Y-2472026D01*
Y-2505348D01*
X4749060Y-2522009D01*
X4799043D01*
D155*
X1328368Y-142170D02*
X1353768Y-91370D01*
X1328368Y-40570D01*
X1379168Y-65970D01*
X1429968Y-40570D01*
X1404568Y-91370D01*
X1429968Y-142170D01*
X1379168Y-116770D01*
X1328368Y-142170D01*
X1359640Y-185568D02*
X1385040Y-134768D01*
X1359640Y-83968D01*
X1410440Y-109368D01*
X1461240Y-83968D01*
X1435840Y-134768D01*
X1461240Y-185568D01*
X1410440Y-160168D01*
X1359640Y-185568D01*
X1326472Y108970D02*
X1351872Y159770D01*
X1326472Y210570D01*
X1377272Y185170D01*
X1428072Y210570D01*
X1402672Y159770D01*
X1428072Y108970D01*
X1377272Y134370D01*
X1326472Y108970D01*
X1299366Y1593D02*
X1324766Y52393D01*
X1299366Y103193D01*
X1350166Y77793D01*
X1400966Y103193D01*
X1375566Y52393D01*
X1400966Y1593D01*
X1350166Y26993D01*
X1299366Y1593D01*
X2109652Y-57234D02*
X2135052Y-6434D01*
X2109652Y44366D01*
X2160452Y18966D01*
X2211252Y44366D01*
X2185852Y-6434D01*
X2211252Y-57234D01*
X2160452Y-31834D01*
X2109652Y-57234D01*
X1109531Y-175863D02*
X1134931Y-125063D01*
X1109531Y-74263D01*
X1160331Y-99663D01*
X1211131Y-74263D01*
X1185731Y-125063D01*
X1211131Y-175863D01*
X1160331Y-150463D01*
X1109531Y-175863D01*
%TF.MD5,4c0e607529e8e008b39c52ab4138a910*%
M02*
