G04 Layer_Color=16711935*
%FSLAX43Y43*%
%MOMM*%
%TF.FileFunction,Other,Mechanical_1*%
%TF.Part,Single*%
G01*
G75*
%TA.AperFunction,NonConductor*%
%ADD11C,0.150*%
%ADD14C,0.254*%
D11*
X24459Y-18160D02*
X24792D01*
X24625D01*
Y-17160D01*
X24459D01*
X25292Y-17494D02*
X25458D01*
Y-18160D01*
X25625D01*
X25292D01*
X26125D02*
Y-17494D01*
X26625D01*
X26791Y-17660D01*
Y-18160D01*
X27291D02*
X27125Y-17993D01*
Y-17660D01*
X27291Y-17494D01*
X27624D01*
X27791Y-17660D01*
Y-17827D01*
X27125D01*
X27291Y-18160D02*
X27624D01*
X23959D02*
X23792Y-17993D01*
Y-17494D01*
X23626D01*
X23959D01*
X23792D01*
Y-17327D01*
X23292Y-17494D02*
Y-18160D01*
X22793D01*
X22626Y-17993D01*
Y-17494D01*
X22293Y-17327D02*
X22126Y-17160D01*
X21793D01*
X21626Y-17327D01*
Y-17993D01*
X21793Y-18160D01*
X22126D01*
X22293Y-17993D01*
Y-17327D01*
X20293Y-17160D02*
Y-18160D01*
X19794D01*
X19627Y-17993D01*
Y-17660D01*
X19794Y-17494D01*
X20293D01*
X19127D02*
X18961D01*
X18794Y-17660D01*
X18627Y-17827D01*
Y-18160D01*
Y-17494D01*
X18128D02*
X18294Y-17660D01*
Y-18160D01*
X17794D01*
X17628Y-17993D01*
X17794Y-17827D01*
X18294D01*
X18128Y-17494D02*
X17794D01*
X17294Y-17660D02*
X17128Y-17494D01*
X16795D01*
X16628Y-17660D01*
Y-17993D01*
X16795Y-18160D01*
X17128D01*
X17294Y-17993D01*
Y-17660D01*
X16128D02*
X15628D01*
X16128D01*
X16295Y-17494D01*
Y-17327D01*
X16128Y-17160D01*
X15628D01*
Y-18160D01*
X16128D01*
X16295Y-17993D01*
Y-17827D01*
X16128Y-17660D01*
D14*
X36100Y-12400D02*
Y-10400D01*
X40000D01*
X41000Y-9400D01*
Y-3100D01*
X40000Y-2100D01*
X34000D01*
Y-9400D01*
X31750D01*
Y-10400D01*
X-0D01*
Y-0D01*
X-9400D01*
X-10400Y-1000D01*
Y-11400D01*
X-9400Y-12400D01*
X36100D01*
%TF.MD5,a154d49233abadba4a897f3c53c9c1fd*%
M02*
