G04 Layer_Color=128*
%FSLAX43Y43*%
%MOMM*%
%TF.FileFunction,Drillmap*%
%TF.Part,Single*%
G01*
G75*
%TA.AperFunction,NonConductor*%
%ADD11C,0.150*%
D11*
X-10537Y-22383D02*
X-10870D01*
X-11037Y-22216D01*
Y-21883D01*
X-10870Y-21717D01*
X-10537D01*
X-10370Y-21883D01*
Y-22050D01*
X-11037D01*
X-11370Y-22383D02*
X-11870D01*
X-12036Y-22216D01*
Y-21883D01*
X-11870Y-21717D01*
X-11370D01*
Y-21383D02*
Y-22383D01*
X-12536D02*
X-12703D01*
Y-21717D01*
X-12869D01*
X-13203D02*
Y-22383D01*
X-13702D01*
X-13869Y-22216D01*
Y-21717D01*
X-14202Y-21883D02*
X-14536D01*
X-14202D02*
Y-22216D01*
X-14369Y-22383D01*
X-14702D01*
X-14869Y-22216D01*
Y-21550D01*
X-14702Y-21383D01*
X-14369D01*
X-14202Y-21550D01*
X-12869Y-22383D02*
X-12536D01*
X-16368D02*
X-16535D01*
Y-21383D01*
X-16702D01*
X-17368D02*
X-17535D01*
X-17368D02*
Y-22383D01*
X-17201D01*
X-17535D01*
X-18034D02*
X-18201D01*
Y-21717D01*
X-18368D01*
Y-22383D02*
X-18034D01*
X-16702D02*
X-16368D01*
X-19367D02*
Y-22050D01*
X-19201Y-21883D01*
X-19034Y-21717D01*
X-18867D01*
X-19367D02*
Y-22383D01*
X-19867D02*
X-19701Y-22216D01*
Y-21550D01*
X-19867Y-21383D01*
X-20367D01*
Y-22383D01*
X-19867D01*
%TF.MD5,35ea8355e825dbe486b0ff2cd18e8128*%
M02*
