G04 Layer_Color=2752767*
%FSLAX43Y43*%
%MOMM*%
%TF.FileFunction,Drawing*%
%TF.Part,Single*%
G01*
G75*
%TA.AperFunction,NonConductor*%
%ADD11C,0.150*%
%ADD18C,0.127*%
D11*
X43458Y-18160D02*
X43292D01*
Y-17494D01*
X43125D01*
X42792D02*
Y-17993D01*
X42625Y-18160D01*
X42459Y-17993D01*
X42292Y-18160D01*
X42126Y-17993D01*
Y-17494D01*
X41626D02*
X41792Y-17660D01*
Y-18160D01*
X41292D01*
X41126Y-17993D01*
X41292Y-17827D01*
X41792D01*
X41626Y-17494D02*
X41292D01*
X40626D02*
X40459D01*
X40293Y-17660D01*
X40126Y-17827D01*
Y-18160D01*
Y-17494D01*
X39793Y-17327D02*
X39626Y-17160D01*
X39127D01*
Y-18160D01*
X39626D01*
X39793Y-17993D01*
Y-17327D01*
X43125Y-18160D02*
X43458D01*
X43958D02*
Y-17494D01*
X44458D01*
X44625Y-17660D01*
Y-18160D01*
X44958Y-17993D02*
X45125Y-18160D01*
X45624D01*
Y-18327D02*
Y-17494D01*
X45125D01*
X44958Y-17660D01*
Y-17993D01*
X45291Y-18493D02*
X45458D01*
X45624Y-18327D01*
X37627Y-18160D02*
X37460D01*
Y-17160D01*
X37294D01*
X36627D02*
X36461D01*
X36627D02*
Y-18160D01*
X36794D01*
X36461D01*
X35961D02*
X35794D01*
Y-17494D01*
X35628D01*
X35128D02*
X34961D01*
X34795Y-17660D01*
X34628Y-17827D01*
Y-18160D01*
Y-17494D01*
X34295Y-17327D02*
X34128Y-17160D01*
X33628D01*
Y-18160D01*
X34128D01*
X34295Y-17993D01*
Y-17327D01*
X35628Y-18160D02*
X35961D01*
X37294D02*
X37627D01*
D18*
X12808Y-11909D02*
X11792D01*
Y-10893D01*
X12808D01*
Y-11909D01*
X13839D02*
Y-10893D01*
X14855D01*
Y-11909D01*
X13839D01*
X10790Y-10893D02*
Y-11909D01*
X9774D01*
Y-10893D01*
X10790D01*
%TF.MD5,65a3b16817190e45af5df683bc49b282*%
M02*
