G04 Layer_Physical_Order=2*
G04 Layer_Color=16711680*
%FSLAX43Y43*%
%MOMM*%
%TF.FileFunction,Copper,L2,Bot,Signal*%
%TF.Part,Single*%
G01*
G75*
%TA.AperFunction,NonConductor*%
%ADD10C,0.100*%
%ADD11C,0.150*%
%TA.AperFunction,ViaPad*%
%ADD12C,0.610*%
%TA.AperFunction,SMDPad,CuDef*%
G04:AMPARAMS|DCode=13|XSize=5mm|YSize=1.6mm|CornerRadius=0.4mm|HoleSize=0mm|Usage=FLASHONLY|Rotation=0.000|XOffset=0mm|YOffset=0mm|HoleType=Round|Shape=RoundedRectangle|*
%AMROUNDEDRECTD13*
21,1,5.000,0.800,0,0,0.0*
21,1,4.200,1.600,0,0,0.0*
1,1,0.800,2.100,-0.400*
1,1,0.800,-2.100,-0.400*
1,1,0.800,-2.100,0.400*
1,1,0.800,2.100,0.400*
%
%ADD13ROUNDEDRECTD13*%
D10*
X31933Y-11812D02*
X32200D01*
X32333Y-11679D01*
X32600D02*
X32733Y-11812D01*
X33000D01*
X33133Y-11679D01*
X33400D02*
X33533Y-11812D01*
X33800D01*
X33933Y-11679D01*
X34199D02*
X34333Y-11812D01*
X34599D01*
X34733Y-11679D01*
Y-11146D01*
X34599Y-11012D01*
X34333D01*
X34199Y-11146D01*
Y-11679D01*
X33400D02*
Y-11412D01*
X33533Y-11279D01*
X33666D01*
X33933Y-11412D01*
Y-11012D01*
X33400D01*
X33133Y-11146D02*
X33000Y-11012D01*
X32733D01*
X32600Y-11146D01*
Y-11279D01*
X32733Y-11412D01*
X32866D01*
X32733D01*
X32600Y-11545D01*
Y-11679D01*
X31800D02*
X31933Y-11812D01*
X31800Y-11679D02*
Y-11412D01*
X31933Y-11279D01*
X32067D01*
X32333Y-11412D01*
Y-11012D01*
X31800D01*
X35266D02*
X35399Y-11146D01*
X35266Y-11012D02*
Y-11812D01*
X35132D01*
X35399D01*
X31534Y-11279D02*
Y-11146D01*
X31400Y-11012D01*
X31134D01*
X31000Y-11146D01*
Y-11279D01*
X31134Y-11412D01*
X31000Y-11545D01*
Y-11679D01*
X31134Y-11812D01*
X31400D01*
X31534Y-11679D01*
Y-11545D01*
X31400Y-11412D01*
X31534Y-11279D01*
X31400Y-11412D02*
X31134D01*
X30734D02*
X30201D01*
X29934Y-11146D02*
X29801Y-11012D01*
X29534D01*
X29401Y-11146D01*
Y-11279D01*
X29534Y-11412D01*
X29668D01*
X29534D01*
X29401Y-11545D01*
Y-11679D01*
X29534Y-11812D01*
X29801D01*
X29934Y-11679D01*
X29134Y-11812D02*
X28601D01*
X28335D02*
Y-11279D01*
X28068Y-11012D01*
X27801Y-11279D01*
Y-11812D01*
Y-11412D01*
X28335D01*
X29134Y-11012D02*
Y-11812D01*
X27535Y-11146D02*
X27402Y-11012D01*
X27135D01*
X27002Y-11146D01*
Y-11679D01*
X27135Y-11812D01*
X27402D01*
X27535Y-11679D01*
Y-11146D01*
X26735D02*
X26602Y-11012D01*
X26335D01*
X26202Y-11146D01*
Y-11679D01*
X26335Y-11812D01*
X26602D01*
X26735Y-11679D01*
Y-11146D01*
X25935D02*
X25802Y-11012D01*
X25536D01*
X25402Y-11146D01*
Y-11279D01*
X25536Y-11412D01*
X25669D01*
X25536D01*
X25402Y-11545D01*
Y-11679D01*
X25536Y-11812D01*
X25802D01*
X25935Y-11679D01*
X24336D02*
Y-11146D01*
X24203Y-11012D01*
X23936D01*
X23803Y-11146D01*
Y-11679D01*
X23936Y-11812D01*
X24203D01*
X24336Y-11679D01*
X24602Y-11412D02*
X25136D01*
X23536Y-11146D02*
X23403Y-11012D01*
Y-11812D01*
X23270D01*
X23536D01*
X40122Y-8207D02*
X39988Y-8074D01*
Y-7674D01*
X40788D01*
Y-8074D01*
X40655Y-8207D01*
X40521D01*
X40388Y-8074D01*
Y-7674D01*
Y-8074D01*
X40255Y-8207D01*
X40122D01*
D11*
X5009Y-18160D02*
X5176Y-17993D01*
Y-17494D01*
X5343D01*
X5009D01*
X5176D01*
Y-17327D01*
X6009D02*
Y-17494D01*
X6176D01*
X5842D01*
X6009D01*
Y-17993D01*
X5842Y-18160D01*
X6675D02*
X6509Y-17993D01*
Y-17660D01*
X6675Y-17494D01*
X7009D01*
X7175Y-17660D01*
Y-17993D01*
X7009Y-18160D01*
X6675D01*
X7675D02*
X7508Y-17993D01*
Y-17827D01*
X7675Y-17660D01*
X8175D01*
X7675D01*
X7508Y-17494D01*
Y-17327D01*
X7675Y-17160D01*
X8175D01*
Y-18160D01*
X7675D01*
X4343D02*
X4010D01*
X3843Y-17993D01*
Y-17660D01*
X4010Y-17494D01*
X4343D01*
X4509Y-17660D01*
Y-17993D01*
X4343Y-18160D01*
X3510D02*
Y-17494D01*
X3343D01*
X3177Y-17660D01*
Y-18160D01*
Y-17660D01*
X3010Y-17494D01*
X2843Y-17660D01*
Y-18160D01*
X1510D02*
X844D01*
X344D02*
X511Y-17993D01*
X344Y-17827D01*
X-156D01*
Y-17660D02*
Y-18160D01*
X344D01*
Y-17494D02*
X11D01*
X-156Y-17660D01*
X-489Y-17494D02*
Y-17993D01*
X-656Y-18160D01*
X-1155D01*
Y-18327D01*
X-989Y-18493D01*
X-822D01*
X-1155Y-18160D02*
Y-17494D01*
X-1489Y-17660D02*
X-1655Y-17494D01*
X-1988D01*
X-2155Y-17660D01*
Y-17827D01*
X-1489D01*
Y-17993D02*
Y-17660D01*
Y-17993D02*
X-1655Y-18160D01*
X-1988D01*
X-2488D02*
Y-17827D01*
X-2655Y-17660D01*
X-2822Y-17494D01*
X-2988D01*
X-2488D02*
Y-18160D01*
X1510D02*
Y-17160D01*
D12*
X14347Y-11401D02*
D03*
X12300D02*
D03*
X10282D02*
D03*
D13*
X12300Y-11401D02*
D03*
%TF.MD5,62eb828719b66b02c08e200e785bc807*%
M02*
