G04 Layer_Physical_Order=1*
G04 Layer_Color=255*
%FSLAX43Y43*%
%MOMM*%
%TF.FileFunction,Copper,L1,Top,Signal*%
%TF.Part,Single*%
G01*
G75*
%TA.AperFunction,NonConductor*%
%ADD10C,0.100*%
%ADD11C,0.150*%
%TA.AperFunction,ViaPad*%
%ADD12C,0.610*%
G36*
X40838Y-3167D02*
Y-8269D01*
X39761D01*
Y-9256D01*
X40735D01*
X40787Y-9383D01*
X39933Y-10238D01*
X36100D01*
X35985Y-10285D01*
X35938Y-10400D01*
Y-12238D01*
X-9333D01*
X-10238Y-11333D01*
Y-2999D01*
X-162D01*
Y-10400D01*
X-115Y-10515D01*
X0Y-10562D01*
X31750D01*
X31865Y-10515D01*
X31912Y-10400D01*
Y-9562D01*
X34000D01*
X34115Y-9515D01*
X34162Y-9400D01*
Y-2262D01*
X39933D01*
X40838Y-3167D01*
D02*
G37*
D10*
X39988Y-9029D02*
Y-8496D01*
Y-8762D01*
X40788D01*
D11*
X-10370Y-18164D02*
X-10537Y-17997D01*
X-10370Y-18164D02*
X-10037D01*
X-9870Y-17997D01*
Y-17831D01*
X-10037Y-17664D01*
X-10370D01*
X-10537Y-17498D01*
Y-17331D01*
X-10370Y-17164D01*
X-10037D01*
X-9870Y-17331D01*
X-9537Y-17498D02*
X-9371D01*
Y-18164D01*
X-9204D01*
X-9537D01*
X-8537D02*
X-8704Y-17997D01*
Y-17664D01*
X-8537Y-17498D01*
X-8038D01*
Y-17164D02*
Y-18164D01*
X-8537D01*
X-7538D02*
X-7704Y-17997D01*
Y-17664D01*
X-7538Y-17498D01*
X-7205D01*
X-7038Y-17664D01*
Y-17831D01*
X-7704D01*
X-7538Y-18164D02*
X-7205D01*
X-12036D02*
X-12203Y-17997D01*
Y-17498D01*
X-12370D01*
X-12036D01*
X-12203D01*
Y-17331D01*
X-12869Y-17498D02*
X-12703Y-17664D01*
Y-18164D01*
X-13369D02*
Y-17498D01*
X-12869D01*
X-13869D02*
X-13702Y-17664D01*
Y-17831D01*
X-14369D01*
Y-17997D02*
Y-17664D01*
X-14202Y-17498D01*
X-13869D01*
Y-18164D02*
X-14202D01*
X-14369Y-17997D01*
X-14702Y-18164D02*
Y-17664D01*
X-14869Y-17498D01*
X-15369D01*
Y-18164D01*
X-15868D02*
X-15702Y-17997D01*
Y-17664D01*
X-15868Y-17498D01*
X-16202D01*
X-16368Y-17664D01*
Y-17997D01*
X-16202Y-18164D01*
X-15868D01*
X-16868D02*
X-17368D01*
Y-18497D02*
Y-17498D01*
X-16868D01*
X-16702Y-17664D01*
Y-17997D01*
X-16868Y-18164D01*
X-17701D02*
Y-17664D01*
X-17868Y-17498D01*
X-18034Y-17664D01*
Y-18164D01*
Y-17664D01*
X-18201Y-17498D01*
X-18368D01*
Y-18164D01*
X-18867D02*
X-18701Y-17997D01*
Y-17664D01*
X-18867Y-17498D01*
X-19201D01*
X-19367Y-17664D01*
Y-17997D01*
X-19201Y-18164D01*
X-18867D01*
X-19867D02*
X-19701Y-17997D01*
X-19867Y-18164D02*
X-20200D01*
X-20367Y-17997D01*
Y-17331D01*
X-20200Y-17164D01*
X-19867D01*
X-19701Y-17331D01*
D12*
X14347Y-11401D02*
D03*
X12300D02*
D03*
X10282D02*
D03*
%TF.MD5,c7955c91cf8dfb6b3ea65e01f3bb7d25*%
M02*
