G04 Layer_Color=128*
%FSLAX43Y43*%
%MOMM*%
%TF.FileFunction,Drillmap*%
%TF.Part,Single*%
G01*
G75*
%TA.AperFunction,NonConductor*%
%ADD11C,0.150*%
%ADD21C,0.127*%
D11*
X-8631Y-16584D02*
X-8964D01*
X-9131Y-16417D01*
Y-16084D01*
X-8964Y-15918D01*
X-8631D01*
X-8464Y-16084D01*
Y-16251D01*
X-9131D01*
X-9464Y-16584D02*
X-9964D01*
X-10130Y-16417D01*
Y-16084D01*
X-9964Y-15918D01*
X-9464D01*
Y-15584D02*
Y-16584D01*
X-10630D02*
X-10797D01*
Y-15918D01*
X-10963D01*
X-11297D02*
Y-16584D01*
X-11796D01*
X-11963Y-16417D01*
Y-15918D01*
X-12296Y-16084D02*
X-12630D01*
X-12796Y-15584D02*
X-12963Y-15751D01*
Y-16417D01*
X-12796Y-16584D01*
X-12463D01*
X-12296Y-16417D01*
Y-16084D01*
Y-15751D02*
X-12463Y-15584D01*
X-12796D01*
X-14629D02*
X-14796D01*
X-14629D02*
Y-16584D01*
X-14462D01*
X-14796D01*
X-15295D02*
X-15462D01*
Y-15584D01*
X-15629D01*
X-16295Y-15918D02*
X-16462D01*
X-16961D02*
X-17128D01*
X-17295Y-16084D01*
X-17461Y-16251D01*
Y-16584D01*
Y-15918D01*
X-17795Y-15751D02*
X-17961Y-15584D01*
X-18461D01*
Y-16584D01*
X-17961D01*
X-17795Y-16417D01*
Y-15751D01*
X-16462Y-16584D02*
X-16128D01*
X-16295D01*
Y-15918D01*
X-15629Y-16584D02*
X-15295D01*
X-10963D02*
X-10630D01*
D21*
X19999Y-5684D02*
X20199D01*
X20099Y-5784D02*
Y-5584D01*
X21823Y-5677D02*
X22023D01*
X21923Y-5777D02*
Y-5577D01*
X18346Y-5647D02*
X18146D01*
X18246Y-5747D02*
Y-5547D01*
X0Y-1000D02*
Y1000D01*
X1000Y0D02*
X-1000D01*
X35850Y0D02*
X37850D01*
X36850Y-1000D02*
Y1000D01*
%TF.MD5,c4ca43ec54a483f336c7619557396a58*%
M02*
