G04 Layer_Physical_Order=1*
G04 Layer_Color=255*
%FSLAX43Y43*%
%MOMM*%
%TF.FileFunction,Copper,L1,Top,Signal*%
%TF.Part,Single*%
G01*
G75*
%TA.AperFunction,NonConductor*%
%ADD10C,0.100*%
%ADD11C,0.150*%
%TA.AperFunction,ViaPad*%
%ADD12C,2.000*%
%ADD13C,0.610*%
G36*
X1284Y6056D02*
X1459Y5995D01*
X1615Y5896D01*
X1746Y5765D01*
X1845Y5609D01*
X1906Y5434D01*
X1928Y5241D01*
Y-3800D01*
X1931Y-3809D01*
X1929Y-3818D01*
X1954Y-4043D01*
X1963Y-4059D01*
X1962Y-4078D01*
X2037Y-4292D01*
X2049Y-4306D01*
X2053Y-4325D01*
X2173Y-4516D01*
X2188Y-4527D01*
X2196Y-4545D01*
X2355Y-4704D01*
X2373Y-4712D01*
X2384Y-4727D01*
X2575Y-4847D01*
X2594Y-4851D01*
X2608Y-4863D01*
X2822Y-4938D01*
X2841Y-4937D01*
X2857Y-4946D01*
X3082Y-4971D01*
X3091Y-4969D01*
X3100Y-4972D01*
X34200D01*
X34209Y-4969D01*
X34218Y-4971D01*
X34443Y-4946D01*
X34459Y-4937D01*
X34478Y-4938D01*
X34692Y-4863D01*
X34706Y-4851D01*
X34725Y-4847D01*
X34916Y-4727D01*
X34927Y-4712D01*
X34945Y-4704D01*
X35104Y-4545D01*
X35112Y-4527D01*
X35127Y-4516D01*
X35247Y-4325D01*
X35251Y-4306D01*
X35263Y-4292D01*
X35338Y-4078D01*
X35337Y-4059D01*
X35346Y-4043D01*
X35371Y-3818D01*
X35369Y-3809D01*
X35372Y-3800D01*
Y3591D01*
X35394Y3784D01*
X35455Y3959D01*
X35554Y4115D01*
X35685Y4246D01*
X35841Y4345D01*
X36016Y4406D01*
X36209Y4428D01*
X37008D01*
X37216Y4402D01*
X37403Y4331D01*
X37567Y4218D01*
X37712Y4054D01*
X37712Y4054D01*
X38034Y3690D01*
X38052Y3681D01*
X38063Y3664D01*
X38462Y3388D01*
X38482Y3383D01*
X38497Y3369D01*
X38950Y3197D01*
X38971Y3197D01*
X38989Y3187D01*
X39470Y3129D01*
X39490Y3134D01*
X39510Y3129D01*
X39991Y3187D01*
X40009Y3197D01*
X40030Y3197D01*
X40483Y3369D01*
X40498Y3383D01*
X40518Y3388D01*
X40917Y3664D01*
X40928Y3681D01*
X40946Y3690D01*
X41268Y4054D01*
X41268Y4054D01*
X41413Y4218D01*
X41577Y4331D01*
X41764Y4402D01*
X41972Y4428D01*
X41991D01*
X42184Y4406D01*
X42359Y4345D01*
X42515Y4246D01*
X42646Y4115D01*
X42745Y3959D01*
X42806Y3784D01*
X42828Y3591D01*
Y-2470D01*
X41667D01*
Y-3457D01*
X42525D01*
X42578Y-3584D01*
X42515Y-3646D01*
X42359Y-3745D01*
X42184Y-3806D01*
X41991Y-3828D01*
X37850D01*
X37841Y-3831D01*
X37832Y-3829D01*
X37607Y-3854D01*
X37591Y-3863D01*
X37572Y-3862D01*
X37358Y-3937D01*
X37344Y-3949D01*
X37325Y-3953D01*
X37134Y-4073D01*
X37123Y-4088D01*
X37105Y-4096D01*
X36946Y-4255D01*
X36938Y-4273D01*
X36923Y-4284D01*
X36803Y-4475D01*
X36799Y-4494D01*
X36787Y-4508D01*
X36712Y-4722D01*
X36713Y-4741D01*
X36704Y-4757D01*
X36679Y-4982D01*
X36681Y-4991D01*
X36678Y-5000D01*
Y-5591D01*
X36656Y-5784D01*
X36595Y-5959D01*
X36496Y-6115D01*
X36365Y-6246D01*
X36209Y-6345D01*
X36034Y-6406D01*
X35841Y-6428D01*
X-7709Y-6428D01*
X-7897Y-6407D01*
X-8076Y-6346D01*
X-9581Y-5644D01*
X-9749Y-5542D01*
X-9882Y-5411D01*
X-9983Y-5253D01*
X-10045Y-5076D01*
X-10068Y-4881D01*
Y4531D01*
X-10045Y4726D01*
X-9983Y4903D01*
X-9882Y5061D01*
X-9749Y5192D01*
X-9581Y5294D01*
X-8076Y5996D01*
X-7897Y6057D01*
X-7709Y6078D01*
X1091D01*
X1284Y6056D01*
D02*
G37*
D10*
X41894Y-3230D02*
Y-2697D01*
Y-2963D01*
X42694D01*
D11*
X-8464Y-12365D02*
X-8631Y-12198D01*
X-8464Y-12365D02*
X-8131D01*
X-7964Y-12198D01*
Y-12032D01*
X-8131Y-11865D01*
X-8464D01*
X-8631Y-11699D01*
Y-11532D01*
X-8464Y-11365D01*
X-8131D01*
X-7964Y-11532D01*
X-7631Y-11699D02*
X-7465D01*
Y-12365D01*
X-7298D01*
X-7631D01*
X-6631D02*
X-6798Y-12198D01*
Y-11865D01*
X-6631Y-11699D01*
X-6132D01*
Y-11365D02*
Y-12365D01*
X-6631D01*
X-5632D02*
X-5798Y-12198D01*
Y-11865D01*
X-5632Y-11699D01*
X-5299D01*
X-5132Y-11865D01*
Y-12032D01*
X-5798D01*
X-5632Y-12365D02*
X-5299D01*
X-10130D02*
X-10297Y-12198D01*
Y-11699D01*
X-10464D01*
X-10130D01*
X-10297D01*
Y-11532D01*
X-10963Y-11699D02*
X-10797Y-11865D01*
Y-12365D01*
X-11463D02*
Y-11699D01*
X-10963D01*
X-11963D02*
X-11796Y-11865D01*
Y-12032D01*
X-12463D01*
Y-12198D02*
Y-11865D01*
X-12296Y-11699D01*
X-11963D01*
Y-12365D02*
X-12296D01*
X-12463Y-12198D01*
X-12796Y-12365D02*
Y-11865D01*
X-12963Y-11699D01*
X-13463D01*
Y-12365D01*
X-13962D02*
X-13796Y-12198D01*
Y-11865D01*
X-13962Y-11699D01*
X-14296D01*
X-14462Y-11865D01*
Y-12198D01*
X-14296Y-12365D01*
X-13962D01*
X-14962D02*
X-15462D01*
Y-12698D02*
Y-11699D01*
X-14962D01*
X-14796Y-11865D01*
Y-12198D01*
X-14962Y-12365D01*
X-15795D02*
Y-11865D01*
X-15962Y-11699D01*
X-16128Y-11865D01*
Y-12365D01*
Y-11865D01*
X-16295Y-11699D01*
X-16462D01*
Y-12365D01*
X-16961D02*
X-16795Y-12198D01*
Y-11865D01*
X-16961Y-11699D01*
X-17295D01*
X-17461Y-11865D01*
Y-12198D01*
X-17295Y-12365D01*
X-16961D01*
X-17961D02*
X-17795Y-12198D01*
X-17961Y-12365D02*
X-18294D01*
X-18461Y-12198D01*
Y-11532D01*
X-18294Y-11365D01*
X-17961D01*
X-17795Y-11532D01*
D12*
X36850Y0D02*
D03*
X0Y0D02*
D03*
D13*
X20099Y-5684D02*
D03*
X21923Y-5677D02*
D03*
X18246Y-5647D02*
D03*
%TF.MD5,101e7724068b4b296983ea89b6fa58e0*%
M02*
