G04 Layer_Color=16711935*
%FSLAX43Y43*%
%MOMM*%
%TF.FileFunction,Other,Mechanical_1*%
%TF.Part,Single*%
G01*
G75*
%TA.AperFunction,NonConductor*%
%ADD11C,0.150*%
%ADD15C,0.010*%
D11*
X26365Y-12361D02*
X26698D01*
X26531D01*
Y-11361D01*
X26365D01*
X27198Y-11695D02*
X27364D01*
Y-12361D01*
X27531D01*
X27198D01*
X28031D02*
Y-11695D01*
X28531D01*
X28697Y-11861D01*
Y-12361D01*
X29197D02*
X29031Y-12194D01*
Y-11861D01*
X29197Y-11695D01*
X29530D01*
X29697Y-11861D01*
Y-12028D01*
X29031D01*
X29197Y-12361D02*
X29530D01*
X25865D02*
X25698Y-12194D01*
Y-11695D01*
X25532D01*
X25865D01*
X25698D01*
Y-11528D01*
X25198Y-11695D02*
Y-12361D01*
X24699D01*
X24532Y-12194D01*
Y-11695D01*
X24199Y-11528D02*
X24032Y-11361D01*
X23699D01*
X23532Y-11528D01*
Y-12194D01*
X23699Y-12361D01*
X24032D01*
X24199Y-12194D01*
Y-11528D01*
X22199Y-11361D02*
Y-12361D01*
X21700D01*
X21533Y-12194D01*
Y-11861D01*
X21700Y-11695D01*
X22199D01*
X21033D02*
X20867D01*
X20700Y-11861D01*
X20533Y-12028D01*
Y-12361D01*
Y-11695D01*
X20034D02*
X20200Y-11861D01*
Y-12361D01*
X19700D01*
X19534Y-12194D01*
X19700Y-12028D01*
X20200D01*
X20034Y-11695D02*
X19700D01*
X19200Y-11861D02*
X19034Y-11695D01*
X18701D01*
X18534Y-11861D01*
Y-12194D01*
X18701Y-12361D01*
X19034D01*
X19200Y-12194D01*
Y-11861D01*
X18034D02*
X17534D01*
X18034D01*
X18201Y-11695D01*
Y-11528D01*
X18034Y-11361D01*
X17534D01*
Y-12361D01*
X18034D01*
X18201Y-12194D01*
Y-12028D01*
X18034Y-11861D01*
D15*
X35850Y-6590D02*
X36070Y-6565D01*
X36280Y-6492D01*
X36467Y-6374D01*
X36624Y-6217D01*
X36742Y-6030D01*
X36815Y-5820D01*
X36840Y-5600D01*
Y-5000D01*
X36865Y-4775D01*
X36940Y-4562D01*
X37060Y-4370D01*
X37220Y-4210D01*
X37412Y-4090D01*
X37625Y-4015D01*
X37850Y-3990D01*
X42000D01*
X42220Y-3965D01*
X42430Y-3892D01*
X42617Y-3774D01*
X42774Y-3617D01*
X42892Y-3430D01*
X42965Y-3220D01*
X42990Y-3000D01*
Y3600D01*
X42965Y3820D01*
X42892Y4030D01*
X42774Y4217D01*
X42617Y4374D01*
X42430Y4492D01*
X42220Y4565D01*
X42000Y4590D01*
X41962D01*
X41725Y4561D01*
X41501Y4476D01*
X41304Y4340D01*
X41146Y4161D01*
X40825Y3797D01*
X40426Y3521D01*
X39972Y3349D01*
X39490Y3290D01*
X39008Y3349D01*
X38554Y3521D01*
X38155Y3797D01*
X37834Y4161D01*
X37676Y4340D01*
X37479Y4476D01*
X37255Y4561D01*
X37018Y4590D01*
X36200D01*
X35980Y4565D01*
X35770Y4492D01*
X35583Y4374D01*
X35426Y4217D01*
X35308Y4030D01*
X35235Y3820D01*
X35210Y3600D01*
Y-3800D01*
X35185Y-4025D01*
X35110Y-4238D01*
X34990Y-4430D01*
X34830Y-4590D01*
X34638Y-4710D01*
X34425Y-4785D01*
X34200Y-4810D01*
X3100D01*
X2875Y-4785D01*
X2662Y-4710D01*
X2470Y-4590D01*
X2310Y-4430D01*
X2190Y-4238D01*
X2115Y-4025D01*
X2090Y-3800D01*
Y5250D01*
X2065Y5470D01*
X1992Y5680D01*
X1874Y5867D01*
X1717Y6024D01*
X1530Y6142D01*
X1320Y6215D01*
X1100Y6240D01*
X-7718D01*
X-7933Y6217D01*
X-8137Y6147D01*
X-9658Y5438D01*
X-9850Y5321D01*
X-10009Y5163D01*
X-10130Y4974D01*
X-10205Y4763D01*
X-10230Y4540D01*
Y-4890D01*
X-10205Y-5113D01*
X-10130Y-5324D01*
X-10009Y-5513D01*
X-9850Y-5671D01*
X-9658Y-5788D01*
X-8137Y-6497D01*
X-7933Y-6567D01*
X-7718Y-6590D01*
X35850Y-6590D01*
%TF.MD5,0eb13870d3483d544638df2ac8559fbf*%
M02*
