G04 Layer_Color=2752767*
%FSLAX43Y43*%
%MOMM*%
%TF.FileFunction,Drawing*%
%TF.Part,Single*%
G01*
G75*
%TA.AperFunction,NonConductor*%
%ADD11C,0.150*%
%ADD21C,0.127*%
%ADD22C,0.169*%
D11*
X45864Y-12361D02*
Y-11695D01*
X46364D01*
X46531Y-11861D01*
Y-12361D01*
X46864Y-12194D02*
X47031Y-12361D01*
X47530D01*
Y-12528D02*
Y-11695D01*
X47031D01*
X46864Y-11861D01*
Y-12194D01*
X47197Y-12694D02*
X47364D01*
X47530Y-12528D01*
X45364Y-12361D02*
X45198D01*
Y-11695D01*
X45031D01*
X44698D02*
Y-12194D01*
X44531Y-12361D01*
X44365Y-12194D01*
X44198Y-12361D01*
X44032Y-12194D01*
Y-11695D01*
X43532D02*
X43698Y-11861D01*
Y-12361D01*
X43199D01*
X43032Y-12194D01*
X43199Y-12028D01*
X43698D01*
X43532Y-11695D02*
X43199D01*
X42532D02*
X42365D01*
X42199Y-11861D01*
X42032Y-12028D01*
Y-12361D01*
Y-11695D01*
X45031Y-12361D02*
X45364D01*
X41532D02*
X41699Y-12194D01*
Y-11528D01*
X41532Y-11361D01*
X41033D01*
Y-12361D01*
X41532D01*
X39533D02*
X39366D01*
Y-11361D01*
X39200D01*
X38533D02*
X38367D01*
X38533D02*
Y-12361D01*
X38700D01*
X38367D01*
X37867D02*
X37700D01*
Y-11695D01*
X37534D01*
X37034D02*
X36867D01*
X36701Y-11861D01*
X36534Y-12028D01*
Y-12361D01*
Y-11695D01*
X36201Y-11528D02*
X36034Y-11361D01*
X35534D01*
Y-12361D01*
X36034D01*
X36201Y-12194D01*
Y-11528D01*
X37534Y-12361D02*
X37867D01*
X39200D02*
X39533D01*
D21*
X36342Y-508D02*
Y508D01*
X37358D01*
Y-508D01*
X36342D01*
X508Y-508D02*
X-508D01*
Y508D01*
X508D01*
Y-508D01*
D22*
X22431Y-5677D02*
G03*
X22431Y-5677I-508J0D01*
G01*
X20607Y-5684D02*
G03*
X20607Y-5684I-508J0D01*
G01*
X18754Y-5647D02*
G03*
X18754Y-5647I-508J0D01*
G01*
%TF.MD5,9b43b0e4e0a11bd45f4b6da0831ed7d9*%
M02*
